<?xml version="1.0" encoding="UTF-8"?>
<svg id="OBJECT" xmlns="http://www.w3.org/2000/svg" viewBox="0 0 32 32">
  <defs>
    <style>
      .cls-1 {
        fill: #7738c8;
      }

      .cls-1, .cls-2 {
        stroke-width: 0px;
      }

      .cls-2 {
        fill: #011839;
      }
    </style>
  </defs>
  <path class="cls-2" d="m28,18h-.46l-1.11-1.66c-.56-.84-1.49-1.34-2.5-1.34h-5.96l-2.52-5.29c-.49-1.04-1.56-1.71-2.71-1.71h-3.74c-.33,0-.64.16-.82.43-.19.27-.23.62-.11.92l2.15,5.64h-2.6l-1.17-2.34c-.51-1.02-1.54-1.66-2.68-1.66h-1.76c-.55,0-1,.45-1,1v6.76c0,.72.26,1.41.72,1.95l1.92,2.24c.57.67,1.4,1.05,2.28,1.05h4.3l-2.15,5.64c-.12.31-.08.65.11.92.19.27.49.43.82.43h3.74c1.15,0,2.21-.67,2.71-1.71l2.52-5.29h12.04c.55,0,1-.45,1-1v-2c0-1.65-1.35-3-3-3ZM10.45,10h2.29c.38,0,.74.22.9.57l2.11,4.43h-3.39l-1.9-5Zm-6.69,3c.38,0,.72.21.89.55l.72,1.45h-2.38v-2h.76Zm9.88,15.43c-.17.35-.52.57-.9.57h-2.29l3.24-8.5h3.73l-3.78,7.93Zm15.36-6.43h-10.08l.99-2.07c.15-.31.13-.67-.06-.96-.18-.29-.5-.47-.85-.47h-6c-.42,0-.79.26-.93.64l-1.09,2.86h-5.06c-.29,0-.57-.13-.76-.35l-1.92-2.24c-.16-.18-.24-.41-.24-.65v-1.76h20.93c.33,0,.65.17.83.45l.37.55h-3.13c-.55,0-1,.45-1,1s.45,1,1,1h6c.55,0,1,.45,1,1v1Z"/>
  <path class="cls-1" d="m19.75,10.5h8.5c1.52,0,2.75-1.23,2.75-2.75s-1.23-2.75-2.75-2.75h-3.25c-.55,0-1-.45-1-1s.45-1,1-1h2.22c-.81-1.2-2.17-2-3.72-2-2.35,0-4.28,1.8-4.48,4.1-1.16.32-2.02,1.39-2.02,2.65,0,1.52,1.23,2.75,2.75,2.75Z"/>
</svg>