<?xml version="1.0" encoding="UTF-8"?>
<svg id="OBJECT" xmlns="http://www.w3.org/2000/svg" viewBox="0 0 32 32">
  <defs>
    <style>
      .cls-1 {
        fill: #7738c8;
      }

      .cls-1, .cls-2 {
        stroke-width: 0px;
      }

      .cls-2 {
        fill: #011839;
      }
    </style>
  </defs>
  <g>
    <path class="cls-2" d="m12.5,27.5h7c1.65,0,3-1.35,3-3v-3c0-1.65-1.35-3-3-3h-7c-1.65,0-3,1.35-3,3v3c0,1.65,1.35,3,3,3Zm-1-6c0-.55.45-1,1-1h7c.55,0,1,.45,1,1v3c0,.55-.45,1-1,1h-7c-.55,0-1-.45-1-1v-3Z"/>
    <path class="cls-2" d="m28.5,18h-2.5v-3c0-.55-.45-1-1-1s-1,.45-1,1v14H8v-14c0-.55-.45-1-1-1s-1,.45-1,1v3h-2.5c-1.38,0-2.5,1.12-2.5,2.5v8c0,1.38,1.12,2.5,2.5,2.5h25c1.38,0,2.5-1.12,2.5-2.5v-8c0-1.38-1.12-2.5-2.5-2.5ZM3,28.5v-8c0-.28.22-.5.5-.5h2.5v9h-2.5c-.28,0-.5-.22-.5-.5Zm26,0c0,.28-.22.5-.5.5h-2.5v-9h2.5c.28,0,.5.22.5.5v8Z"/>
  </g>
  <path class="cls-1" d="m9.98,11.5c0-.55.45-1,1-1s1,.45,1,1v.5h8v-.5c0-.55.45-1,1-1s1,.45,1,1v.5h6.02v-4.5c0-1.38-1.12-2.5-2.5-2.5h-6v-.5c0-1.93-1.57-3.5-3.5-3.5s-3.5,1.57-3.5,3.5v.5h-6c-1.38,0-2.5,1.12-2.5,2.5v4.5h5.98v-.5Zm4.52-7c0-.83.67-1.5,1.5-1.5s1.5.67,1.5,1.5v.5h-3v-.5Z"/>
</svg>