<?xml version="1.0" encoding="UTF-8"?>
<svg id="OBJECT" xmlns="http://www.w3.org/2000/svg" viewBox="0 0 32 32">
  <defs>
    <style>
      .cls-1 {
        fill: #7738c8;
      }

      .cls-1, .cls-2 {
        stroke-width: 0px;
      }

      .cls-2 {
        fill: #011839;
      }
    </style>
  </defs>
  <g>
    <path class="cls-2" d="m19.75,17.75h8.5c1.52,0,2.75-1.23,2.75-2.75,0-1.26-.86-2.33-2.02-2.65-.2-2.29-2.14-4.1-4.48-4.1s-4.22,1.75-4.47,4h-.28c-1.52,0-2.75,1.23-2.75,2.75s1.23,2.75,2.75,2.75Zm0-3.5h4.25c.55,0,1-.45,1-1s-.45-1-1-1h-1.95c.23-1.14,1.24-2,2.45-2,1.38,0,2.5,1.12,2.5,2.5,0,.1-.02.2-.04.36-.04.29.04.58.23.8s.47.34.76.34h.3c.41,0,.75.34.75.75s-.34.75-.75.75h-8.5c-.41,0-.75-.34-.75-.75s.34-.75.75-.75Z"/>
    <path class="cls-2" d="m26.6,22.42c-1.17-1.17-2.73-1.82-4.39-1.82s-3.34.7-4.51,1.94l-1.13-1.25c-1.32-1.46-3.21-2.29-5.18-2.29s-3.78.8-5.1,2.21l-5.02,5.34c-.17.19-.27.43-.27.68v1.27c0,1.38,1.12,2.5,2.5,2.5h25c1.38,0,2.5-1.12,2.5-2.5v-1.27c0-.26-.1-.52-.29-.71l-4.11-4.11Zm2.4,6.08c0,.28-.22.5-.5.5H3.5c-.28,0-.5-.22-.5-.5v-.87l4.75-5.05c.94-1,2.27-1.58,3.64-1.58s2.75.6,3.7,1.64l3.18,3.5c.37.41,1,.44,1.41.07.41-.37.44-1,.07-1.41l-.7-.77c.8-.91,1.95-1.43,3.16-1.43,1.11,0,2.19.45,2.98,1.23l3.81,3.82v.85Z"/>
  </g>
  <g>
    <path class="cls-1" d="m2.63,4.83c-1.38,1.97-1.91,4.36-1.49,6.73l.38,2.15c.07.42.41.75.83.81.05,0,.1.01.15.01.37,0,.72-.21.89-.54,0,0,.42-.79,1.14-.96.39-.09.83,0,1.33.29-.5-2.28-1.27-6.3-1.66-10.19-.59.5-1.12,1.07-1.57,1.71Z"/>
    <path class="cls-1" d="m19.24,10.58l-.38-2.15c-.42-2.37-1.73-4.43-3.7-5.81-.65-.45-1.34-.8-2.06-1.07.99,3.89,1.62,7.94,1.93,10.15.37-.43.76-.68,1.15-.73.74-.08,1.39.51,1.39.51.31.3.78.36,1.16.16.38-.2.59-.63.51-1.05Z"/>
    <path class="cls-1" d="m8.44,1.13c-.82.14-1.6.4-2.34.76.34,4.27,1.24,8.83,1.74,11.12.13-.31.54-1.05,1.46-1.22l.93,5.3c.38-.05.77-.08,1.16-.08.29,0,.58.02.87.04l-.99-5.6c.92-.16,1.57.41,1.79.64-.32-2.33-1.03-6.94-2.16-11.04-.81-.08-1.63-.06-2.45.09Z"/>
  </g>
</svg>