<?xml version="1.0" encoding="UTF-8"?>
<svg id="OBJECT" xmlns="http://www.w3.org/2000/svg" viewBox="0 0 32 32">
  <defs>
    <style>
      .cls-1 {
        fill: #7738c8;
      }

      .cls-1, .cls-2 {
        stroke-width: 0px;
      }

      .cls-2 {
        fill: #011839;
      }
    </style>
  </defs>
  <path class="cls-2" d="m30,15h-5.52l-3.7-4.62c-.19-.24-.48-.38-.78-.38H6c-.55,0-1,.45-1,1v1h-3c-.55,0-1,.45-1,1v8c0,.55.45,1,1,1h3v1c0,.55.45,1,1,1h2c0,2.21,1.79,4,4,4s4-1.79,4-4h3c0,2.21,1.79,4,4,4s4-1.79,4-4h3c.55,0,1-.45,1-1v-7c0-.55-.45-1-1-1Zm-8.08,0h-6.92v-3h4.52l2.4,3Zm-8.92-3v3h-6v-3h6ZM3,20v-6h2v6h-2Zm9,6c-1.1,0-2-.9-2-2s.9-2,2-2,2,.9,2,2-.9,2-2,2Zm11,0c-1.1,0-2-.9-2-2s.9-2,2-2,2,.9,2,2-.9,2-2,2Zm6-4h-2.56c-.69-1.19-1.97-2-3.44-2s-2.75.81-3.44,2h-4.11c-.69-1.19-1.97-2-3.44-2s-2.75.81-3.44,2h-1.56v-5h22v5Z"/>
  <path class="cls-1" d="m7.29,6h1v2h9v-2h1c.55,0,1-.45,1-1s-.45-1-1-1H7.29c-.55,0-1,.45-1,1s.45,1,1,1Z"/>
</svg>