<?xml version="1.0" encoding="UTF-8"?>
<svg id="OBJECT" xmlns="http://www.w3.org/2000/svg" viewBox="0 0 32 32">
  <defs>
    <style>
      .cls-1 {
        fill: #7738c8;
      }

      .cls-1, .cls-2 {
        stroke-width: 0px;
      }

      .cls-2 {
        fill: #011839;
      }
    </style>
  </defs>
  <g>
    <path class="cls-2" d="m30,4H2c-.55,0-1,.45-1,1v16c0,.55.45,1,1,1h28c.55,0,1-.45,1-1V5c0-.55-.45-1-1-1Zm-1,16H3V6h26v14Z"/>
    <path class="cls-2" d="m16.5,15.63h-3.64c-.55,0-1,.45-1,1s.45,1,1,1h1.73v.82c0,.55.45,1,1,1s1-.45,1-1v-.83c1.51-.05,2.73-1.29,2.73-2.81s-1.26-2.82-2.82-2.82h-1.82c-.45,0-.82-.37-.82-.82s.37-.82.82-.82h3.63c.55,0,1-.45,1-1s-.45-1-1-1h-1.73v-.82c0-.55-.45-1-1-1s-1,.45-1,1v.83c-1.51.05-2.73,1.29-2.73,2.81s1.26,2.82,2.82,2.82h1.82c.45,0,.82.37.82.82s-.37.82-.82.82Z"/>
    <path class="cls-2" d="m23.77,19c.55,0,1-.45,1-1v-.91c0-.45.37-.82.82-.82h.91c.55,0,1-.45,1-1s-.45-1-1-1h-.91c-1.55,0-2.82,1.26-2.82,2.82v.91c0,.55.45,1,1,1Z"/>
    <path class="cls-2" d="m25.59,11.73h.91c.55,0,1-.45,1-1s-.45-1-1-1h-.91c-.45,0-.82-.37-.82-.82v-.91c0-.55-.45-1-1-1s-1,.45-1,1v.91c0,1.55,1.26,2.82,2.82,2.82Z"/>
    <path class="cls-2" d="m5.5,16.27h.91c.45,0,.82.37.82.82v.91c0,.55.45,1,1,1s1-.45,1-1v-.91c0-1.55-1.26-2.82-2.82-2.82h-.91c-.55,0-1,.45-1,1s.45,1,1,1Z"/>
    <path class="cls-2" d="m5.5,11.73h.91c1.55,0,2.82-1.26,2.82-2.82v-.91c0-.55-.45-1-1-1s-1,.45-1,1v.91c0,.45-.37.82-.82.82h-.91c-.55,0-1,.45-1,1s.45,1,1,1Z"/>
  </g>
  <path class="cls-1" d="m2.5,26c0,1.1.9,2,2,2h23c1.1,0,2-.9,2-2v-2H2.5v2Z"/>
</svg>