<?xml version="1.0" encoding="UTF-8"?>
<svg id="Expanded" xmlns="http://www.w3.org/2000/svg" viewBox="0 0 64 64">
  <path d="M55.86,53.66v-28.23c0-2.03-1.59-3.68-3.58-3.81v-3.74c0-2.12-1.72-3.84-3.84-3.84h-4.63v-1.8c0-2.12-1.72-3.84-3.84-3.84h-.24v-2.56c0-2.12-1.72-3.84-3.84-3.84h-2.47c-2.12,0-3.84,1.72-3.84,3.84v2.56h-.32c-2.12,0-3.84,1.72-3.84,3.84v5.35l-2.89-1.88c-1.2-.78-2.67-.84-3.92-.16-1.26.68-2.01,1.94-2.01,3.38v3.92l-6.38,4.97c-.94.73-1.48,1.84-1.48,3.03v22.59c-1.64.5-2.85,2.01-2.85,3.81v.76c0,2.21,1.79,4,4,4h44.21c2.21,0,4-1.79,4-4v-.76c0-1.58-.92-2.93-2.25-3.58ZM53.86,25.44v27.81h-10.05v-4.89h6.07c.55,0,1-.45,1-1s-.45-1-1-1h-6.07v-6.93h6.07c.55,0,1-.45,1-1s-.45-1-1-1h-6.07v-6.93h6.07c.55,0,1-.45,1-1s-.45-1-1-1h-6.07v-4.89h8.21c1.01,0,1.84.83,1.84,1.84ZM48.43,16.04c1.01,0,1.84.83,1.84,1.84v3.72h-6.47v-5.56h4.63ZM31.57,5.84c0-1.01.83-1.84,1.84-1.84h2.47c1.01,0,1.84.83,1.84,1.84v2.56h-6.15v-2.56ZM27.42,12.24c0-1.01.83-1.84,1.84-1.84h10.71c1.01,0,1.84.83,1.84,1.84v41.01h-5.57v-4.28h2.16c.55,0,1-.45,1-1s-.45-1-1-1h-2.16v-3.18h2.16c.55,0,1-.45,1-1s-.45-1-1-1h-2.16v-3.18h2.16c.55,0,1-.45,1-1s-.45-1-1-1h-2.16v-3.17h2.16c.55,0,1-.45,1-1s-.45-1-1-1h-2.16v-3.18h2.16c.55,0,1-.45,1-1s-.45-1-1-1h-2.19c-.13-1.13-.75-2.14-1.72-2.77l-.64-.42h4.54c.55,0,1-.45,1-1s-.45-1-1-1h-7.55s-.03,0-.05.01l-3.37-2.19v-6.65ZM18.59,18.92c0-.69.36-1.29.96-1.62.6-.32,1.3-.3,1.88.08l11.96,7.78c.52.34.84.92.84,1.54v.54s0,0,0,0,0,0,0,0v5.16s0,0,0,0,0,0,0,0v5.15s0,0,0,0,0,0,0,0v5.16s0,0,0,0,0,0,0,0v5.16s0,0,0,0,0,0,0,0v5.27h-15.64V18.92ZM11.45,29.39l5.15-4.01v27.87h-5.86v-22.4c0-.57.26-1.1.71-1.45ZM56.11,58c0,1.1-.9,2-2,2H9.89c-1.1,0-2-.9-2-2v-.76c0-1.1.9-2,2-2h44.21c1.1,0,2,.9,2,2v.76ZM29.84,16.89c0-.55.45-1,1-1h7.55c.55,0,1,.45,1,1s-.45,1-1,1h-7.55c-.55,0-1-.45-1-1ZM21.27,23.33c0-.55.45-1,1-1h1.97c.55,0,1,.45,1,1s-.45,1-1,1h-1.97c-.55,0-1-.45-1-1ZM21.27,29.49c0-.55.45-1,1-1h8.29c.55,0,1,.45,1,1s-.45,1-1,1h-8.29c-.55,0-1-.45-1-1ZM21.28,35.64c0-.55.45-1,1-1h8.29c.55,0,1,.45,1,1s-.45,1-1,1h-8.29c-.55,0-1-.45-1-1ZM21.28,41.8c0-.55.45-1,1-1h8.29c.55,0,1,.45,1,1s-.45,1-1,1h-8.29c-.55,0-1-.45-1-1ZM30.57,48.96h-8.29c-.55,0-1-.45-1-1s.45-1,1-1h8.29c.55,0,1,.45,1,1s-.45,1-1,1Z"/>
</svg>