<?xml version="1.0" encoding="UTF-8"?>
<svg id="OBJECT" xmlns="http://www.w3.org/2000/svg" viewBox="0 0 32 32">
  <defs>
    <style>
      .cls-1 {
        fill: #7738c8;
      }

      .cls-1, .cls-2 {
        stroke-width: 0px;
      }

      .cls-2 {
        fill: #011839;
      }
    </style>
  </defs>
  <path class="cls-2" d="m17.47,10.12c-1.12-.59-2.28-1.05-3.47-1.38v-2.74h.5c.55,0,1-.45,1-1s-.45-1-1-1h-4v-2c0-.55-.45-1-1-1s-1,.45-1,1v2h-4c-.55,0-1,.45-1,1s.45,1,1,1h.5v2.74c-1.19.33-2.36.78-3.47,1.38-.4.21-.6.66-.51,1.1l2,9c.1.46.51.78.98.78h2v8h-1c-.55,0-1,.45-1,1s.45,1,1,1h9c.55,0,1-.45,1-1s-.45-1-1-1h-1v-8h2c.47,0,.87-.33.98-.78l2-9c.1-.44-.11-.89-.51-1.1Zm-2.2,4.04c-1.55-.56-3.15-.89-4.77-.98v-3c1.83.12,3.65.57,5.35,1.37l-.58,2.62ZM7,6h5v2.31c-1.66-.25-3.34-.25-5,0v-2.31Zm1.5,4.18v3c-1.62.1-3.23.42-4.77.98l-.58-2.62c1.7-.8,3.52-1.24,5.35-1.37Zm-4.34,5.96c1.4-.54,2.86-.86,4.34-.95v3.82h-3.7l-.64-2.87Zm6.84,12.87h-3v-8h3v8Zm-.5-10v-3.82c1.48.1,2.93.42,4.34.95l-.64,2.87h-3.7Z"/>
  <path class="cls-1" d="m28.25,19.5h-2.25c-.55,0-1-.45-1-1s.45-1,1-1h1.22c-.81-1.2-2.17-2-3.72-2-2.35,0-4.28,1.8-4.48,4.1-1.16.32-2.02,1.39-2.02,2.65,0,1.52,1.23,2.75,2.75,2.75h8.5c1.52,0,2.75-1.23,2.75-2.75s-1.23-2.75-2.75-2.75Z"/>
</svg>