<?xml version="1.0" encoding="UTF-8"?>
<svg id="OBJECT" xmlns="http://www.w3.org/2000/svg" viewBox="0 0 32 32">
  <defs>
    <style>
      .cls-1 {
        fill: #7738c8;
      }

      .cls-1, .cls-2 {
        stroke-width: 0px;
      }

      .cls-2 {
        fill: #011839;
      }
    </style>
  </defs>
  <path class="cls-2" d="m27.96,6.67h-.5c-.22-2.61-2.38-4.67-5.04-4.67-1.68,0-3.21.84-4.14,2.17-1.83-1.94-4.41-3.17-7.28-3.17C5.49,1,1,5.49,1,11c0,1.97.57,4.08,1.6,6h-.1c-.55,0-1,.45-1,1s.45,1,1,1h17c.55,0,1-.45,1-1s-.45-1-1-1h-.1c.72-1.36,1.22-2.82,1.45-4.25h7.11c1.68,0,3.04-1.36,3.04-3.04s-1.36-3.04-3.04-3.04Zm-15.16-3.46c.74,2.31,1.2,5.3,1.2,7.79,0,1.95-.31,4.13-.82,6h-4.35c-.51-1.87-.82-4.05-.82-6,0-2.49.47-5.48,1.2-7.79.58-.13,1.18-.21,1.8-.21s1.22.08,1.8.21ZM3,11c0-2.89,1.55-5.43,3.86-6.83-.53,2.19-.86,4.69-.86,6.83,0,1.96.28,4.08.75,6h-1.83c-1.2-1.86-1.92-4.06-1.92-6Zm12.25,6c.48-1.92.75-4.04.75-6,0-2.15-.32-4.64-.86-6.83,2.31,1.41,3.86,3.94,3.86,6.83,0,1.94-.72,4.14-1.92,6h-1.83Zm12.71-6.25h-6.97c-.04-1.77-.55-3.42-1.4-4.84.47-1.14,1.58-1.91,2.83-1.91,1.56,0,2.84,1.16,3.04,2.67h-.46c-.55,0-1,.45-1,1s.45,1,1,1h2.96c.57,0,1.04.47,1.04,1.04s-.47,1.04-1.04,1.04Z"/>
  <path class="cls-1" d="m17.5,24h-2.67l.86-3h-2.08l-.86,3h-3.49l-.86-3h-2.08l.86,3h-2.67c-.55,0-1,.45-1,1s.45,1,1,1h1v2c0,1.65,1.35,3,3,3h5c1.65,0,3-1.35,3-3v-2h1c.55,0,1-.45,1-1s-.45-1-1-1Z"/>
</svg>