<?xml version="1.0" encoding="UTF-8"?>
<svg id="Expanded" xmlns="http://www.w3.org/2000/svg" viewBox="0 0 64 64">
  <path d="M60.05,52.16v-24.43c0-2.03-1-3.92-2.67-5.07l-8.92-6.15v-1.71c1.67-.27,2.96-1.72,2.96-3.47,0-4.32-3.51-7.83-7.83-7.83h-23.18c-4.32,0-7.83,3.51-7.83,7.83,0,1.75,1.29,3.2,2.96,3.47v1.71l-8.92,6.15c-1.67,1.15-2.67,3.05-2.67,5.07v24.43c-1.18.83-1.95,2.2-1.95,3.75,0,2.53,2.06,4.59,4.59,4.59h50.82c2.53,0,4.59-2.06,4.59-4.59,0-1.55-.78-2.91-1.95-3.75ZM57.41,51.32h-8.95v-5.61h9.59v5.67c-.21-.03-.42-.06-.64-.06ZM43.15,51.32v-22.06c0-1.03-.4-1.96-1.05-2.66.63-.53,1.05-1.32,1.05-2.22v-1.43c0-1.61-1.31-2.91-2.91-2.91h-16.47c-1.61,0-2.91,1.31-2.91,2.91v1.43c0,.89.41,1.68,1.05,2.22-.64.7-1.05,1.63-1.05,2.66v22.06h-3.31V14.86h5.53c.22,1.3,1.35,2.3,2.72,2.3h12.44c1.36,0,2.49-1,2.72-2.3h5.53v36.46h-3.31ZM23.77,25.29c-.5,0-.91-.41-.91-.91v-1.43c0-.5.41-.91.91-.91h16.47c.5,0,.91.41.91.91v1.43c0,.5-.41.91-.91.91h-16.47ZM22.85,29.25c0-1.08.88-1.96,1.96-1.96h6.18v24.03h-8.15v-22.06ZM33,27.29h6.18c1.08,0,1.96.88,1.96,1.96v22.06h-8.15v-24.03ZM15.54,36.6H5.95v-5.1h9.59v5.1ZM5.95,38.6h9.59v5.1H5.95v-5.1ZM38.98,13.85s0,0,0,0,0,0,0,0v.53c0,.42-.34.76-.76.76h-12.44c-.42,0-.76-.34-.76-.76v-.53s0,0,0,0,0,0,0,0v-1.72c0-.42.34-.76.76-.76h12.44c.42,0,.76.34.76.76v1.72ZM48.46,38.6h9.59v5.1h-9.59v-5.1ZM58.05,36.6h-9.59v-5.1h9.59v5.1ZM56.25,24.31c1.13.78,1.8,2.06,1.8,3.43v1.77h-9.59v-10.56l7.79,5.37ZM14.58,11.33c0-3.21,2.62-5.83,5.83-5.83h23.18c3.21,0,5.83,2.62,5.83,5.83,0,.84-.69,1.53-1.53,1.53h-6.91v-.73c0-1.52-1.24-2.76-2.76-2.76h-12.44c-1.52,0-2.76,1.24-2.76,2.76v.73h-6.91c-.84,0-1.53-.69-1.53-1.53ZM7.75,24.31l7.79-5.37v10.56H5.95v-1.77c0-1.37.67-2.65,1.8-3.43ZM5.95,45.71h9.59v5.61H6.59c-.22,0-.43.03-.64.06v-5.67ZM57.41,58.5H6.59c-1.43,0-2.59-1.16-2.59-2.59s1.16-2.59,2.59-2.59h9.93s.01,0,.02,0,.01,0,.02,0h30.88s.01,0,.02,0,.01,0,.02,0h9.93c1.43,0,2.59,1.16,2.59,2.59s-1.16,2.59-2.59,2.59Z"/>
</svg>