<?xml version="1.0" encoding="UTF-8"?>
<svg id="Expanded" xmlns="http://www.w3.org/2000/svg" viewBox="0 0 64 64">
  <path d="M32,21.6c3.01,0,5.46-2.45,5.46-5.46s-2.45-5.46-5.46-5.46-5.46,2.45-5.46,5.46,2.45,5.46,5.46,5.46ZM32,12.69c1.91,0,3.46,1.55,3.46,3.46s-1.55,3.46-3.46,3.46-3.46-1.55-3.46-3.46,1.55-3.46,3.46-3.46ZM53.59,31.32c-1.42-6.01-5.29-11.19-10.83-14.25.02-.31.04-.62.04-.92,0-5.96-4.85-10.81-10.81-10.81s-10.81,4.85-10.81,10.81c0,.3.02.61.04.92-4.31,2.39-7.73,6.15-9.66,10.7-.49,1.15-.86,2.34-1.15,3.54-3.97,1.07-8.43,2.93-8.43,5.89,0,2.47,2.98,4.48,8.85,6,2.86,8.95,11.26,15.46,21.15,15.46.03,0,.05,0,.08,0,0,0,0,0,0,0,0,0,0,0,0,0,6.67-.02,12.66-3.01,16.71-7.7.03-.03.06-.07.09-.1,1.89-2.22,3.36-4.81,4.27-7.65,5.87-1.52,8.85-3.53,8.85-6,0-2.95-4.44-4.81-8.41-5.88ZM47.74,49.09c-.35-.14-.7-.29-1.03-.47-1.05-.56-1.74-1.38-1.85-2.21l-.03-.21c-.03-.28-.07-.63-.24-1.02-.07-.15-.17-.27-.26-.39,2.31-.27,4.5-.62,6.49-1.04-.75,1.94-1.79,3.74-3.08,5.34ZM41.92,42.17c0-.51.21-1.17.76-1.47.3-.16.69-.26,1.1-.36.75-.19,1.59-.4,2.27-1.08.49-.5.72-1.09.93-1.62.14-.35.27-.68.44-.89.32-.4.9-.61,1.66-.81,1-.26,2.03-.44,3.08-.59.02.37.04.73.04,1.1,0,1.76-.25,3.45-.67,5.08-2.77.65-5.97,1.15-9.44,1.48-.12-.28-.17-.58-.17-.84ZM51.96,33.37c-1.14.16-2.27.36-3.37.65-1,.26-2.02.61-2.72,1.49-.37.45-.57.96-.75,1.41-.16.4-.3.74-.49.95-.28.28-.77.4-1.33.54-.49.12-1.04.26-1.56.54-1.09.59-1.79,1.81-1.81,3.19,0,.36.04.72.12,1.06-1.35.1-2.74.17-4.15.21.97-1.46.86-3.35.76-4.89v-.13c-.1-1.32,0-3.03,1.01-3.63.24-.15.58-.27.93-.4.97-.36,2.29-.86,2.43-2.34.04-.55-.13-1.03-.26-1.33-.58-1.38-1.68-2.37-2.78-3.22,2.19-2.18,3.77-5.33,4.45-8.29,5.17,3.11,8.62,8.31,9.53,14.2ZM32,7.34c4.86,0,8.81,3.95,8.81,8.81s-3.95,12.09-8.81,12.09-8.81-7.32-8.81-12.09,3.95-8.81,8.81-8.81ZM21.57,19.18c1.2,5.23,5.21,11.06,10.43,11.06,1.6,0,3.09-.55,4.42-1.47,1.08.81,2.05,1.61,2.51,2.69.08.17.11.3.11.37-.02.22-.64.45-1.14.64-.42.16-.86.32-1.26.56-1.5.91-2.17,2.75-1.98,5.48v.13c.1,1.5.2,3.06-.63,3.94-.49.52-1.32.81-2.47.88-.15.01-.27,0-.4.01-.09,0-.18,0-.26,0-.48-.02-.83-.12-1.06-.32-.28-.22-.48-.63-.65-1.3-.39-1.58-.35-3.23.12-4.78l.11-.35c.17-.52.36-1.1.38-1.76.02-1.11-.52-2.1-1.39-2.52-.69-.32-1.38-.23-1.93-.15-.32.05-.66.09-.81.02-.09-.04-.21-.15-.34-.26-.14-.12-.28-.24-.42-.34-1.74-1.25-4.05-.13-4.8.24-1.06.52-2.17.99-2.89.62-.57-.3-.85-1.04-1.18-1.91-.38-.99-.81-2.11-1.82-2.82-.11-.08-.23-.15-.35-.22,1.71-3.49,4.38-6.43,7.7-8.43ZM12.47,41.54c-.42-1.63-.67-3.32-.67-5.08,0-2.41.44-4.75,1.27-6.99.51.37.79,1.11,1.09,1.89.42,1.09.89,2.32,2.13,2.97,1.69.86,3.57-.05,4.68-.6,1.34-.65,2.25-.79,2.77-.41.09.06.17.14.26.21.21.18.47.41.81.57.69.32,1.38.23,1.94.15.31-.04.66-.09.79-.03.13.06.26.34.25.67-.01.36-.15.77-.29,1.19l-.12.39c-.58,1.89-.63,3.92-.15,5.85.08.31.2.68.36,1.06-5.66-.22-10.9-.85-15.13-1.85ZM4,37.2c0-.92,1.62-2.38,6.02-3.69-.13.97-.22,1.96-.22,2.95,0,1.54.16,3.05.46,4.51-4.58-1.33-6.26-2.83-6.26-3.77ZM13.18,43.75c1.16.25,2.39.46,3.67.66,1.18.87,1.71,1.68,2.18,2.4.29.45.57.88.95,1.25,1.3,1.25,3.06,1.21,4.61,1.16,1.19-.03,2.31-.07,3.1.4.02.05.03.12.04.18.03.12.05.24.09.35.41,1.29,1.61,1.71,2.57,2.05.46.16.9.32,1.2.54.67.49.8,1.55.62,2.33-.12.57-.38,1.1-.66,1.58-8.37-.19-15.48-5.48-18.36-12.89ZM33.8,56.57c.14-.34.27-.7.35-1.08.39-1.75-.16-3.46-1.39-4.37-.53-.39-1.16-.61-1.71-.81-.76-.27-1.23-.45-1.33-.78-.02-.05-.03-.11-.04-.17-.05-.23-.12-.56-.33-.85-.15-.22-.35-.4-.58-.53-1.3-.85-2.87-.81-4.24-.77-1.33.04-2.47.07-3.17-.6-.22-.21-.41-.51-.66-.89-.17-.26-.37-.56-.6-.88,3.38.38,7.03.59,10.81.63.06,0,.13,0,.19,0,.05,0,.09,0,.15,0,.25,0,.5,0,.75,0,3.18,0,6.28-.13,9.22-.38.12.1.25.19.38.27.18.11.38.21.58.3.25.12.56.27.6.35.03.07.05.24.06.39,0,.1.02.2.03.28.2,1.47,1.25,2.82,2.87,3.69.2.11.4.19.6.29-3.27,3.3-7.66,5.47-12.54,5.91ZM53.74,40.97c.3-1.46.46-2.96.46-4.51,0-.77-.05-1.53-.13-2.28,0-.02,0-.05,0-.07,0-.02-.02-.04-.02-.07-.02-.18-.03-.36-.06-.53,4.38,1.31,6,2.77,6,3.69s-1.68,2.43-6.26,3.77Z"/>
</svg>