<?xml version="1.0" encoding="UTF-8"?>
<svg id="OBJECT" xmlns="http://www.w3.org/2000/svg" viewBox="0 0 32 32">
  <defs>
    <style>
      .cls-1 {
        fill: #7738c8;
      }

      .cls-1, .cls-2 {
        stroke-width: 0px;
      }

      .cls-2 {
        fill: #011839;
      }
    </style>
  </defs>
  <g>
    <path class="cls-2" d="m22,10h-12c-1.65,0-3,1.35-3,3v13c0,1.48,1.08,2.71,2.5,2.95v1.05c0,.55.45,1,1,1s1-.45,1-1v-1h9v1c0,.55.45,1,1,1s1-.45,1-1v-1.05c1.42-.24,2.5-1.47,2.5-2.95v-13c0-1.65-1.35-3-3-3Zm1,16c0,.55-.45,1-1,1h-12c-.55,0-1-.45-1-1v-13c0-.55.45-1,1-1h12c.55,0,1,.45,1,1v13Z"/>
    <path class="cls-2" d="m16,14c-.55,0-1,.45-1,1v9c0,.55.45,1,1,1s1-.45,1-1v-9c0-.55-.45-1-1-1Z"/>
    <path class="cls-2" d="m20,14c-.55,0-1,.45-1,1v9c0,.55.45,1,1,1s1-.45,1-1v-9c0-.55-.45-1-1-1Z"/>
    <path class="cls-2" d="m12,14c-.55,0-1,.45-1,1v9c0,.55.45,1,1,1s1-.45,1-1v-9c0-.55-.45-1-1-1Z"/>
  </g>
  <path class="cls-1" d="m9.5,4.5h1.5v3.5h2v-3.5h6v3.5h2v-3.5h1.5c.55,0,1-.45,1-1v-.5c0-1.1-.9-2-2-2h-11c-1.1,0-2,.9-2,2v.5c0,.55.45,1,1,1Z"/>
</svg>