<?xml version="1.0" encoding="UTF-8"?>
<svg id="OBJECT" xmlns="http://www.w3.org/2000/svg" viewBox="0 0 32 32">
  <defs>
    <style>
      .cls-1 {
        fill: #7738c8;
      }

      .cls-1, .cls-2 {
        stroke-width: 0px;
      }

      .cls-2 {
        fill: #011839;
      }
    </style>
  </defs>
  <g>
    <path class="cls-2" d="m30.68,24.13l-1.24-2.47c-.51-1.02-1.54-1.66-2.68-1.66h-3.54c1.56-2.27,2.78-5.23,2.78-9,0-5.51-4.49-10-10-10S6,5.49,6,11c0,3.77,1.22,6.73,2.78,9h-3.54c-1.14,0-2.17.64-2.68,1.66l-1.24,2.47c-.21.41-.32.88-.32,1.34v2.53c0,1.65,1.35,3,3,3h24c1.65,0,3-1.35,3-3v-2.53c0-.46-.11-.93-.32-1.34ZM16,3c4.41,0,8,3.59,8,8,0,8.01-6.28,11.95-8,12.88-1.72-.93-8-4.87-8-12.88,0-4.41,3.59-8,8-8Zm13,25c0,.55-.45,1-1,1H4c-.55,0-1-.45-1-1v-2.53c0-.15.04-.31.11-.45l1.24-2.47c.17-.34.51-.55.89-.55h5.15c2.43,2.59,4.99,3.82,5.2,3.91.13.06.27.09.42.09s.29-.03.42-.09c.2-.09,2.77-1.32,5.2-3.91h5.15c.38,0,.72.21.89.55l1.24,2.47c.07.14.11.29.11.45v2.53Z"/>
    <path class="cls-2" d="m26.5,25h-.5c-.55,0-1,.45-1,1s.45,1,1,1h.5c.55,0,1-.45,1-1s-.45-1-1-1Z"/>
    <path class="cls-2" d="m22.5,25h-.5c-.55,0-1,.45-1,1s.45,1,1,1h.5c.55,0,1-.45,1-1s-.45-1-1-1Z"/>
    <path class="cls-2" d="m10,25h-.5c-.55,0-1,.45-1,1s.45,1,1,1h.5c.55,0,1-.45,1-1s-.45-1-1-1Z"/>
    <path class="cls-2" d="m6,25h-.5c-.55,0-1,.45-1,1s.45,1,1,1h.5c.55,0,1-.45,1-1s-.45-1-1-1Z"/>
  </g>
  <circle class="cls-1" cx="16" cy="11" r="6"/>
</svg>