<?xml version="1.0" encoding="UTF-8"?>
<svg id="OBJECT" xmlns="http://www.w3.org/2000/svg" viewBox="0 0 32 32">
  <defs>
    <style>
      .cls-1 {
        fill: #7738c8;
      }

      .cls-1, .cls-2 {
        stroke-width: 0px;
      }

      .cls-2 {
        fill: #011839;
      }
    </style>
  </defs>
  <g>
    <path class="cls-2" d="m19.75,11.5h8.5c1.52,0,2.75-1.23,2.75-2.75s-1.23-2.75-2.75-2.75h-.28c-.25-2.25-2.16-4-4.47-4s-4.28,1.8-4.48,4.1c-1.16.32-2.02,1.39-2.02,2.65,0,1.52,1.23,2.75,2.75,2.75Zm0-3.5h.3c.29,0,.56-.15.75-.37.19-.22.27-.54.23-.83-.01-.1-.03-.2-.03-.3,0-1.38,1.12-2.5,2.5-2.5,1.21,0,2.22.86,2.45,2h-1.95c-.55,0-1,.45-1,1s.45,1,1,1h4.25c.41,0,.75.34.75.75s-.34.75-.75.75h-8.5c-.41,0-.75-.34-.75-.75s.34-.75.75-.75Z"/>
    <path class="cls-2" d="m30,25.5h-.42l-6.74-11.88c-.39-.69-1.13-1.12-1.92-1.12s-1.53.43-1.92,1.12l-1.08,1.9-2.75-4.85c-.44-.78-1.27-1.26-2.17-1.26s-1.73.48-2.17,1.26l-1.5,2.65c-.4-.2-.85-.32-1.33-.32-1.65,0-3,1.35-3,3v4c0,.26.04.51.11.76l-2.69,4.74h-.42c-.55,0-1,.45-1,1v2c0,1.38,1.12,2.5,2.5,2.5h25c1.38,0,2.5-1.12,2.5-2.5v-2c0-.55-.45-1-1-1Zm-9.26-10.89c.07-.13.29-.13.36,0l6.18,10.9h-3.7l-4.51-7.95,1.67-2.94Zm-8.17-2.94c.18-.31.68-.31.86,0l7.85,13.84h-12.28v-2.68c1.16-.41,2-1.51,2-2.82v-4c0-.41-.08-.8-.23-1.16l1.8-3.18Zm-5.57,4.34c0-.55.45-1,1-1s1,.45,1,1v4c0,.55-.45,1-1,1s-1-.45-1-1v-4Zm-.6,6.53c.19.12.39.21.6.29v2.68h-2.28l1.69-2.97Zm22.6,5.97c0,.28-.22.5-.5.5H3.5c-.28,0-.5-.22-.5-.5v-1h26v1Z"/>
  </g>
  <circle class="cls-1" cx="6" cy="6" r="5"/>
</svg>