<?xml version="1.0" encoding="UTF-8"?>
<svg id="OBJECT" xmlns="http://www.w3.org/2000/svg" viewBox="0 0 32 32">
  <defs>
    <style>
      .cls-1 {
        fill: #7738c8;
      }

      .cls-1, .cls-2 {
        stroke-width: 0px;
      }

      .cls-2 {
        fill: #011839;
      }
    </style>
  </defs>
  <path class="cls-2" d="m27,7h-2V2c0-.55-.45-1-1-1H8c-2.21,0-4,1.79-4,4v23c0,1.65,1.35,3,3,3h20c.55,0,1-.45,1-1V8c0-.55-.45-1-1-1ZM8,3h15v4h-15c-1.1,0-2-.9-2-2s.9-2,2-2Zm18,26H7c-.55,0-1-.45-1-1V8.46c.59.34,1.27.54,2,.54h18v20Z"/>
  <g>
    <path class="cls-1" d="m11,19c0-.56.01-1.12.04-1.67h-3.88c-.1.54-.16,1.1-.16,1.67s.06,1.13.16,1.67h3.88c-.02-.55-.04-1.1-.04-1.67Z"/>
    <path class="cls-1" d="m20.82,15.33h3.39c-.84-1.87-2.3-3.4-4.11-4.34.33,1.3.58,2.77.73,4.34Z"/>
    <path class="cls-1" d="m13.19,15.33h5.62c-.2-1.97-.56-3.75-1.04-5.16-.57-.11-1.16-.18-1.77-.18s-1.2.06-1.77.18c-.49,1.41-.84,3.19-1.04,5.16Z"/>
    <path class="cls-1" d="m21,19c0,.56-.01,1.12-.04,1.67h3.88c.1-.54.16-1.1.16-1.67s-.06-1.13-.16-1.67h-3.88c.02.55.04,1.1.04,1.67Z"/>
    <path class="cls-1" d="m19,19c0-.56-.02-1.12-.04-1.67h-5.92c-.02.55-.04,1.1-.04,1.67s.02,1.12.04,1.67h5.92c.02-.55.04-1.1.04-1.67Z"/>
    <path class="cls-1" d="m20.82,22.67c-.15,1.57-.39,3.04-.73,4.34,1.82-.93,3.28-2.47,4.11-4.34h-3.39Z"/>
    <path class="cls-1" d="m18.81,22.67h-5.62c.2,1.97.56,3.75,1.04,5.16.57.11,1.16.18,1.77.18s1.2-.06,1.77-.18c.49-1.41.84-3.19,1.04-5.16Z"/>
    <path class="cls-1" d="m11.18,22.67h-3.39c.84,1.87,2.3,3.4,4.11,4.34-.33-1.3-.58-2.77-.73-4.34Z"/>
    <path class="cls-1" d="m11.18,15.33c.15-1.57.39-3.04.73-4.34-1.82.93-3.28,2.47-4.11,4.34h3.39Z"/>
  </g>
</svg>