<?xml version="1.0" encoding="UTF-8"?>
<svg id="Expanded" xmlns="http://www.w3.org/2000/svg" viewBox="0 0 64 64">
  <path d="M31.93,3.19c-.76-.77-1.77-1.19-2.85-1.19s-2.09.42-2.85,1.19L8.27,21.14c-1.56,1.58-1.56,4.13,0,5.69l2.8,2.8c-.34.07-.65.16-.9.26-.25.1-.45.29-.55.54s-.11.52,0,.77l3.73,9.24c.11.21,2.6,5.22,3.32,6.34.76,1.19,7.15,6.84,8.46,7.99.02.34.03,1.31-.27,3.88-.1.85.18,1.71.75,2.35.57.64,1.39,1,2.24,1h.01l6.74-.03c1,0,1.93-.5,2.49-1.34.56-.83.67-1.88.29-2.81l-1.9-4.68-.5-1.34c1.02-.01,2.03-.41,2.8-1.17l17.96-17.96c.76-.76,1.18-1.77,1.18-2.85s-.42-2.09-1.18-2.85L31.93,3.19ZM35.51,58.57c.13.32.09.66-.1.95s-.5.45-.84.45l-6.74.03c-.29-.01-.56-.12-.76-.34-.2-.22-.28-.5-.25-.79.52-4.58.27-5.03-.21-5.43-.79-.66-7.71-6.85-8.29-7.74-.55-.86-2.51-4.73-3.18-6.08l-3.26-8.1c.85-.09,2.04.04,2.71,1.27,1.63,2.97,3.79,4.76,3.89,4.84.23.19.52.25.79.21l3.89,3.89.04,4.17c0,.55.46.99,1.01.99.55,0,1-.46.99-1.01l-.1-9.59c0-.35.24-.5.34-.55.1-.05.38-.14.64.07.77.65,2.24,2.39,2.28,4.31.04,1.87,1.12,2.81,2.08,3.64.65.57,1.27,1.1,1.71,1.96.65,1.25.28,2.83,0,3.67-.07.22-.07.45.01.66l1.42,3.81,1.91,4.71ZM32.83,15.8c.02.27-.02.53-.13.76-.28.55-.93.94-1.62,1.36-.89.54-1.9,1.15-2.41,2.27-.17.35-.26.71-.34,1.02-.05.2-.1.4-.18.6-.16.39-.49.74-.87.92-.19.08-.27.08-.28.08-.08-.02-.29-.25-.42-.38-.27-.29-.6-.65-1.09-.87-.82-.36-1.81-.19-2.73.47-.25.18-.48.39-.71.6-.23.21-.45.41-.65.54-.15.09-.21.11-.23.11-.02,0-.12-.03-.24-.14-.08-.08-.15-.17-.22-.28.39-1.71,1.24-3.32,2.56-4.64,1.81-1.81,4.22-2.81,6.78-2.81h0c.95,0,1.88.14,2.77.41ZM21.17,25.26c.05,0,.1,0,.16,0,.47-.03.85-.23,1.16-.42.35-.23.64-.49.92-.75.18-.16.36-.33.54-.46.29-.21.6-.31.75-.25.11.05.28.23.43.39.32.34.76.82,1.43.97.48.12,1,.05,1.56-.2.86-.4,1.56-1.12,1.9-1.99.11-.28.19-.57.26-.86.06-.25.12-.48.21-.66.26-.57.93-.98,1.64-1.41.86-.52,1.83-1.11,2.36-2.16.14-.26.22-.55.28-.84.75.42,1.44.94,2.07,1.57.47.47.88.99,1.24,1.54-.25-.02-.5-.05-.69-.11-1.36-.42-2.65-.09-3.3.82-.46.65-.54,1.53-.24,2.42l.05.14s.03.08.05.13c-.02.03-.05.06-.08.1l-.14.18c-.48.7-.68,1.62-.53,2.56.12.74.44,1.47.93,2.15.38.56.79.99,1.24,1.31.54.4,1.11.64,1.67.87.25.11.49.21.71.32-.29.39-.59.76-.94,1.11-.04.04-.08.07-.12.11-.13-.2-.28-.41-.47-.6-.51-.54-1.12-.98-1.85-1.29-.31-.13-.65-.24-.99-.34-.68-.21-1.27-.39-1.52-.78-.12-.2-.19-.51-.26-.85l-.08-.36c-.15-.61-.45-1.48-1.25-1.94-.92-.55-2.18-.34-3.19.52-.91.77-1.54,1.88-1.74,3.05,0,0-.02.1-.02.11,0,.02,0,.05,0,.07h0c-.12-.01-.29-.07-.46-.12-.13-.04-.26-.09-.41-.13-.92-.23-1.93-.06-2.79.41-.78-1.4-1.17-2.93-1.2-4.46.23.08.46.13.69.13ZM35.77,22.31l-.04-.09c-.1-.29-.08-.52-.02-.61.11-.16.57-.22,1.09-.06.68.2,1.53.23,2.26.23.82,2.32.72,4.88-.29,7.12-.32-.17-.65-.31-.96-.44-.47-.2-.91-.38-1.27-.64-.27-.19-.52-.46-.78-.85-.32-.44-.52-.89-.59-1.31-.06-.42.01-.83.19-1.09l.08-.11c.17-.23.44-.57.49-1.02.08-.47-.08-.87-.17-1.13ZM23.97,31.12c.1.03.19.06.28.09.25.08.53.17.83.21.77.11,1.49-.17,1.86-.7.27-.36.34-.77.39-1.12.12-.71.51-1.39,1.07-1.87.34-.29.73-.41.88-.32.05.03.19.16.32.68l.06.3c.1.48.21,1.01.53,1.52.64,1.01,1.73,1.35,2.61,1.62.28.08.55.17.8.27.46.2.85.47,1.17.82.18.2.28.35.33.48-2.4,1.51-5.35,1.89-8.13.96-.23-.13-.46-.22-.71-.28-1.1-.47-2.11-1.15-2.99-2.03-.16-.16-.3-.32-.44-.48.38-.16.78-.22,1.13-.14ZM54.32,31.26l-17.96,17.96c-.58.58-1.43.72-2.17.43.39-1.36.61-3.2-.25-4.85-.62-1.2-1.49-1.94-2.18-2.54-.93-.8-1.37-1.23-1.39-2.17-.03-1.39-.53-2.6-1.11-3.56.28.02.55.03.83.03,3.02,0,5.94-1.18,8.16-3.41.69-.69,1.29-1.46,1.77-2.28,1.88-3.17,2.13-7.09.67-10.47,0,0,0,0,0,0,0,0,0,0,0,0-.59-1.35-1.41-2.56-2.44-3.59-1.2-1.2-2.61-2.09-4.15-2.66-.04-.02-.08-.03-.12-.04-1.24-.44-2.55-.69-3.9-.69h0c-3.09,0-6,1.21-8.19,3.4-3.99,3.98-4.53,10.22-1.3,14.81.36.53.79,1.04,1.3,1.55.57.57,1.19,1.07,1.85,1.5-.38.46-.61,1.03-.61,1.66l.03,2.56-6.4-6.4c-.13-.21-.26-.41-.38-.64-.59-1.08-1.41-1.7-2.28-2.02l-4.39-4.39c-.79-.79-.79-2.08,0-2.87L27.65,4.6c.76-.77,2.1-.77,2.87,0l23.8,23.79c.38.38.59.89.59,1.43s-.21,1.05-.59,1.43ZM44.93,32.26c.39.39.39,1.02,0,1.41l-6.16,6.16c-.2.2-.45.29-.71.29s-.51-.1-.71-.29c-.39-.39-.39-1.02,0-1.41l6.16-6.16c.39-.39,1.02-.39,1.41,0Z"/>
</svg>