<?xml version="1.0" encoding="UTF-8"?>
<svg id="Expanded" xmlns="http://www.w3.org/2000/svg" viewBox="0 0 64 64">
  <path d="M58.48,51.56h-7.52v-4.28h6.2c2.06,0,3.73-1.67,3.73-3.72v-17.36c0-2.05-1.67-3.72-3.73-3.72h-20.09c-2.05,0-3.72,1.67-3.72,3.72v14.97l-6.08-3.83c-.83-.51-1.34-1.44-1.34-2.42v-2.73c2.75-1.33,4.66-4.14,4.66-7.39v-4.65h2c1.33,0,2.42-.88,2.69-2.18.28-1.31-.35-2.55-1.57-3.1l-1.54-.7c.03-.3.04-.6.04-.89,0-5.18-3.9-8.27-10.44-8.27s-10.43,3.09-10.43,8.27c0,1,.14,1.97.41,2.9v.67c0,1.02.47,1.95,1.21,2.55v5.4c0,3.25,1.91,6.06,4.66,7.39v2.73c0,.98-.51,1.91-1.34,2.42l-9.57,6.04c-1.11.7-1.91,1.85-2.18,3.18l-.23,1.18c-.27,1.36.05,2.75.88,3.85-1.78.17-3.17,1.66-3.17,3.48v.42c0,1.94,1.58,3.51,3.51,3.51h52.96c1.94,0,3.51-1.58,3.51-3.51v-.42c0-1.94-1.58-3.51-3.51-3.51ZM38.41,51.56c.8-1.1,1.12-2.47.85-3.81l-.09-.47h3.22v4.28h-3.99ZM48.96,51.56h-4.57v-7.16c0-.47.38-.86.86-.86h2.85c.47,0,.86.38.86.86v7.16ZM35.35,26.2c0-.93.79-1.72,1.72-1.72h20.09c.95,0,1.73.77,1.73,1.72v17.36c0,.95-.78,1.72-1.73,1.72h-6.2v-.88c0-1.58-1.28-2.86-2.86-2.86h-2.85c-1.58,0-2.86,1.28-2.86,2.86v.88h-5.32c-.95,0-1.72-.77-1.72-1.72v-17.36ZM29.31,40.98l-1.7,2.58c-.27.42-.7.7-1.19.78-.5.08-.99-.04-1.38-.35l-1.91-1.49,2.65-3.78c.14.11.27.21.42.3l3.1,1.96ZM33.33,17.54c-.03.14-.17.6-.74.6H15.05c-.14,0-.26-.02-.36-.06-.03,0-.06-.01-.09-.03-.51-.17-.85-.66-.85-1.21v-1.28c0-.71.58-1.29,1.3-1.29h9.25c2.16,0,4.25.45,6.21,1.33l2.39,1.08c.52.24.46.72.43.86ZM21.77,7c3.15,0,8.44.81,8.44,6.27,0,.02,0,.05,0,.08-1.9-.7-3.88-1.08-5.91-1.08h-9.25c-.61,0-1.18.18-1.67.47.34-4.97,5.36-5.74,8.4-5.74ZM14.97,24.79v-4.65h13.63v4.65c0,2.54-1.54,4.73-3.73,5.69-.19.01-.36.09-.51.2-.62.21-1.28.33-1.97.33h-1.2c-.69,0-1.35-.12-1.97-.33-.15-.11-.32-.18-.52-.2-2.19-.96-3.73-3.15-3.73-5.69ZM21.18,33h1.2c.53,0,1.05-.06,1.56-.15v2.06c0,.77.2,1.53.54,2.2l-2.7,3.85-2.69-3.85c.34-.68.54-1.43.54-2.2v-2.06c.5.1,1.02.15,1.56.15ZM17.34,39.03c.15-.09.29-.2.42-.31l2.64,3.78-1.9,1.49c-.4.31-.89.43-1.38.35-.5-.08-.93-.36-1.21-.78l-1.69-2.58,3.1-1.96ZM6.27,48.12l.22-1.17c.16-.79.63-1.47,1.29-1.88l4.78-3.01,1.71,2.61c.58.88,1.51,1.49,2.55,1.66.2.03.41.05.61.05.84,0,1.66-.28,2.33-.8l2.02-1.59,2.04,1.6c.67.52,1.49.8,2.33.8.21,0,.41-.02.62-.05,1.04-.17,1.96-.78,2.54-1.66l1.71-2.61,2.34,1.48v.03c0,2.05,1.67,3.72,3.72,3.72h.06l.16.85c.17.85-.05,1.71-.59,2.38-.55.67-1.36,1.05-2.23,1.05H9.08c-.87,0-1.68-.38-2.23-1.05-.55-.67-.76-1.53-.59-2.39ZM59.99,55.49c0,.83-.68,1.51-1.51,1.51H5.52c-.83,0-1.51-.68-1.51-1.51v-.42c0-.83.68-1.51,1.51-1.51h52.96c.83,0,1.51.68,1.51,1.51v.42Z"/>
</svg>