<?xml version="1.0" encoding="UTF-8"?>
<svg id="OBJECT" xmlns="http://www.w3.org/2000/svg" viewBox="0 0 32 32">
  <defs>
    <style>
      .cls-1 {
        fill: #7738c8;
      }

      .cls-1, .cls-2 {
        stroke-width: 0px;
      }

      .cls-2 {
        fill: #011839;
      }
    </style>
  </defs>
  <path class="cls-2" d="m30,22H14V2c0-.55-.45-1-1-1s-1,.45-1,1v2.09c-1.4.2-3.99.85-5.87,3.08-1.97,2.34-2.6,5.7-1.87,9.99.07.4.39.71.79.8.07.01.13.02.2.02.34,0,.66-.18.85-.46.01-.02,1.26-1.8,5.91-1.02v5.5H2c-.55,0-1,.45-1,1v3.8c0,.68.23,1.34.66,1.87l.96,1.2c.57.72,1.43,1.13,2.34,1.13h20.14c.86,0,1.67-.37,2.24-1.01l2.9-3.26c.49-.55.76-1.26.76-1.99v-1.74c0-.55-.45-1-1-1ZM6.01,15.08c-.22-2.83.33-5.05,1.64-6.6,1.34-1.6,3.22-2.16,4.36-2.36v8.35c-2.95-.44-4.84.01-5.99.61Zm22.99,9.66c0,.25-.09.48-.25.67l-2.9,3.26c-.19.21-.46.34-.75.34H4.96c-.3,0-.59-.14-.78-.38l-.96-1.2c-.14-.18-.22-.4-.22-.62v-2.8h26v.74Z"/>
  <path class="cls-1" d="m23.13,20.5c.18.31.51.5.87.5.03,0,.07,0,.1,0,.39-.04.73-.3.85-.68,1.99-5.98,1.75-10.64-.71-13.86-2.22-2.9-5.72-3.92-8.23-4.28v16.49c5.58-.5,7.12,1.82,7.13,1.83Zm-5.01-13.34c.2-.52.78-.77,1.29-.58,2.12.81,3.6,1.98,4.39,3.48.84,1.58.93,3.63.29,6.1-.13.5-.61.81-1.1.74-.04,0-.08-.01-.12-.02-.53-.14-.86-.69-.72-1.22.51-1.97.47-3.54-.12-4.66-.7-1.32-2.2-2.12-3.34-2.55-.52-.2-.77-.78-.58-1.29Z"/>
</svg>