<?xml version="1.0" encoding="UTF-8"?>
<svg id="OBJECT" xmlns="http://www.w3.org/2000/svg" viewBox="0 0 32 32">
  <defs>
    <style>
      .cls-1 {
        fill: #7738c8;
      }

      .cls-1, .cls-2 {
        stroke-width: 0px;
      }

      .cls-2 {
        fill: #011839;
      }
    </style>
  </defs>
  <path class="cls-2" d="m30.11,10.44L21.53,1.86c-1.14-1.14-3.13-1.14-4.27,0l-1.43,1.43s-.06.07-.09.11L2.87,20.56c-.3.4-.26.96.09,1.31l.38.38-1.45,1.45c-1.18,1.18-1.18,3.1,0,4.27l2.14,2.14c.59.59,1.36.88,2.14.88s1.55-.29,2.14-.88l1.45-1.45.35.35c.19.19.45.29.71.29.21,0,.42-.07.6-.2l17.16-12.87s.07-.06.11-.09l1.43-1.43c.57-.57.89-1.33.89-2.14s-.31-1.57-.89-2.14ZM6.89,28.7c-.4.4-1.05.4-1.45,0l-2.14-2.14c-.4-.4-.4-1.05,0-1.45l1.45-1.45,3.59,3.59-1.45,1.45Zm4.02-1.72l-5.92-5.92,1.23-1.64,6.33,6.33-1.64,1.23Zm17.79-13.69l-1.38,1.38-13.16,9.87-6.74-6.74,9.21-12.28,7.06,7.06c.2.2.45.29.71.29s.51-.1.71-.29c.39-.39.39-1.02,0-1.41l-7.17-7.17.74-.74c.39-.39,1.06-.39,1.45,0l8.58,8.58c.19.19.3.45.3.72s-.11.53-.3.72Z"/>
  <circle class="cls-1" cx="15.82" cy="16.18" r="4.5"/>
</svg>