<?xml version="1.0" encoding="UTF-8"?>
<svg id="OBJECT" xmlns="http://www.w3.org/2000/svg" viewBox="0 0 32 32">
  <defs>
    <style>
      .cls-1 {
        fill: #7738c8;
      }

      .cls-1, .cls-2 {
        stroke-width: 0px;
      }

      .cls-2 {
        fill: #011839;
      }
    </style>
  </defs>
  <g>
    <path class="cls-2" d="m28,15h-4.52l-3.1-3.88c-.57-.71-1.43-1.12-2.34-1.12H7.35c-1.23,0-2.33.74-2.79,1.89l-1.28,3.21c-1.31.32-2.28,1.5-2.28,2.9v5c0,.55.45,1,1,1h2c0,2.21,1.79,4,4,4s4-1.79,4-4h7c0,2.21,1.79,4,4,4s4-1.79,4-4h3c.55,0,1-.45,1-1v-5c0-1.65-1.35-3-3-3Zm-9.18-2.62l2.1,2.62h-6.42v-3h3.54c.3,0,.59.14.78.38Zm-11.46-.38h5.15v3h-7.02l.95-2.37c.15-.38.52-.63.93-.63Zm.65,14c-1.1,0-2-.9-2-2s.9-2,2-2,2,.9,2,2-.9,2-2,2Zm15,0c-1.1,0-2-.9-2-2s.9-2,2-2,2,.9,2,2-.9,2-2,2Zm6-4h-2.56c-.69-1.19-1.97-2-3.44-2s-2.75.81-3.44,2h-8.11c-.69-1.19-1.97-2-3.44-2s-2.75.81-3.44,2h-1.56v-4c0-.55.45-1,1-1h24c.55,0,1,.45,1,1v4Z"/>
    <path class="cls-2" d="m16.25,18.5h-.5c-.55,0-1,.45-1,1s.45,1,1,1h.5c.55,0,1-.45,1-1s-.45-1-1-1Z"/>
  </g>
  <path class="cls-1" d="m14.2,4.76c-.11-.44-.51-.76-.97-.76h-3c-.46,0-.86.31-.97.76l-.81,3.24h6.56l-.81-3.24Z"/>
</svg>