<?xml version="1.0" encoding="UTF-8"?>
<svg id="OBJECT" xmlns="http://www.w3.org/2000/svg" viewBox="0 0 32 32">
  <defs>
    <style>
      .cls-1 {
        fill: #7738c8;
      }

      .cls-1, .cls-2 {
        stroke-width: 0px;
      }

      .cls-2 {
        fill: #011839;
      }
    </style>
  </defs>
  <g>
    <path class="cls-2" d="m30,15H2c-.55,0-1,.45-1,1v4.5c0,.55.45,1,1,1h.5c.83,0,1.5.67,1.5,1.5s-.67,1.5-1.5,1.5h-.5c-.55,0-1,.45-1,1v4.5c0,.55.45,1,1,1h28c.55,0,1-.45,1-1v-14c0-.55-.45-1-1-1ZM3,26.46c1.69-.24,3-1.7,3-3.46s-1.31-3.22-3-3.46v-2.54h7v12H3v-2.54Zm26,2.54H12v-12h17v12Z"/>
    <path class="cls-2" d="m26,27.5h.5c.55,0,1-.45,1-1s-.45-1-1-1h-.5c-.55,0-1,.45-1,1s.45,1,1,1Z"/>
    <path class="cls-2" d="m22.5,25.5h-.5c-.55,0-1,.45-1,1s.45,1,1,1h.5c.55,0,1-.45,1-1s-.45-1-1-1Z"/>
    <path class="cls-2" d="m13.81,24.66l1.19,1.15c.48.46,1.1.69,1.72.69.52,0,1.04-.16,1.48-.49l6.62-4.94c.44-.33.53-.96.2-1.4s-.96-.53-1.4-.2l-2.92,2.18-2.08-2.75c-.33-.44-.96-.53-1.4-.19-.44.33-.53.96-.19,1.4l2.07,2.74-2.1,1.56c-.19.14-.45.13-.62-.04l-1.19-1.14c-.4-.38-1.03-.37-1.41.03-.38.4-.37,1.03.03,1.41Z"/>
  </g>
  <path class="cls-1" d="m1.47,13.05c.17-.03.35-.05.53-.05h26.9s-.05-.06-.09-.08l-11.7-6.76-2.8,4.53c-.19.31-.52.47-.85.47-.18,0-.36-.05-.52-.15-.47-.29-.62-.91-.32-1.38l2.77-4.48L8.4,1.13c-.48-.28-1.09-.11-1.37.37l-1.9,3.28c-.13.23-.17.5-.1.76.07.26.24.47.47.61l.36.21c.53.31.71.98.4,1.51-.31.53-.98.71-1.51.4l-.37-.21c-.48-.28-1.09-.11-1.37.37l-1.89,3.28c-.27.47-.11,1.06.34,1.34Z"/>
</svg>