<?xml version="1.0" encoding="UTF-8"?>
<svg id="Expanded" xmlns="http://www.w3.org/2000/svg" viewBox="0 0 64 64">
  <path d="M61.49,49.5c-.33-1.67-1.35-3.16-2.79-4.07l-12.96-8.18c-1.24-.78-1.98-2.13-1.98-3.59v-4.09c3.73-1.83,6.31-5.66,6.31-10.08v-5.11c0-4.94-4.02-8.95-8.95-8.95h-5.26c-3.23,0-6.06,1.73-7.64,4.3-2.48-1.2-5.21-1.83-7.96-1.83-7.01,0-13.41,4.07-16.43,10.4-.2.18-.34.44-.34.74,0,.01,0,.02,0,.03-.94,2.24-1.43,4.59-1.43,7.03,0,9.98,8.08,18.1,18.04,18.18l-1.84,1.16c-1.44.91-2.46,2.4-2.79,4.07l-.32,1.61c-.36,1.84.11,3.73,1.3,5.18,1.19,1.45,2.95,2.28,4.83,2.28h34.4c1.88,0,3.64-.83,4.83-2.28,1.19-1.45,1.67-3.34,1.3-5.18l-.32-1.61ZM49.18,41.79l-2.48,3.8c-.44.66-1.11,1.09-1.89,1.21-.76.12-1.52-.07-2.14-.56l-2.84-2.22,4.01-5.72c.26.23.53.45.82.63l4.51,2.85ZM42.54,36.69l-4.07,5.8-4.05-5.8c.51-.91.78-1.95.78-3.03v-3.33c.94.25,1.92.4,2.93.4h.69c1.02,0,2-.15,2.93-.4v3.33c0,1.08.28,2.12.78,3.03ZM28.43,37.58c-.2-1.9-2.14-3-3.83-2.98-1.32,0-2.47.49-3.59.97l-.46.2c-.63.26-.76.19-.78.18-.06-.03-.16-.14-.25-.23l-.07-.07c-1.06-1.07-2.45-1.52-3.79-1.95-1.3-.42-2.53-.81-3.15-1.73-.42-.63-.53-1.52-.65-2.45l-.07-.57c-.11-.69-.44-2.77-2.05-3.75-1.26-.75-2.98-.61-4.36.35-.49.33-.89.72-1.27,1.15,0-.2-.03-.4-.03-.6,0-2.12.42-4.18,1.23-6.14.59-.13,1.1-.42,1.57-.69.46-.27.9-.53,1.23-.51.38.03.79.41,1.23.81.15.14.3.28.46.41,1.2,1,2.76,1.55,4.32,1.55.35,0,.7-.03,1.05-.08.42-.07.96-.19,1.45-.55.92-.67,1.14-1.73,1.32-2.58.12-.56.23-1.09.48-1.37.45-.47,1.44-.37,2.4-.27.22.02.44.04.64.06,1.9.15,3.82-.36,5.46-1.39v3.02c-.06.04-.13.06-.19.12-.53.49-1.31.76-2.14,1.04l-.55.19c-1.68.6-2.72,1.44-3.18,2.56-.18.42-.25.85-.32,1.23-.08.43-.15.8-.32,1-.13.15-.41.28-.7.42l-.32.15c-1.26.64-2.09,1.65-2.28,2.78-.13.79.13,1.67.68,2.29.49.55,1.16.85,1.84.8.47-.03.87-.19,1.19-.33.19-.08.43-.19.52-.17.13.01.39.3.57.52.17.19.33.37.51.53.72.65,1.74,1.01,2.84,1.01.17,0,.35,0,.52-.03,1.09-.11,2.09-.52,2.94-.9,1.36-.6,2.71-1.35,3.53-2.64.37.24.76.45,1.15.65v4.09c0,1.47-.74,2.81-1.98,3.59l-2.96,1.87c.13-.58.2-1.12.16-1.54ZM26.96,20.7c.3,2.76,1.6,5.22,3.53,7.01-.04.04-.08.07-.11.12-.55.91-1.67,1.46-2.68,1.91-.74.33-1.54.66-2.33.74-.73.07-1.41-.1-1.82-.48-.13-.11-.24-.25-.36-.38-.4-.45-.95-1.07-1.83-1.17-.62-.07-1.13.14-1.53.31-.2.08-.4.17-.52.17-.09.03-.2-.09-.24-.14-.15-.17-.23-.43-.2-.63.08-.48.53-.98,1.21-1.32l.27-.13c.42-.2.94-.44,1.35-.91.54-.61.67-1.36.78-1.96.06-.3.11-.59.2-.81.24-.57.9-1.04,2.01-1.44l.52-.18c.56-.19,1.17-.41,1.75-.72ZM32.29,38.94c.3-.19.57-.4.82-.63l4,5.72-2.84,2.22c-.61.48-1.36.67-2.13.55-.78-.12-1.45-.56-1.88-1.21l-2.48-3.8,4.51-2.85ZM38.83,28.73h-.69c-5.1,0-9.24-4.15-9.24-9.24v-3.57c1.03.02,2.15-.2,3.33-.7.78-.33,1.52-.73,2.23-1.12.31-.17.63-.34.95-.51,0,0,.01,0,.02.01,1.84,1.17,4.12,1.93,6.77,2.26,1.46.18,2.92.23,4.37.23.5,0,.99-.01,1.49-.02v3.41c0,5.09-4.15,9.24-9.24,9.24ZM35.85,7.43h5.26c3.73,0,6.78,2.96,6.94,6.66-1.87.03-3.76.03-5.6-.2-2.36-.3-4.36-.96-5.96-1.98-.22-.14-.58-.38-1.08-.37-.4,0-.71.17-.88.25-.34.18-.69.36-1.03.55-.7.38-1.36.74-2.05,1.03-.93.39-1.78.58-2.53.55.24-3.62,3.25-6.5,6.93-6.5ZM20.26,9.9c2.46,0,4.9.57,7.11,1.64-.12.37-.23.75-.3,1.14-1.45,1.43-3.52,2.24-5.47,2.07-.19-.01-.39-.04-.6-.06-1.3-.13-2.92-.3-4.06.89-.64.69-.82,1.56-.99,2.33-.13.62-.24,1.16-.53,1.37-.15.11-.39.16-.61.19-1.33.22-2.73-.17-3.75-1.02-.13-.11-.26-.23-.39-.35-.6-.56-1.36-1.25-2.44-1.34-.5-.03-.96.09-1.38.26,2.99-4.39,7.99-7.12,13.4-7.12ZM22.54,42.11c-.74.11-1.51.17-2.29.17-7.73,0-14.21-5.45-15.81-12.72,0,0,.02-.01.02-.02.64-.97,1.24-1.82,2.02-2.35.62-.42,1.54-.68,2.21-.28.55.33.91,1.1,1.1,2.33l.07.52c.14,1.07.29,2.28.97,3.3,1,1.51,2.71,2.05,4.21,2.53,1.16.37,2.26.72,2.97,1.44,0,0,.07.07.07.07.17.17.38.39.66.55.98.59,2.08.14,2.56-.05l.49-.21c.97-.42,1.89-.81,2.81-.81.82.01,1.75.5,1.83,1.2.08.71-.61,2.62-1.14,3.2l-1.37.86c-.45.11-.91.2-1.39.26ZM18,55.02c-.81-.99-1.13-2.27-.88-3.52l.32-1.61c.23-1.14.92-2.15,1.9-2.77l6.76-4.26,2.5,3.83c.74,1.11,1.92,1.87,3.24,2.08.25.04.5.06.75.06,1.06,0,2.1-.35,2.94-1.01l1.96-1.54v10.29h-16.19c-1.28,0-2.47-.57-3.28-1.55ZM58.97,55.02c-.81.99-2.01,1.55-3.28,1.55h-16.21v-10.29l1.97,1.54c.84.66,1.88,1.02,2.94,1.02.25,0,.5-.02.75-.06,1.32-.21,2.5-.97,3.24-2.09l2.5-3.83,6.76,4.27c.98.62,1.67,1.63,1.9,2.77l.32,1.61c.25,1.25-.07,2.54-.88,3.52Z"/>
</svg>