<?xml version="1.0" encoding="UTF-8"?>
<svg id="Expanded" xmlns="http://www.w3.org/2000/svg" viewBox="0 0 64 64">
  <path d="M54.07,12.61c0-2.96-2.41-5.37-5.37-5.37s-5.37,2.41-5.37,5.37,2.41,5.37,5.37,5.37,5.37-2.41,5.37-5.37ZM45.34,12.61c0-1.86,1.51-3.37,3.37-3.37s3.37,1.51,3.37,3.37-1.51,3.37-3.37,3.37-3.37-1.51-3.37-3.37ZM20.66,41.21c0-2.96-2.41-5.37-5.37-5.37s-5.37,2.41-5.37,5.37,2.41,5.37,5.37,5.37,5.37-2.41,5.37-5.37ZM11.93,41.21c0-1.86,1.51-3.37,3.37-3.37s3.37,1.51,3.37,3.37-1.51,3.37-3.37,3.37-3.37-1.51-3.37-3.37ZM3.25,57c0,3.28,6.06,5,12.04,5,4.62,0,9.27-1.03,11.15-3h20.65c4.18,0,7.69-2.91,8.64-6.8.03-.03.07-.04.1-.07l3.21-3.55c.37-.41.34-1.04-.07-1.41-.41-.37-1.04-.34-1.41.07l-1.56,1.73v-.45c0-4.91-3.99-8.9-8.9-8.9h-14.17c-1.5,0-2.73-1.22-2.73-2.73v-8.31c0-2.58-2.1-4.7-4.68-4.73l-10.08-.07c-2.26-.03-4.1-1.89-4.1-4.15v-5.47c0-2.29,1.86-4.15,4.15-4.15h6.46l3.27,2.95c.19.17.43.26.67.26.27,0,.55-.11.74-.33.37-.41.34-1.04-.07-1.41l-1.62-1.47h2.65c2.74,0,4.97,2.23,4.97,4.97v17.49c0,2.61,2.12,4.73,4.73,4.73h7.1c2.29,0,4.2-1.64,4.64-3.8,5.88-.06,11.72-1.77,11.72-4.99,0-1.8-1.87-3.28-5.18-4.17,2.33-3.62,3.75-8.45,3.75-11.63,0-5.85-4.76-10.61-10.61-10.61s-10.61,4.76-10.61,10.61c0,3.18,1.42,8.01,3.75,11.63-3.32.88-5.18,2.36-5.18,4.17,0,2.96,4.94,4.64,10.3,4.94-.37,1.07-1.38,1.85-2.57,1.85h-7.1c-1.5,0-2.73-1.22-2.73-2.73V14.97c0-3.85-3.13-6.97-6.97-6.97h-2.76l1.75-1.68c.4-.38.41-1.02.03-1.41-.38-.4-1.01-.41-1.41-.03l-3.26,3.12h-6.44c-3.39,0-6.15,2.76-6.15,6.15v5.47c0,3.35,2.73,6.11,6.09,6.15l10.08.07c1.49.02,2.7,1.24,2.7,2.73v8.31c0,2.61,2.12,4.73,4.73,4.73h14.17c3.81,0,6.9,3.1,6.9,6.9v.35l-1.58-1.65c-.38-.4-1.02-.41-1.41-.03-.4.38-.41,1.02-.03,1.41l2.86,2.99c-.68,3.09-3.44,5.42-6.74,5.42h-19.76c0-1.8-1.87-3.28-5.18-4.16,2.33-3.62,3.75-8.45,3.75-11.63,0-5.85-4.76-10.61-10.61-10.61s-10.61,4.76-10.61,10.61c0,3.18,1.42,8.01,3.75,11.63-3.32.88-5.18,2.37-5.18,4.16ZM48.71,4c4.75,0,8.61,3.86,8.61,8.61,0,5.33-4.26,14.51-8.61,14.51s-8.61-9.18-8.61-14.51c0-4.75,3.86-8.61,8.61-8.61ZM38.66,28.4c0-.58,1.25-1.7,4.48-2.41,1.59,1.87,3.48,3.13,5.56,3.13s3.97-1.25,5.56-3.13c3.23.71,4.48,1.83,4.48,2.41,0,1.19-4.01,3-10.04,3s-10.04-1.8-10.04-3ZM15.29,32.6c4.75,0,8.61,3.86,8.61,8.61,0,5.33-4.26,14.51-8.61,14.51s-8.61-9.18-8.61-14.51c0-4.75,3.86-8.61,8.61-8.61ZM9.73,54.59c1.59,1.87,3.48,3.13,5.56,3.13s3.97-1.25,5.56-3.13c3.23.71,4.48,1.83,4.48,2.41,0,.14-.06.28-.16.43-.01.02-.03.04-.04.06-.87,1.14-4.59,2.51-9.84,2.51-6.04,0-10.04-1.8-10.04-3,0-.58,1.25-1.7,4.48-2.41Z"/>
</svg>