<?xml version="1.0" encoding="UTF-8"?>
<svg id="Expanded" xmlns="http://www.w3.org/2000/svg" viewBox="0 0 64 64">
  <path d="M53.97,27.94c2.2,0,3.98-1.79,3.98-3.98V5.98c0-2.2-1.79-3.98-3.98-3.98H10.03c-2.2,0-3.98,1.79-3.98,3.98v17.97c0,2.2,1.79,3.98,3.98,3.98h2.76v10.56l-2.36,2.26c-1,.96-1.32,2.41-.8,3.7.48,1.21,1.6,2.01,2.88,2.1v7.1h-2.71c-2,0-3.63,1.63-3.63,3.63v1.08c0,2,1.63,3.63,3.63,3.63h44.38c2,0,3.63-1.63,3.63-3.63v-1.08c0-2-1.63-3.63-3.63-3.63h-2.71v-7.1c1.28-.1,2.4-.89,2.88-2.1.52-1.29.2-2.74-.8-3.7l-2.36-2.25v-10.56h2.76ZM55.95,5.98v17.97c0,1.09-.89,1.98-1.98,1.98h-2.95c-.44-1.27-1.63-2.19-3.04-2.19h-10.33c-1.41,0-2.61.92-3.04,2.19h-5.19c-.44-1.27-1.63-2.19-3.04-2.19h-6.47V4h34.08c1.09,0,1.98.89,1.98,1.98ZM38.66,46.58v7.08h-2.54v-7.08h2.54ZM44.95,46.58v7.08h-4.29v-7.08h4.29ZM34.12,53.66h-4.25v-7.1c.82-.06,1.57-.41,2.13-.97.56.56,1.3.91,2.12.97v7.1ZM19.04,53.66v-7.08h4.3v7.08h-4.3ZM25.34,46.58h2.52v7.08h-2.52v-7.08ZM32.05,40.75s-.03.04-.05.05c-.02-.02-.03-.04-.05-.05l-2.36-2.26v-10.56h4.82v10.56l-2.36,2.26ZM14.8,27.19c.02-.08.05-.16.05-.25,0-.04-.02-.07-.02-.11.08-.61.57-1.08,1.2-1.08h10.33c.63,0,1.14.49,1.2,1.11,0,.03-.02.05-.02.08,0,.07.03.14.04.21v10.82h-12.79v-10.78ZM36.41,27.15c.02-.07.04-.13.04-.21,0-.03-.01-.05-.02-.08.07-.62.57-1.11,1.2-1.11h10.33c.63,0,1.13.48,1.2,1.08,0,.04-.02.07-.02.11,0,.09.03.17.05.25v10.78h-12.79v-10.82ZM8.05,23.96V5.98c0-1.09.89-1.98,1.98-1.98h7.85v19.75h-1.86c-1.42,0-2.61.92-3.04,2.19h-2.95c-1.09,0-1.98-.89-1.98-1.98ZM11.49,43.71c-.08-.2-.3-.91.33-1.51l2.34-2.23h14.08l2.34,2.23c.63.6.41,1.31.33,1.51-.08.2-.41.87-1.28.87h-.74s0,0-.01,0,0,0-.01,0h-4.49s0,0-.01,0,0,0-.01,0h-6.27s0,0-.01,0,0,0-.01,0h-4.49s0,0-.01,0,0,0-.01,0h-.73c-.87,0-1.2-.66-1.28-.87ZM14.52,46.58h2.52v7.08h-2.52v-7.08ZM55.82,57.29v1.08c0,.9-.73,1.63-1.63,1.63H9.81c-.9,0-1.63-.73-1.63-1.63v-1.08c0-.9.73-1.63,1.63-1.63h44.38c.9,0,1.63.73,1.63,1.63ZM46.95,53.66v-7.08h2.54v7.08h-2.54ZM52.51,43.71c-.08.2-.41.87-1.28.87h-.73s0,0-.01,0,0,0-.01,0h-4.51s0,0-.01,0,0,0-.01,0h-6.26s0,0-.01,0,0,0-.01,0h-4.51s0,0-.01,0,0,0-.01,0h-.72c-.86,0-1.2-.66-1.28-.87-.08-.2-.3-.91.33-1.51l2.34-2.23h14.08l2.34,2.23c.63.6.41,1.31.33,1.51ZM25.05,9.76c0-.55.45-1,1-1h22.64c.55,0,1,.45,1,1s-.45,1-1,1h-22.64c-.55,0-1-.45-1-1ZM25.05,14.97c0-.55.45-1,1-1h22.64c.55,0,1,.45,1,1s-.45,1-1,1h-22.64c-.55,0-1-.45-1-1ZM49.69,20.17c0,.55-.45,1-1,1h-22.64c-.55,0-1-.45-1-1s.45-1,1-1h22.64c.55,0,1,.45,1,1Z"/>
</svg>