<?xml version="1.0" encoding="UTF-8"?>
<svg id="OBJECT" xmlns="http://www.w3.org/2000/svg" viewBox="0 0 32 32">
  <defs>
    <style>
      .cls-1 {
        fill: #7738c8;
      }

      .cls-1, .cls-2 {
        stroke-width: 0px;
      }

      .cls-2 {
        fill: #011839;
      }
    </style>
  </defs>
  <g>
    <path class="cls-2" d="m23.66,22.32h-1.47c.15-.71.12-1.46-.07-2.18-.43-1.59-1.69-2.86-3.29-3.3-.77-.21-1.55-.23-2.31-.06-1.64-1.87-4.11-2.72-6.62-2.23-2.46.48-4.54,2.35-5.28,4.78-.31,1.01-.39,2.07-.23,3.09-1.94.43-3.4,2.17-3.4,4.24,0,2.39,1.95,4.34,4.34,4.34h18.32c2.39,0,4.34-1.95,4.34-4.34s-1.95-4.34-4.34-4.34Zm0,6.68H5.34c-1.29,0-2.34-1.05-2.34-2.34s1.05-2.34,2.34-2.34h.3c.32,0,.63-.16.81-.42.19-.26.24-.6.13-.91-.35-1.01-.36-2.05-.05-3.08.53-1.73,2-3.06,3.75-3.4,1.97-.38,3.91.38,5.06,2,.27.38.76.52,1.19.35.57-.23,1.17-.26,1.76-.1.9.25,1.65,1,1.89,1.9.18.66.09,1.22-.08,1.66h-5.47c-.55,0-1,.45-1,1s.45,1,1,1h9.02c1.29,0,2.34,1.05,2.34,2.34s-1.05,2.34-2.34,2.34Z"/>
    <path class="cls-2" d="m10.94,22.32h-.5c-.55,0-1,.45-1,1s.45,1,1,1h.5c.55,0,1-.45,1-1s-.45-1-1-1Z"/>
  </g>
  <g>
    <path class="cls-1" d="m19.5,4.5c-4.39,0-7.96,3.55-8,7.93,2.13.05,4.16.85,5.74,2.25.11,0,.21,0,.32,0,.61,0,1.21.08,1.81.25,2.12.59,3.81,2.21,4.53,4.26,2.17-1.43,3.6-3.89,3.6-6.67,0-4.41-3.59-8-8-8Zm4.74,9.25c-.55,0-1-.45-1-1,0-2.21-1.79-4-4-4-.55,0-1-.45-1-1s.45-1,1-1c3.31,0,6,2.69,6,6,0,.55-.45,1-1,1Z"/>
    <path class="cls-1" d="m19.5,3.5c.55,0,1-.45,1-1v-.5c0-.55-.45-1-1-1s-1,.45-1,1v.5c0,.55.45,1,1,1Z"/>
    <path class="cls-1" d="m30,11.5h-.5c-.55,0-1,.45-1,1s.45,1,1,1h.5c.55,0,1-.45,1-1s-.45-1-1-1Z"/>
    <path class="cls-1" d="m9.5,11.5h-.5c-.55,0-1,.45-1,1s.45,1,1,1h.5c.55,0,1-.45,1-1s-.45-1-1-1Z"/>
    <path class="cls-1" d="m26.22,4.37l-.35.35c-.39.39-.39,1.02,0,1.41.2.2.45.29.71.29s.51-.1.71-.29l.35-.35c.39-.39.39-1.02,0-1.41s-1.02-.39-1.41,0Z"/>
    <path class="cls-1" d="m27.28,18.86c-.39-.39-1.02-.39-1.41,0s-.39,1.02,0,1.41l.35.35c.2.2.45.29.71.29s.51-.1.71-.29c.39-.39.39-1.02,0-1.41l-.35-.35Z"/>
    <path class="cls-1" d="m12.43,6.43c.26,0,.51-.1.71-.29.39-.39.39-1.02,0-1.41l-.35-.35c-.39-.39-1.02-.39-1.41,0s-.39,1.02,0,1.41l.35.35c.2.2.45.29.71.29Z"/>
  </g>
</svg>