<?xml version="1.0" encoding="UTF-8"?>
<svg id="OBJECT" xmlns="http://www.w3.org/2000/svg" viewBox="0 0 32 32">
  <defs>
    <style>
      .cls-1 {
        fill: #7738c8;
      }

      .cls-1, .cls-2 {
        stroke-width: 0px;
      }

      .cls-2 {
        fill: #011839;
      }
    </style>
  </defs>
  <path class="cls-2" d="m16,31c-1.13,0-2.21-.54-2.89-1.44l-4.07-5.39c-.23-.3-.27-.71-.1-1.05s.52-.55.9-.55h2.61v-1.33c-2.66-.06-9.22-1.14-11.42-10-.07-.3,0-.61.18-.86.19-.24.48-.38.79-.38h2.17c1.37,0,2.63.77,3.22,1.97.58,1.18,2.44,3.14,8.58,2.94,6.16.19,8.06-1.76,8.64-2.94.59-1.2,1.85-1.97,3.22-1.97h2.17c.31,0,.6.14.79.38.19.24.26.56.18.86-2.2,8.86-8.76,9.93-11.42,10v1.33h2.61c.38,0,.73.21.9.55s.13.75-.1,1.05l-4.07,5.39c-.68.9-1.76,1.44-2.89,1.44Zm-4.15-6.43l2.86,3.79c.61.8,1.97.8,2.58,0l2.86-3.78h-1.6c-.55,0-1-.45-1-1v-3.36c0-.29.12-.56.34-.75.22-.19.51-.27.79-.24.31.04,7.32.84,9.99-7.22h-.85c-.61,0-1.17.33-1.42.85-.97,1.97-3.56,4.28-10.43,4.06-6.8.21-9.4-2.09-10.37-4.06-.25-.52-.81-.85-1.42-.85h-.85c2.67,8.06,9.68,7.26,9.99,7.22.29-.04.57.05.79.24.22.19.34.46.34.75v3.36c0,.55-.45,1-1,1h-1.6Z"/>
  <path class="cls-1" d="m5,6.5h6.62c.21.92.7,1.72,1.38,2.33v2.98c.61.07,1.32.12,2.14.12.25,0,.5,0,.77-.01h.12c.26,0,.5.01.74.01.84,0,1.57-.05,2.23-.14v-2.96c.68-.61,1.17-1.41,1.38-2.33h6.62c.55,0,1-.45,1-1s-.45-1-1-1h-6.62c-.46-2-2.24-3.5-4.38-3.5s-3.92,1.5-4.38,3.5h-6.62c-.55,0-1,.45-1,1s.45,1,1,1Zm11-3.5c1.36,0,2.46,1.09,2.49,2.44,0,.02-.01.04-.01.06s.01.04.01.06c-.04,1.35-1.14,2.44-2.49,2.44-1.02,0-1.9-.62-2.29-1.5h2.29c.55,0,1-.45,1-1s-.45-1-1-1h-2.29c.39-.88,1.27-1.5,2.29-1.5Z"/>
</svg>