<?xml version="1.0" encoding="UTF-8"?>
<svg id="OBJECT" xmlns="http://www.w3.org/2000/svg" viewBox="0 0 32 32">
  <defs>
    <style>
      .cls-1 {
        fill: #7738c8;
      }

      .cls-1, .cls-2 {
        stroke-width: 0px;
      }

      .cls-2 {
        fill: #011839;
      }
    </style>
  </defs>
  <path class="cls-2" d="m28,19H10.57l-2.13-3.54c-.54-.9-1.52-1.46-2.57-1.46h-3.87c-.35,0-.68.19-.86.49-.18.31-.18.68-.01.99l4.43,7.97c.53.95,1.53,1.54,2.62,1.54h.64l-.81,4.84c-.05.29.03.59.22.81s.47.35.76.35h3c.43,0,.81-.28.95-.68l1.77-5.32h7.56l1.77,5.32c.14.41.52.68.95.68h3c.29,0,.57-.13.76-.35s.27-.52.22-.81l-.81-4.84h1.82c.55,0,1-.45,1-1v-2c0-1.65-1.35-3-3-3Zm-16.72,10h-1.1l.67-4h1.77l-1.33,4Zm15.54,0h-1.1l-1.33-4h1.77l.67,4Zm2.18-6H8.18c-.36,0-.7-.2-.87-.51l-3.6-6.49h2.17c.35,0,.68.19.86.49l2.42,4.03c.18.3.51.49.86.49h18c.55,0,1,.45,1,1v1Z"/>
  <path class="cls-1" d="m17,11.64v5.36h2v-5.36c.91,0,1.45.64,1.64.93.09-2.6.2-7.84-.14-11.21-.79-.23-1.63-.36-2.5-.36s-1.7.13-2.49.36c-.34,3.36-.23,8.61-.14,11.21.19-.29.73-.92,1.64-.93Z"/>
  <path class="cls-1" d="m9.68,13.12c.4.14.86,0,1.12-.34,0,0,.55-.7,1.29-.75.4-.02.83.16,1.27.53-.08-2.39-.18-6.86.06-10.3-2.64,1.57-4.42,4.45-4.42,7.74v2.18c0,.43.28.81.68.94Z"/>
  <path class="cls-1" d="m22.64,12.56c.45-.37.88-.55,1.27-.53.74.04,1.28.74,1.28.74.19.26.49.41.8.41.1,0,.21-.02.31-.05.41-.13.69-.52.69-.95v-2.18c0-3.29-1.78-6.17-4.42-7.74.24,3.44.14,7.91.06,10.3Z"/>
</svg>