<?xml version="1.0" encoding="UTF-8"?>
<svg id="OBJECT" xmlns="http://www.w3.org/2000/svg" viewBox="0 0 32 32">
  <defs>
    <style>
      .cls-1 {
        fill: #7738c8;
      }

      .cls-1, .cls-2 {
        stroke-width: 0px;
      }

      .cls-2 {
        fill: #011839;
      }
    </style>
  </defs>
  <path class="cls-2" d="m28,15H4c-1.65,0-3,1.35-3,3v8c0,.55.45,1,1,1h1v3c0,.55.45,1,1,1h3c.46,0,.86-.31.97-.76l.81-3.24h14.44l.81,3.24c.11.44.51.76.97.76h3c.55,0,1-.45,1-1v-3h1c.55,0,1-.45,1-1v-8c0-1.65-1.35-3-3-3Zm-24,2h24c.55,0,1,.45,1,1v3.5H3v-3.5c0-.55.45-1,1-1Zm2.22,12h-1.22v-2h1.72l-.5,2Zm20.78,0h-1.22l-.5-2h1.72v2ZM3,25v-1.5h26v1.5H3Z"/>
  <g>
    <path class="cls-1" d="m19,10h-6c-.55,0-1,.45-1,1v2h8v-2c0-.55-.45-1-1-1Z"/>
    <path class="cls-1" d="m27.5,1c-.55,0-1,.45-1,1v3H5.5v-3c0-.55-.45-1-1-1s-1,.45-1,1v11h6.5v-2c0-1.65,1.35-3,3-3h6c1.65,0,3,1.35,3,3v2h6.5V2c0-.55-.45-1-1-1Z"/>
  </g>
</svg>