<?xml version="1.0" encoding="UTF-8"?>
<svg id="OBJECT" xmlns="http://www.w3.org/2000/svg" viewBox="0 0 32 32">
  <defs>
    <style>
      .cls-1 {
        fill: #7738c8;
      }

      .cls-1, .cls-2 {
        stroke-width: 0px;
      }

      .cls-2 {
        fill: #011839;
      }
    </style>
  </defs>
  <path class="cls-2" d="m25,16h-3v-1c0-.55-.45-1-1-1s-1,.45-1,1v1h-2v-8c1.65,0,3-1.35,3-3v-3c0-.55-.45-1-1-1H5c-.55,0-1,.45-1,1v22c0,.55.45,1,1,1s1-.45,1-1v-4h3c1.65,0,3,1.35,3,3v1c0,.55.45,1,1,1s1-.45,1-1v-1c0-2.76-2.24-5-5-5h-3V3h1c.55,0,1,.45,1,1v1c0,1.65,1.35,3,3,3h5v12c0,.55.45,1,1,1s1-.45,1-1v-2h2v1c0,.55.45,1,1,1s1-.45,1-1v-1h3c.55,0,1,.45,1,1v5c0,.55.45,1,1,1s1-.45,1-1v-5c0-1.65-1.35-3-3-3ZM10,5v-1c0-.35-.06-.69-.17-1h9.17v2c0,.55-.45,1-1,1h-7c-.55,0-1-.45-1-1Z"/>
  <path class="cls-1" d="m4,30c0,.55.45,1,1,1h6c.27,0,.52-.11.71-.29l1.29-1.29,1.29,1.29c.19.19.44.29.71.29h12c.55,0,1-.45,1-1v-3H4v3Z"/>
</svg>