<?xml version="1.0" encoding="UTF-8"?>
<svg id="OBJECT" xmlns="http://www.w3.org/2000/svg" viewBox="0 0 32 32">
  <defs>
    <style>
      .cls-1 {
        fill: #7738c8;
      }

      .cls-1, .cls-2 {
        stroke-width: 0px;
      }

      .cls-2 {
        fill: #011839;
      }
    </style>
  </defs>
  <path class="cls-2" d="m28,10H4c-1.65,0-3,1.35-3,3v11c0,.55.45,1,1,1h2.14c.45,1.72,2,3,3.86,3s3.41-1.28,3.86-3h6.28c.45,1.72,2,3,3.86,3s3.41-1.28,3.86-3h4.14c.55,0,1-.45,1-1v-11c0-1.65-1.35-3-3-3Zm1,3v3h-5c-.55,0-1-.45-1-1v-3h5c.55,0,1,.45,1,1Zm-17-1h5v3c0,.55-.45,1-1,1h-3c-.55,0-1-.45-1-1v-3Zm-8,0h2v3c0,.55-.45,1-1,1h-2v-3c0-.55.45-1,1-1Zm4,14c-1.1,0-2-.9-2-2s.9-2,2-2,2,.9,2,2-.9,2-2,2Zm14,0c-1.1,0-2-.9-2-2s.9-2,2-2,2,.9,2,2-.9,2-2,2Zm3.86-3c-.45-1.72-2-3-3.86-3s-3.41,1.28-3.86,3h-6.28c-.45-1.72-2-3-3.86-3s-3.41,1.28-3.86,3h-1.14v-5h2c1.65,0,3-1.35,3-3v-3h2v3c0,1.65,1.35,3,3,3h3c1.65,0,3-1.35,3-3v-3h2v3c0,1.65,1.35,3,3,3h5v5h-3.14Z"/>
  <path class="cls-1" d="m5,6v2h20v-2c.55,0,1-.45,1-1s-.45-1-1-1H5c-.55,0-1,.45-1,1s.45,1,1,1Z"/>
</svg>