<?xml version="1.0" encoding="UTF-8"?>
<svg id="OBJECT" xmlns="http://www.w3.org/2000/svg" viewBox="0 0 32 32">
  <defs>
    <style>
      .cls-1 {
        fill: #7738c8;
      }

      .cls-1, .cls-2 {
        stroke-width: 0px;
      }

      .cls-2 {
        fill: #011839;
      }
    </style>
  </defs>
  <path class="cls-2" d="m27.8,15.25c-.06-.49-.48-.87-.99-.87-.55,0-1,.45-1,1,0,.06,0,.12.02.18.11.61.17,1.26.17,1.94,0,1.46-.28,2.85-.78,4.13l-3.46-.23c-1.07-.07-2-.77-2.35-1.79l-.36-1.03c-.57-1.63-1.99-2.81-3.7-3.08-.72-.11-1.36-.5-1.78-1.1-.42-.6-.58-1.32-.45-2.04l.25-1.31c.29-1.55-.39-3.08-1.72-3.91l-.84-.52c1.16-.4,2.41-.62,3.71-.62.83,0,1.69.1,2.53.29.54.12,1.07-.22,1.19-.76.12-.54-.22-1.07-.76-1.19-.99-.22-1.99-.33-2.97-.33C7.06,4,1,10.06,1,17.5s6.06,13.5,13.5,13.5,13.5-6.06,13.5-13.5c0-.78-.07-1.54-.2-2.25ZM3.59,21.11l1.45-1.02c1.12-.78,2.67-.57,3.53.49l.42.51c.88,1.08,2.19,1.71,3.58,1.71,1.07,0,2.05.67,2.44,1.67l1.66,4.3c-.71.14-1.44.21-2.18.21-5.08,0-9.39-3.31-10.91-7.89Zm15.02,7.12l-1.73-4.47c-.68-1.77-2.41-2.95-4.31-2.95-.79,0-1.53-.35-2.03-.97l-.42-.51c-1.52-1.87-4.26-2.25-6.23-.87l-.78.55c-.06-.49-.11-.99-.11-1.5,0-4.19,2.26-7.86,5.63-9.87l1.96,1.21c.63.39.95,1.11.81,1.84l-.25,1.31c-.24,1.26.04,2.53.78,3.57s1.84,1.73,3.11,1.92c.98.15,1.79.83,2.12,1.76l.36,1.03c.62,1.77,2.24,3,4.11,3.12l2.62.17c-1.32,2.11-3.29,3.75-5.64,4.66Z"/>
  <circle class="cls-1" cx="25.24" cy="6.66" r="1.5"/>
  <path class="cls-1" d="m30.8,5.29c-.4-1.49-1.36-2.74-2.7-3.51h0c-1.34-.77-2.9-.98-4.39-.58-1.49.4-2.74,1.36-3.51,2.7-2.91,5.04.33,9.72.47,9.92.17.24.43.39.72.42.04,0,.24.02.56.02,1.55,0,5.85-.4,8.26-4.57.77-1.34.98-2.9.58-4.39Zm-5.56,4.87c-1.93,0-3.5-1.57-3.5-3.5s1.57-3.5,3.5-3.5,3.5,1.57,3.5,3.5-1.57,3.5-3.5,3.5Z"/>
</svg>