<?xml version="1.0" encoding="UTF-8"?>
<svg id="OBJECT" xmlns="http://www.w3.org/2000/svg" viewBox="0 0 32 32">
  <defs>
    <style>
      .cls-1 {
        fill: #7738c8;
      }

      .cls-1, .cls-2 {
        stroke-width: 0px;
      }

      .cls-2 {
        fill: #011839;
      }
    </style>
  </defs>
  <path class="cls-2" d="m30.25,25.13l-2.06-2.06c-.56-.55-1.32-.83-2.1-.74l-2.1.23-1.51-1.51c1.54-1.65,2.86-3.45,3.9-5.38.26-.49.08-1.09-.41-1.35-.49-.26-1.09-.08-1.35.41-.95,1.76-2.15,3.41-3.55,4.92l-1.44-1.44.77-.77c1.61-1.61,1.61-4.23,0-5.84-1.61-1.61-4.23-1.61-5.84,0l-.77.77-1.44-1.44c1.51-1.4,3.15-2.6,4.92-3.55.49-.26.67-.87.41-1.35-.26-.49-.87-.67-1.35-.41-1.94,1.04-3.74,2.36-5.38,3.9l-1.51-1.51.24-2.13c.09-.78-.18-1.55-.74-2.1l-2.06-2.06c-.97-.97-2.66-.97-3.63,0l-1.48,1.48c-.49.49-.75,1.13-.75,1.82s.27,1.33.75,1.82l2.06,2.06c.49.49,1.14.75,1.81.75.09,0,.19,0,.29-.02l2.08-.23,1.52,1.52c-4.68,5.03-7.11,11.49-6.38,17.08.06.45.41.8.86.86.66.09,1.32.13,2,.13,5.09,0,10.65-2.38,15.08-6.51l1.5,1.5-.23,2.1c-.09.78.18,1.55.74,2.1l2.06,2.06c.49.49,1.13.75,1.82.75s1.33-.27,1.82-.75l1.48-1.48c.49-.49.75-1.13.75-1.82s-.27-1.33-.75-1.82Zm-14.28-12.12c.83-.83,2.18-.83,3.01,0,.83.83.83,2.18,0,3.01l-.77.77-3.01-3.01.77-.77Zm-2.95,2.95l.77-.77,3.01,3.01-.77.77c-.83.83-2.18.83-3.01,0-.83-.83-.83-2.18,0-3.01ZM5.69,7.65c-.18.01-.34-.04-.47-.16l-2.06-2.06h0c-.11-.11-.17-.25-.17-.4s.06-.29.17-.4l1.48-1.48c.11-.11.25-.17.4-.17s.29.06.4.17l2.06,2.06c.12.12.18.29.16.47l-.2,1.79-1.79.2Zm-.66,19.32c-.15-2.18.22-4.49,1.04-6.77.65,1.2,1.45,2.32,2.43,3.3.98.98,2.1,1.78,3.29,2.43-2.28.82-4.59,1.19-6.77,1.04Zm9.22-2.11c-1.6-.59-3.1-1.53-4.34-2.78-1.24-1.24-2.19-2.74-2.78-4.34.97-1.9,2.24-3.73,3.78-5.4l1.45,1.45-.77.77c-1.61,1.61-1.61,4.23,0,5.84.81.81,1.86,1.21,2.92,1.21s2.12-.4,2.92-1.21l.77-.77,1.45,1.45c-1.67,1.55-3.5,2.82-5.4,3.78Zm14.58,2.5l-1.48,1.48c-.21.21-.59.22-.8,0,0,0,0,0,0,0l-2.06-2.06c-.12-.12-.18-.29-.16-.47l.2-1.79,1.79-.2c.18-.01.34.04.47.16l2.06,2.06c.11.11.17.25.17.4s-.06.29-.17.4Z"/>
  <path class="cls-1" d="m27.21,14.79c1.82-3.72,2.62-7.67,2.15-11.26-.06-.47-.43-.83-.89-.9-3.6-.47-7.54.33-11.26,2.15,2.14,1.04,4.12,2.45,5.84,4.16,1.71,1.71,3.12,3.7,4.16,5.84Z"/>
</svg>