<?xml version="1.0" encoding="UTF-8"?>
<svg id="OBJECT" xmlns="http://www.w3.org/2000/svg" viewBox="0 0 32 32">
  <defs>
    <style>
      .cls-1 {
        fill: #7738c8;
      }

      .cls-1, .cls-2 {
        stroke-width: 0px;
      }

      .cls-2 {
        fill: #011839;
      }
    </style>
  </defs>
  <g>
    <path class="cls-2" d="m28,18h-9c-1.65,0-3,1.35-3,3v2.5h-7c-.55,0-1-.45-1-1v-5.57c.33.04.66.07,1,.07,4.41,0,8-3.59,8-8S13.41,1,9,1,1,4.59,1,9c0,3.35,2.07,6.22,5,7.41v6.09c0,1.65,1.35,3,3,3h7v2.5c0,1.65,1.35,3,3,3h9c1.65,0,3-1.35,3-3v-7c0-1.65-1.35-3-3-3ZM3,9c0-3.31,2.69-6,6-6s6,2.69,6,6-2.69,6-6,6c-.34,0-.67-.04-1-.09v-5.91c0-.55-.45-1-1-1s-1,.45-1,1v5.19c-1.79-1.04-3-2.97-3-5.19Zm26,19c0,.55-.45,1-1,1h-9c-.55,0-1-.45-1-1v-7c0-.55.45-1,1-1h9c.55,0,1,.45,1,1v7Z"/>
    <path class="cls-2" d="m25.5,21.5c-.55,0-1,.45-1,1v1h-2v-1c0-.55-.45-1-1-1s-1,.45-1,1v4c0,.55.45,1,1,1s1-.45,1-1v-1h2v1c0,.55.45,1,1,1s1-.45,1-1v-4c0-.55-.45-1-1-1Z"/>
    <path class="cls-2" d="m12,11c.55,0,1-.45,1-1v-2c0-.55-.45-1-1-1s-1,.45-1,1v2c0,.55.45,1,1,1Z"/>
  </g>
  <path class="cls-1" d="m21,13v-3c0-.55.45-1,1-1s1,.45,1,1v3h2v-3c0-.55.45-1,1-1s1,.45,1,1v2.99c.98-.02,1.88-.51,2.43-1.33l1.41-2.11c.22-.34.22-.77,0-1.11l-1.41-2.11c-.56-.84-1.49-1.34-2.5-1.34h-8.77c.54,1.23.84,2.58.84,4s-.3,2.77-.84,4h2.84Z"/>
</svg>