<?xml version="1.0" encoding="UTF-8"?>
<svg id="Expanded" xmlns="http://www.w3.org/2000/svg" viewBox="0 0 64 64">
  <path d="M7.23,26.73l15.96,1.95c1.2,2.81,4.26,4.38,8.81,4.38s7.61-1.56,8.81-4.38l15.96-1.95c1.42-.17,2.72-.86,3.68-1.93.95-1.07,1.47-2.45,1.47-3.88,0-1.99-1.61-3.61-3.59-3.61h-20.27c-.5-.56-1.03-1.07-1.61-1.5v-4.42h4.89c.55,0,1-.45,1-1s-.45-1-1-1h-4.89v-1.8c0-1.28-.5-2.47-1.4-3.36-.9-.9-2.09-1.39-3.36-1.39-2.62,0-4.75,2.13-4.75,4.75v1.8h-4.89c-.55,0-1,.45-1,1s.45,1,1,1h4.89v4.94c-.34.3-.67.63-.99.98H5.67c-.96,0-1.86.37-2.54,1.05-.68.68-1.05,1.59-1.05,2.55,0,2.95,2.21,5.45,5.15,5.82ZM31,16.33v6.69h-5.95c.92-3.1,3.26-6.08,5.95-6.69ZM38.95,23.02h-5.95v-6.69c2.69.62,5.02,3.6,5.95,6.69ZM32,31.05c-3.36,0-7.38-.93-7.38-5.34,0-.23.01-.46.03-.7h14.68c.02.24.03.47.03.7,0,4.41-4.01,5.34-7.38,5.34ZM58.33,19.3c.88,0,1.59.72,1.59,1.61,0,.95-.34,1.85-.97,2.56-.63.71-1.49,1.16-2.42,1.28l-15.2,1.86c.03-.29.04-.58.04-.88,0-2.13-.7-4.43-1.88-6.42h18.83ZM28.93,7.58c0-1.52,1.23-2.75,2.75-2.75.74,0,1.43.29,1.95.81.52.51.81,1.2.81,1.94v7.11c-.78-.3-1.6-.49-2.44-.49-1.08,0-2.11.28-3.07.76v-7.38ZM4.55,19.77c.21-.21.58-.47,1.13-.47h18.83c-1.17,1.99-1.88,4.29-1.88,6.42,0,.3.02.6.04.88l-15.19-1.86c-1.93-.24-3.39-1.89-3.39-3.83,0-.43.17-.84.47-1.14ZM41.55,34.62h-19.28c-1.51,0-2.9.83-3.62,2.16l-9.92,18.32c-.7,1.29-.67,2.81.08,4.07.75,1.26,2.07,2.01,3.54,2.01h39.12c1.47,0,2.79-.75,3.54-2.01.75-1.26.78-2.78.08-4.07l-9.92-18.32h0c-.72-1.33-2.11-2.16-3.62-2.16ZM32.07,56.67c-.55,0-1,.45-1,1v1.5h-15.7l11.85-22.56h3.95c-.06.13-.09.26-.09.41v2.5c0,.55.45,1,1,1s1-.45,1-1v-2.5c0-.15-.04-.28-.09-.41h3.62l11.85,22.56h-15.37v-1.5c0-.55-.45-1-1-1ZM10.52,58.14c-.39-.65-.4-1.43-.04-2.09l9.92-18.32c.37-.69,1.08-1.11,1.86-1.11h2.69l-11.85,22.56h-.76c-.75,0-1.43-.39-1.82-1.03ZM53.33,56.04c.36.66.34,1.45-.04,2.09-.39.65-1.07,1.03-1.82,1.03h-.76l-11.85-22.56h2.69c.78,0,1.49.43,1.86,1.11l9.92,18.32ZM33.07,51.62c0,.55-.45,1-1,1s-1-.45-1-1v-6.05c0-.55.45-1,1-1s1,.45,1,1v6.05Z"/>
</svg>