<?xml version="1.0" encoding="UTF-8"?>
<svg id="OBJECT" xmlns="http://www.w3.org/2000/svg" viewBox="0 0 32 32">
  <defs>
    <style>
      .cls-1 {
        fill: #7738c8;
      }

      .cls-1, .cls-2 {
        stroke-width: 0px;
      }

      .cls-2 {
        fill: #011839;
      }
    </style>
  </defs>
  <g>
    <path class="cls-2" d="m24.5,29h-1.1l-.78-7h.38c.55,0,1-.45,1-1v-3c.55,0,1-.45,1-1s-.45-1-1-1H8c-.55,0-1,.45-1,1s.45,1,1,1v3c0,.55.45,1,1,1h.38l-.78,7h-1.1c-.55,0-1,.45-1,1s.45,1,1,1h17c.55,0,1-.45,1-1s-.45-1-1-1Zm-2.5-11v2h-12v-2h12Zm-1.4,4l.14,1.24-9.76,2.44.41-3.68h9.21Zm-9.85,5.8l10.21-2.55.42,3.75h-10.77l.13-1.2Z"/>
    <path class="cls-2" d="m26.03,11.32c.1,0,.21-.02.31-.05l.97-.32c.52-.17.81-.74.64-1.26-.17-.52-.74-.81-1.26-.64l-.97.32c-.52.17-.81.74-.64,1.26.14.42.53.69.95.69Z"/>
    <path class="cls-2" d="m27.31,13.05l-.97-.32c-.53-.17-1.09.11-1.26.64-.17.53.11,1.09.64,1.26l.97.32c.1.03.21.05.31.05.42,0,.81-.27.95-.69.17-.53-.11-1.09-.64-1.26Z"/>
    <path class="cls-2" d="m4.69,10.95l.97.32c.1.03.21.05.31.05.42,0,.81-.27.95-.69.17-.52-.11-1.09-.64-1.26l-.97-.32c-.52-.17-1.09.11-1.26.64-.17.52.11,1.09.64,1.26Z"/>
    <path class="cls-2" d="m6.92,13.37c-.17-.52-.74-.81-1.26-.64l-.97.32c-.52.17-.81.74-.64,1.26.14.42.53.69.95.69.1,0,.21-.02.31-.05l.97-.32c.52-.17.81-.74.64-1.26Z"/>
  </g>
  <g>
    <path class="cls-1" d="m24,5c0-.35-.18-.68-.49-.86l-5-3c-.16-.09-.33-.14-.51-.14h-4c-.18,0-.36.05-.51.14l-5,3c-.3.18-.49.51-.49.86-.55,0-1,.45-1,1s.45,1,1,1h16c.55,0,1-.45,1-1s-.45-1-1-1Z"/>
    <path class="cls-1" d="m16,12c-.55,0-1,.45-1,1v1h2v-1c0-.55-.45-1-1-1Z"/>
    <path class="cls-1" d="m9,14h4v-1c0-1.65,1.35-3,3-3s3,1.35,3,3v1h4v-5h-14v5Z"/>
  </g>
</svg>