<?xml version="1.0" encoding="UTF-8"?>
<svg id="Expanded" xmlns="http://www.w3.org/2000/svg" viewBox="0 0 64 64">
  <path d="M50.22,18.43h-7.62s-.02-.04-.03-.06l-7.54-14.53c-.59-1.13-1.75-1.84-3.03-1.84s-2.44.71-3.02,1.84l-7.54,14.53s-.02.04-.03.06h-7.62c-2.51,0-4.56,2.04-4.56,4.56v34.45c0,2.51,2.04,4.56,4.56,4.56h36.43c2.51,0,4.56-2.04,4.56-4.56V22.99c0-2.51-2.04-4.56-4.56-4.56ZM33.25,4.76l7.54,14.53c.41.79-.04,1.41-.19,1.58-.15.17-.7.7-1.54.4l-5.9-2.13c-.05-.02-.11-.03-.16-.04V4.42c.1.1.18.21.25.34ZM30.75,4.76c.07-.13.15-.24.25-.34v14.67c-.05.02-.11.02-.16.04l-5.9,2.13c-.84.3-1.39-.23-1.54-.4-.15-.17-.6-.79-.19-1.58l7.54-14.53ZM52.77,57.44c0,1.41-1.15,2.56-2.56,2.56H13.78c-1.41,0-2.56-1.15-2.56-2.56V22.99c0-1.41,1.15-2.56,2.56-2.56h7.3c.09.63.36,1.24.81,1.75.66.76,1.59,1.17,2.55,1.17.39,0,.78-.07,1.17-.21l5.9-2.13c.15-.06.32-.08.48-.08h0s0,0,0,0c.16,0,.32.03.48.08l5.9,2.13c1.33.48,2.79.1,3.72-.96.45-.51.72-1.12.81-1.75h7.3c1.41,0,2.56,1.15,2.56,2.56v34.45ZM32,24.97c-1.64,0-3.23.25-4.72.7-.01,0-.02,0-.03,0-5.69,1.75-10.06,6.54-11.2,12.47,0,.03-.01.07-.02.1-.18.96-.28,1.95-.28,2.96,0,7.36,4.92,13.58,11.64,15.57.02,0,.04.01.07.02,1.44.42,2.97.66,4.54.66,8.96,0,16.25-7.29,16.25-16.25s-7.29-16.25-16.25-16.25ZM46.24,41.01c-1.46,1.78-3.22,3.55-5.3,3.61-.24,0-.49,0-.73-.02-.55-.03-1.17-.06-1.83.09-2.1.53-3.07,2.8-3.54,3.89-.38.87-.71,1.18-.87,1.15-.07,0-.31-.19-.57-.88-.42-1.12-.72-2.26-.88-3.4-.02-.11-.06-.45-.01-.57.06-.15.4-.35.54-.43.92-.52,1.85-.92,2.79-1.19,1.85-.56,2.01-1.59,1.95-2.12-.03-.4-.2-.71-.36-.99-.24-.45-.16-.93-.05-1.25.24-.69.82-1.33,1.5-1.63l.1-.04c.23-.11.53-.24.83-.51,1-1,.41-2.4.09-3.17-.58-1.37-.64-2.92-.2-4.3,3.89,2.5,6.49,6.84,6.56,11.78ZM26.38,28.13c.02.74.16,1.48.59,2.19.47.76,1.15,1.27,1.74,1.72.32.24.62.46.88.71.32.31.55.81.54,1.17,0,.18-.07.23-.11.25-.08.07-.25.13-.43.2-.28.11-.63.24-.97.5-.88.71-.96,1.84-1.02,2.73-.07.73-.27.95-.31.97-.13.04-.51-.19-.79-.36-.29-.18-.62-.38-1-.51-1.17-.43-2.29-.08-3.27.23-.25.08-.5.16-.74.22-1.07.26-2.24.12-3.31-.35,1.08-4.35,4.15-7.93,8.2-9.67ZM18.74,46.39c.07-.04.13-.08.2-.12,1.09-.6,2-1,2.93-1.03.85-.03,1.72.43,1.95,1.05.08.22.12.5.15.79.07.53.14,1.14.49,1.71.38.63.95,1,1.46,1.32.17.11.34.21.48.32,1.04.82,1.41,2.55.88,4.01-.02.06-.05.12-.08.18-3.87-1.39-6.97-4.41-8.47-8.23ZM32,55.46c-.98,0-1.93-.1-2.86-.29,0,0,0-.01,0-.02.85-2.3.22-4.95-1.52-6.31-.2-.15-.42-.29-.63-.43-.35-.22-.68-.43-.82-.66-.13-.21-.17-.54-.22-.92-.05-.38-.1-.81-.27-1.25-.54-1.43-2.14-2.37-3.88-2.34-1.34.04-2.56.59-3.68,1.19-.24-1.04-.38-2.11-.38-3.22,0-.47.03-.93.07-1.38,1.35.49,2.8.59,4.15.26.28-.07.57-.16.86-.25.75-.23,1.45-.45,1.99-.26.19.07.41.2.64.34.47.29,1.08.65,1.79.65.2,0,.4-.03.62-.1.68-.21,1.54-.84,1.72-2.68,0,0,0-.11,0-.12.03-.46.08-1.08.27-1.24.08-.07.25-.13.43-.2.28-.11.63-.24.95-.49.53-.41.84-1.03.87-1.73.05-.94-.41-2-1.14-2.71-.35-.34-.71-.61-1.07-.88-.5-.37-.97-.72-1.23-1.15-.3-.51-.35-1.11-.27-1.84,1.15-.3,2.35-.48,3.59-.48,2.1,0,4.1.47,5.89,1.29-.71,1.92-.67,4.13.15,6.07.1.25.31.74.31.96-.06.03-.14.07-.21.1l-.1.05c-1.17.52-2.16,1.6-2.57,2.81-.34.99-.27,2,.18,2.85,0,0,.03.06.04.08-.09.05-.23.1-.43.17-1.08.31-2.16.77-3.22,1.38-.37.22-1.07.63-1.39,1.39-.23.55-.2,1.11-.12,1.63.18,1.28.52,2.57.99,3.82.6,1.64,1.53,2.08,2.19,2.17.09.01.19.02.3.02.81,0,1.85-.46,2.67-2.37.55-1.27,1.19-2.48,2.18-2.73.36-.08.79-.06,1.25-.03.3.02.59.03.89.03,1.92-.05,3.52-1.03,4.91-2.31-1.42,6.37-7.11,11.15-13.9,11.15Z"/>
</svg>