<?xml version="1.0" encoding="UTF-8"?>
<svg id="OBJECT" xmlns="http://www.w3.org/2000/svg" viewBox="0 0 32 32">
  <defs>
    <style>
      .cls-1 {
        fill: #7738c8;
      }

      .cls-1, .cls-2 {
        stroke-width: 0px;
      }

      .cls-2 {
        fill: #011839;
      }
    </style>
  </defs>
  <g>
    <path class="cls-2" d="m22,1H4c-1.65,0-3,1.35-3,3v18c0,1.65,1.35,3,3,3h18c1.65,0,3-1.35,3-3V4c0-1.65-1.35-3-3-3Zm1,21c0,.55-.45,1-1,1H4c-.55,0-1-.45-1-1V4c0-.55.45-1,1-1h18c.55,0,1,.45,1,1v18Z"/>
    <path class="cls-2" d="m16.83,11.96c-.18-.27-.48-.44-.8-.46-.33-.02-.64.13-.83.39l-3.18,4.16-1.4-1.83c-.18-.23-.45-.38-.75-.39-.3-.02-.58.1-.78.32l-4.32,4.67c-.38.41-.35,1.04.06,1.41.19.18.44.27.68.27.27,0,.54-.11.73-.32l3.51-3.8,2.19,2.86c.34.44.96.52,1.4.19.44-.34.52-.96.19-1.4l-.25-.33,2.64-3.46,3.74,5.8c.19.3.51.46.84.46.19,0,.37-.05.54-.16.46-.3.6-.92.3-1.38l-4.51-7Z"/>
    <path class="cls-2" d="m8,11.5c1.93,0,3.5-1.57,3.5-3.5s-1.57-3.5-3.5-3.5-3.5,1.57-3.5,3.5,1.57,3.5,3.5,3.5Zm0-5c.83,0,1.5.67,1.5,1.5s-.67,1.5-1.5,1.5-1.5-.67-1.5-1.5.67-1.5,1.5-1.5Z"/>
  </g>
  <path class="cls-1" d="m28,7h-1v15c0,2.76-2.24,5-5,5H7v1c0,1.65,1.35,3,3,3h18c1.65,0,3-1.35,3-3V10c0-1.65-1.35-3-3-3Z"/>
</svg>