<?xml version="1.0" encoding="UTF-8"?>
<svg id="OBJECT" xmlns="http://www.w3.org/2000/svg" viewBox="0 0 32 32">
  <defs>
    <style>
      .cls-1 {
        fill: #7738c8;
      }

      .cls-1, .cls-2 {
        stroke-width: 0px;
      }

      .cls-2 {
        fill: #011839;
      }
    </style>
  </defs>
  <g>
    <path class="cls-2" d="m28,19v-3c0-.55-.45-1-1-1h-.75v-6.25c0-.73-.26-1.43-.74-1.98l-1.26-1.43c-.38-.44-1.12-.44-1.5,0l-1.26,1.43c-.48.55-.74,1.25-.74,1.98v6.25h-.75c-.55,0-1,.45-1,1v3H4c-1.65,0-3,1.35-3,3v6c0,1.65,1.35,3,3,3h24c1.65,0,3-1.35,3-3v-6c0-1.65-1.35-3-3-3Zm-5.25-10.25c0-.24.09-.48.25-.66l.5-.57.5.57c.16.18.25.42.25.66v6.25h-1.5v-6.25Zm-1.75,8.25h5v2h-5v-2Zm8,11c0,.55-.45,1-1,1H4c-.55,0-1-.45-1-1v-6c0-.55.45-1,1-1h24c.55,0,1,.45,1,1v6Z"/>
    <path class="cls-2" d="m8.5,22c-1.65,0-3,1.35-3,3s1.35,3,3,3,3-1.35,3-3-1.35-3-3-3Zm0,4c-.55,0-1-.45-1-1s.45-1,1-1,1,.45,1,1-.45,1-1,1Z"/>
    <path class="cls-2" d="m23.5,22c-1.65,0-3,1.35-3,3s1.35,3,3,3,3-1.35,3-3-1.35-3-3-3Zm0,4c-.55,0-1-.45-1-1s.45-1,1-1,1,.45,1,1-.45,1-1,1Z"/>
    <path class="cls-2" d="m18.25,24h-.5c-.55,0-1,.45-1,1s.45,1,1,1h.5c.55,0,1-.45,1-1s-.45-1-1-1Z"/>
    <path class="cls-2" d="m14.25,24h-.5c-.55,0-1,.45-1,1s.45,1,1,1h.5c.55,0,1-.45,1-1s-.45-1-1-1Z"/>
  </g>
  <g>
    <rect class="cls-1" x="4" y="14" width="9" height="3"/>
    <path class="cls-1" d="m11.52,3.93l-.77-.88c-1.14-1.3-2.79-2.05-4.52-2.05h-1.23c-.55,0-1,.45-1,1v10h9v-4.12c0-1.45-.53-2.86-1.48-3.95Z"/>
  </g>
</svg>