<?xml version="1.0" encoding="UTF-8"?>
<svg id="OBJECT" xmlns="http://www.w3.org/2000/svg" viewBox="0 0 32 32">
  <defs>
    <style>
      .cls-1 {
        fill: #7738c8;
      }

      .cls-1, .cls-2 {
        stroke-width: 0px;
      }

      .cls-2 {
        fill: #011839;
      }
    </style>
  </defs>
  <g>
    <path class="cls-2" d="m25.58,13.13c.13.06.27.09.42.09s.29-.03.42-.09c.19-.09,4.58-2.16,4.58-7.13,0-2.76-2.24-5-5-5s-5,2.24-5,5c0,4.97,4.4,7.05,4.58,7.13Zm.42-10.13c1.65,0,3,1.35,3,3,0,2.92-2.08,4.52-3,5.08-.92-.56-3-2.16-3-5.08,0-1.65,1.35-3,3-3Z"/>
    <path class="cls-2" d="m25.5,7h1c.55,0,1-.45,1-1s-.45-1-1-1h-1c-.55,0-1,.45-1,1s.45,1,1,1Z"/>
    <path class="cls-2" d="m17.84,9h.46c.55,0,1-.45,1-1s-.45-1-1-1h-.46c-.55,0-1,.45-1,1s.45,1,1,1Z"/>
    <path class="cls-2" d="m25.25,14H5.5c-1.38,0-2.5-1.12-2.5-2.5s1.12-2.5,2.5-2.5h8.74c.55,0,1-.45,1-1s-.45-1-1-1H5.5c-2.48,0-4.5,2.02-4.5,4.5s2.02,4.5,4.5,4.5h19.75c2.07,0,3.75,1.68,3.75,3.75s-1.68,3.75-3.75,3.75h-8.25c-.55,0-1,.45-1,1s.45,1,1,1h8.25c3.17,0,5.75-2.58,5.75-5.75s-2.58-5.75-5.75-5.75Z"/>
  </g>
  <path class="cls-1" d="m11.43,18H3.57c-1.42,0-2.57,1.15-2.57,2.57v7.86c0,1.42,1.15,2.57,2.57,2.57h7.86c1.42,0,2.57-1.15,2.57-2.57v-7.86c0-1.42-1.15-2.57-2.57-2.57Zm.17,5.7l-4.77,3.55c-.37.28-.8.41-1.24.41-.52,0-1.03-.2-1.43-.58l-.86-.82c-.4-.38-.41-1.02-.03-1.41.38-.4,1.02-.41,1.41-.03l.86.82,1.34-.98-1.3-1.71c-.33-.44-.25-1.07.19-1.4.44-.33,1.07-.25,1.4.19l1.32,1.74,1.89-1.38c.44-.33,1.07-.24,1.4.2.33.44.24,1.07-.2,1.4Z"/>
</svg>