<?xml version="1.0" encoding="UTF-8"?>
<svg id="OBJECT" xmlns="http://www.w3.org/2000/svg" viewBox="0 0 32 32">
  <defs>
    <style>
      .cls-1 {
        fill: #7738c8;
      }

      .cls-1, .cls-2 {
        stroke-width: 0px;
      }

      .cls-2 {
        fill: #011839;
      }
    </style>
  </defs>
  <g>
    <path class="cls-2" d="m30,15h-5c-.94,0-1.84.45-2.4,1.2l-2.1,2.8h-.5v-4c0-.55-.45-1-1-1H4c-.55,0-1,.45-1,1v4h-1c-.55,0-1,.45-1,1v3.39c0,.6.17,1.17.5,1.66l1.66,2.5c.19.28.5.45.83.45h20.93c1.01,0,1.94-.5,2.5-1.34l3.07-4.6c.33-.49.5-1.07.5-1.67v-4.39c0-.55-.45-1-1-1Zm-25,1h13v3H5v-3Zm24,4.39c0,.2-.06.39-.17.55l-3.07,4.61c-.19.28-.5.45-.83.45H4.54l-1.37-2.05c-.11-.16-.17-.36-.17-.55v-2.39h21.95c.55,0,1-.45,1-1s-.45-1-1-1h-1.95l1.2-1.6c.19-.25.49-.4.8-.4h4v3.39Z"/>
    <path class="cls-2" d="m7.75,16.5h-.5c-.55,0-1,.45-1,1s.45,1,1,1h.5c.55,0,1-.45,1-1s-.45-1-1-1Z"/>
    <path class="cls-2" d="m11.75,16.5h-.5c-.55,0-1,.45-1,1s.45,1,1,1h.5c.55,0,1-.45,1-1s-.45-1-1-1Z"/>
  </g>
  <g>
    <path class="cls-1" d="m15.88,8l-.39-3.12c-.06-.5-.49-.88-.99-.88h-6c-.5,0-.93.38-.99.88l-.89,7.12h4.76l1.72-3.45c.17-.34.52-.55.89-.55h1.88Z"/>
    <polygon class="cls-1" points="14.62 10 13.62 12 20 12 20 10 14.62 10"/>
  </g>
</svg>