<?xml version="1.0" encoding="UTF-8"?>
<svg id="OBJECT" xmlns="http://www.w3.org/2000/svg" viewBox="0 0 32 32">
  <defs>
    <style>
      .cls-1 {
        fill: #7738c8;
      }

      .cls-1, .cls-2 {
        stroke-width: 0px;
      }

      .cls-2 {
        fill: #011839;
      }
    </style>
  </defs>
  <g>
    <path class="cls-2" d="m5.75,17h-.5c-.55,0-1,.45-1,1s.45,1,1,1h.5c.55,0,1-.45,1-1s-.45-1-1-1Z"/>
    <path class="cls-2" d="m9.25,17c-.55,0-1,.45-1,1s.45,1,1,1h.5c.55,0,1-.45,1-1s-.45-1-1-1h-.5Z"/>
    <path class="cls-2" d="m21,7h-3.5v-2c0-2.21-1.79-4-4-4h-4c-2.21,0-4,1.79-4,4v2h-3.5c-.55,0-1,.45-1,1v19c0,.55.45,1,1,1h11c.55,0,1-.45,1-1s-.45-1-1-1H3v-3h10c.55,0,1-.45,1-1s-.45-1-1-1H3v-12h2.5v3c0,.55.45,1,1,1s1-.45,1-1v-3h8v3c0,.55.45,1,1,1s1-.45,1-1v-3h2.5v6c0,.55.45,1,1,1s1-.45,1-1v-7c0-.55-.45-1-1-1Zm-13.5,0v-2c0-1.1.9-2,2-2h4c1.1,0,2,.9,2,2v2H7.5Z"/>
  </g>
  <path class="cls-1" d="m30,17h-14c-.55,0-1,.45-1,1v10c0,1.65,1.35,3,3,3h10c1.65,0,3-1.35,3-3v-10c0-.55-.45-1-1-1Zm-2.5,6.5c0,1.65-1.35,3-3,3h-3c-1.65,0-3-1.35-3-3v-2c0-.55.45-1,1-1s1,.45,1,1v2c0,.55.45,1,1,1h3c.55,0,1-.45,1-1v-2c0-.55.45-1,1-1s1,.45,1,1v2Z"/>
</svg>