<?xml version="1.0" encoding="UTF-8"?>
<svg id="OBJECT" xmlns="http://www.w3.org/2000/svg" viewBox="0 0 32 32">
  <defs>
    <style>
      .cls-1 {
        fill: #7738c8;
      }

      .cls-1, .cls-2 {
        stroke-width: 0px;
      }

      .cls-2 {
        fill: #011839;
      }
    </style>
  </defs>
  <g>
    <path class="cls-2" d="m7.5,15c3.58,0,6.5-2.92,6.5-6.5s-2.92-6.5-6.5-6.5S1,4.92,1,8.5s2.92,6.5,6.5,6.5Zm0-11c2.48,0,4.5,2.02,4.5,4.5s-2.02,4.5-4.5,4.5-4.5-2.02-4.5-4.5,2.02-4.5,4.5-4.5Z"/>
    <path class="cls-2" d="m7.5,7.5c.55,0,1,.45,1,1s.45,1,1,1,1-.45,1-1c0-1.65-1.35-3-3-3-.55,0-1,.45-1,1s.45,1,1,1Z"/>
    <path class="cls-2" d="m30,29h-1.11c-7.75-7.03-11.92-17.27-11.96-17.37-.15-.38-.52-.63-.93-.63s-.78.25-.93.63c-.04.1-4.21,10.34-11.96,17.37h-1.11c-.55,0-1,.45-1,1s.45,1,1,1h28c.55,0,1-.45,1-1s-.45-1-1-1Zm-14.93-4.36c.32-.61.64-1.19.93-1.72.3.53.61,1.12.93,1.72.77,1.44,1.6,3.01,2.53,4.36h-6.92c.92-1.36,1.76-2.92,2.53-4.36Zm3.63-.94c-.6-1.13-1.17-2.2-1.71-3.01v-4.28c1.78,3.38,4.79,8.31,9.02,12.59h-4.04c-1.18-1.4-2.28-3.46-3.26-5.3Zm-3.71-7.24v4.27c-.53.81-1.09,1.86-1.68,2.97-.98,1.84-2.08,3.9-3.26,5.3h-4.04c4.21-4.26,7.21-9.16,8.99-12.54Z"/>
  </g>
  <path class="cls-1" d="m19.75,10.5h8.5c1.52,0,2.75-1.23,2.75-2.75s-1.23-2.75-2.75-2.75h-3.25c-.55,0-1-.45-1-1s.45-1,1-1h2.22c-.81-1.2-2.17-2-3.72-2-2.35,0-4.28,1.8-4.48,4.1-1.16.32-2.02,1.39-2.02,2.65,0,1.52,1.23,2.75,2.75,2.75Z"/>
</svg>