<?xml version="1.0" encoding="UTF-8"?>
<svg id="OBJECT" xmlns="http://www.w3.org/2000/svg" viewBox="0 0 32 32">
  <defs>
    <style>
      .cls-1 {
        fill: #7738c8;
      }

      .cls-1, .cls-2 {
        stroke-width: 0px;
      }

      .cls-2 {
        fill: #011839;
      }
    </style>
  </defs>
  <g>
    <path class="cls-2" d="m30,25.5H2c-.55,0-1,.45-1,1v3.5c0,.55.45,1,1,1h26.5c1.38,0,2.5-1.12,2.5-2.5v-2c0-.55-.45-1-1-1Zm-1,3c0,.28-.22.5-.5.5H3v-1.5h26v1Z"/>
    <path class="cls-2" d="m28,13h-3.46l-2.11-3.16c-.56-.84-1.49-1.34-2.5-1.34H2c-.55,0-1,.45-1,1v13c0,.55.45,1,1,1h28c.55,0,1-.45,1-1v-6.5c0-1.65-1.35-3-3-3Zm-7.24-2.05l1.37,2.05h-5.13c-.28,0-.5-.22-.5-.5v-2h3.43c.33,0,.65.17.83.45Zm-11.26-.45v2c0,.28-.22.5-.5.5H3v-2.5h6.5Zm-6.5,9h14.76c.38,0,.72.21.89.55l.72,1.45H3v-2Zm26,2h-2v-1.5c0-.55-.45-1-1-1s-1,.45-1,1v1.5h-3.38l-1.17-2.34c-.51-1.02-1.54-1.66-2.68-1.66H3v-2.5h6c1.38,0,2.5-1.12,2.5-2.5v-2h3v2c0,1.38,1.12,2.5,2.5,2.5h11c.55,0,1,.45,1,1v5.5Z"/>
  </g>
  <path class="cls-1" d="m2,3h3v3.5h4v-3.5h4v3.5h4v-3.5h13c.55,0,1-.45,1-1s-.45-1-1-1H2c-.55,0-1,.45-1,1s.45,1,1,1Z"/>
</svg>