<?xml version="1.0" encoding="UTF-8"?>
<svg id="Expanded" xmlns="http://www.w3.org/2000/svg" viewBox="0 0 64 64">
  <path d="M32,19.53c2.79,0,5.06-2.27,5.06-5.06s-2.27-5.06-5.06-5.06-5.06,2.27-5.06,5.06,2.27,5.06,5.06,5.06ZM32,11.41c1.69,0,3.06,1.37,3.06,3.06s-1.37,3.06-3.06,3.06-3.06-1.37-3.06-3.06,1.37-3.06,3.06-3.06ZM10.79,43.91c2.5,0,4.54-2.04,4.54-4.54s-2.04-4.54-4.54-4.54-4.54,2.04-4.54,4.54,2.04,4.54,4.54,4.54ZM10.79,36.83c1.4,0,2.54,1.14,2.54,2.54s-1.14,2.54-2.54,2.54-2.54-1.14-2.54-2.54,1.14-2.54,2.54-2.54ZM58.34,32.26c-2.54-7.97-8.63-14.4-16.43-17.39,0-.13.02-.27.02-.4,0-5.48-4.46-9.93-9.93-9.93s-9.93,4.46-9.93,9.93c0,.13.02.27.02.4-7.8,2.98-13.88,9.41-16.42,17.37-2.3,1.65-3.67,4.29-3.67,7.13s1.33,6.19,3.31,8.5c1.51,1.74,3.24,2.72,5.02,2.86.11.01.22.02.34.02.04,0,.08,0,.11,0,.01,0,.02,0,.03,0,.02,0,.04,0,.06,0,.05,0,.1-.01.16-.02.22,0,.43-.03.65-.07,1.21-.18,2.41-.73,3.5-1.65.2.41.42.81.65,1.19.05.09.11.17.17.26.18.3.37.6.57.88.09.13.19.26.29.39.17.23.34.47.52.69.11.14.23.28.35.41.17.2.34.41.52.6.13.14.27.27.4.41.18.18.36.36.54.54.14.13.29.26.44.39.19.16.37.33.57.48.15.12.31.25.47.37.2.15.39.29.59.43.16.11.33.23.5.33.2.13.41.26.62.39.17.1.35.2.52.3.21.12.43.23.65.34.18.09.36.18.54.26.22.1.45.2.68.3.18.08.37.15.55.22.23.09.47.17.71.25.19.06.37.13.56.18.25.07.5.14.75.2.19.05.37.1.56.14.27.06.54.1.8.15.18.03.36.07.54.09.3.04.61.07.91.1.15.01.3.04.46.05.46.03.92.05,1.39.05,5.45,0,10.6-2.36,14.16-6.46.02-.02.04-.04.06-.06,0,0,0,0,.01-.01.31-.36.6-.73.88-1.11.08-.11.16-.23.24-.34.2-.28.38-.56.56-.84.08-.13.16-.25.24-.38.19-.32.37-.64.53-.97.05-.09.1-.18.14-.27,0-.01.01-.02.02-.03,1.2,1.03,2.52,1.63,3.86,1.75.15.02.3.03.46.03.01,0,.02,0,.03,0,.01,0,.03,0,.04,0,.24,0,.48-.01.69-.04,1.61-.18,3.19-1.07,4.57-2.56.08-.08.14-.21.19-.33,1.98-2.32,3.29-5.65,3.29-8.45s-1.37-5.48-3.66-7.11ZM55.73,30.95c-.81-.24-1.66-.37-2.52-.37-1.66,0-3.26.47-4.62,1.33-2.09-3.96-5.53-7.05-9.7-8.7,1.34-1.83,2.33-4.08,2.78-6.29,6.38,2.59,11.47,7.69,14.07,14.03ZM32,6.53c4.38,0,7.93,3.56,7.93,7.93,0,.32-.02.64-.06.97-.25,2.43-1.42,5.14-3,7.1-.87-.23-1.75-.4-2.65-.51,0,0-.01,0-.02,0-2.37-.28-4.79-.11-7.09.51-1.58-1.95-2.75-4.67-3-7.1-.03-.33-.06-.65-.06-.97,0-4.38,3.56-7.93,7.93-7.93ZM33.4,24.13c.1.67-.23,1.38-.63,2.2-.4.84-.86,1.79-.86,2.87,0,1.6.93,3.07,2.85,4.52l.45.33c1.04.77,2.03,1.49,2.45,2.45.06.14.08.24.09.26-.09.12-.57.31-.86.41-.36.13-.73.27-1.07.48-1.33.79-1.91,2.39-1.75,4.74l.02.26c.06.88.11,1.78-.17,2.5-.26.65-.85.75-1.09.77-.42.03-.99-.14-1.29-.68-.46-.83-.51-1.85-.56-2.93-.07-1.41-.16-3-1.21-4.38-.81-1.04-1.79-.93-2.38-.86-.3.03-.48.05-.63-.02-.05-.02-.16-.12-.25-.2-.12-.1-.23-.2-.35-.29-1.52-1.12-3.54-.14-4.2.18-.86.41-1.74.79-2.26.53-.24-.13-.42-.34-.62-.73h0s-.01-.01-.01-.02c-.22-.66-.5-1.29-.87-1.85-.23-.4-.53-.79-.87-1.16-.1-.11-.21-.22-.32-.33,2.05-4.09,5.67-7.2,10.05-8.55,2.02-.62,4.18-.85,6.29-.68.02.06.04.12.05.19ZM30.82,57.07c-.08.11-.13.23-.16.35-.16-.01-.31-.04-.46-.05-.24-.03-.49-.05-.73-.08-.24-.04-.47-.09-.71-.13-.17-.03-.35-.06-.52-.1-.34-.08-.67-.17-1.01-.27-.06-.02-.13-.03-.19-.05-4.51-1.38-8.27-4.64-10.32-9.11-.03-.07-.07-.15-.1-.22.65-.84,1.22-1.8,1.69-2.82,0,0,0,0,0,0,1.09.07,2.02.48,2.53,1.13.61.79,1.56.83,2.19.85.16,0,.31.01.46.03.72.09,1.34.84,1.31,1.58-.06,1.27.93,2.27,1.93,2.69.48.2.96.31,1.42.41.3.07.6.13.88.23,1.08.37,1.97,1.27,2.3,2.35.33,1.07.13,2.34-.53,3.23ZM22.33,16.92c.45,2.21,1.44,4.45,2.78,6.29-4.17,1.65-7.61,4.73-9.71,8.7-1.38-.86-2.98-1.33-4.62-1.33-.87,0-1.71.13-2.52.37,2.59-6.35,7.68-11.44,14.06-14.03ZM6.83,46.57c-1.69-1.98-2.83-4.87-2.83-7.2s1.11-4.35,2.98-5.62c1.11-.77,2.42-1.18,3.81-1.18,1.58,0,3.06.53,4.29,1.54.27.21.51.45.75.72.26.28.47.57.66.88.38.57.64,1.15.81,1.79,0,.03.01.07.02.1.16.57.25,1.17.25,1.77,0,1.15-.29,2.51-.83,3.83-.53,1.3-1.25,2.5-2.08,3.46-1.19,1.35-2.55,2.09-3.85,2.1-.15,0-.29-.01-.44-.03,0,0,0,0-.01,0-1.5-.18-2.74-1.25-3.54-2.16ZM32.92,57.42c.62-1.28.76-2.8.33-4.18-.53-1.67-1.89-3.06-3.56-3.64-.36-.12-.73-.21-1.1-.29-.39-.09-.76-.17-1.07-.3-.4-.17-.72-.51-.71-.75.09-1.77-1.31-3.45-3.06-3.66-.2-.03-.42-.03-.63-.04-.23,0-.6-.02-.69-.08-.76-.96-1.98-1.58-3.38-1.79.34-1.14.53-2.26.53-3.3,0-.03,0-.06,0-.09,1.23.21,2.46-.37,3.26-.75,1.05-.51,1.77-.64,2.15-.36.07.05.13.11.2.17.19.16.42.37.74.52.66.3,1.25.24,1.69.19.45-.05.45-.05.57.1.67.88.73,1.98.79,3.26.07,1.26.13,2.56.81,3.79.59,1.08,1.71,1.72,2.94,1.72.08,0,.15,0,.23,0,1.28-.08,2.36-.86,2.82-2.02.45-1.13.38-2.31.31-3.36l-.02-.26c-.08-1.06,0-2.42.78-2.89.19-.11.46-.22.75-.32.8-.3,2.01-.76,2.14-2.08.05-.51-.12-.95-.23-1.22-.65-1.49-1.96-2.45-3.11-3.3l-.43-.32c-1.38-1.04-2.05-2-2.05-2.92,0-.63.32-1.3.66-2.01.42-.88.88-1.86.84-2.96.52.11,1.03.23,1.54.38,4.4,1.36,8.01,4.47,10.06,8.56-1.55,1.55-2.46,3.62-2.55,5.83-.37.21-.69.46-.94.76-.32.4-.49.84-.65,1.23-.12.31-.24.59-.38.74-.2.2-.59.3-1.04.41-.42.1-.89.22-1.35.47-.97.52-1.59,1.61-1.61,2.82-.02,1.21.56,2.31,1.5,2.86.15.09.32.17.48.25.15.07.41.2.43.2.02.04.03.19.04.28,0,.09.02.18.03.26.18,1.3,1.1,2.47,2.5,3.21.1.06.2.09.29.14-2.91,2.87-6.75,4.56-10.84,4.79ZM45.15,51.08c-.24-.1-.49-.21-.73-.35-.83-.44-1.38-1.08-1.47-1.73l-.02-.18c-.02-.24-.05-.54-.21-.91-.33-.67-.94-.96-1.38-1.17-.11-.05-.22-.1-.33-.17-.39-.23-.52-.72-.52-1.1,0-.39.16-.88.56-1.1.23-.12.55-.2.88-.29.61-.15,1.38-.34,1.98-.94.42-.43.63-.94.8-1.39.44,1.98,1.4,4.02,2.66,5.64-.58,1.32-1.32,2.55-2.22,3.68ZM56.96,46.81c-.82.89-2.14,1.96-3.74,1.96-.14,0-.28-.01-.43-.04-1.52-.22-2.72-1.31-3.46-2.19,0,0,0,0,0,0,0,0-.02-.01-.02-.02-.06-.07-.14-.13-.22-.18-1.53-1.89-2.58-4.56-2.64-6.75,0-.04,0-.17-.01-.21,0-2,.87-3.88,2.4-5.17,1.2-1.05,2.76-1.63,4.38-1.63,1.29,0,2.55.37,3.64,1.07,1.97,1.24,3.15,3.38,3.15,5.73s-1.25,5.49-3.04,7.44ZM53.21,34.83c-2.5,0-4.54,2.04-4.54,4.54s2.04,4.54,4.54,4.54,4.54-2.04,4.54-4.54-2.04-4.54-4.54-4.54ZM53.21,41.91c-1.4,0-2.54-1.14-2.54-2.54s1.14-2.54,2.54-2.54,2.54,1.14,2.54,2.54-1.14,2.54-2.54,2.54Z"/>
</svg>