<?xml version="1.0" encoding="UTF-8"?>
<svg id="Expanded" xmlns="http://www.w3.org/2000/svg" viewBox="0 0 64 64">
  <path d="M60.72,3.55c-1.21-1.01-2.85-1.1-4.17-.23l-5.37,3.53c-.61.4-1.36.59-2.09.52l-15.31-1.37c-2.24-.26-4.46.71-5.79,2.54-.79,1.08-1.2,2.35-1.2,3.69,0,.01,0,.02,0,.03-.82.15-1.62.34-2.4.58.54-1.04.85-2.22.85-3.47,0-4.2-3.41-7.61-7.61-7.61s-7.61,3.41-7.61,7.61c0,1.25.31,2.43.85,3.47-5.63,5.41-8.85,12.91-8.85,20.73,0,15.82,12.87,28.68,28.68,28.68s28.7-12.87,28.7-28.68c0-4.48-1.06-8.92-3.06-12.88.19-.8.01-1.64-.55-2.27l-1.6-1.8.78-.07c1.96-.17,3.65-1.42,4.41-3.24l2.36-5.71c.6-1.46.21-3.05-1.01-4.05ZM27.35,14.84c.75,1.63,2.16,2.83,3.82,3.36-.24.62-.43,1.28-.43,2,0,1.78,1.09,3.49,3.23,5.08l.58.44c1.2.89,2.33,1.73,2.84,2.92.09.21.09.31.09.32-.02.2-.63.43-1.08.6-.41.16-.84.32-1.22.55-1.47.88-2.12,2.68-1.93,5.44.09,1.46.18,2.98-.62,3.84-.46.49-1.26.77-2.37.85-.56.03-1.26.03-1.67-.31-.32-.25-.49-.77-.62-1.23-.37-1.52-.33-3.17.12-4.64l.12-.37c.16-.49.34-1.05.36-1.67.02-1.09-.5-2.06-1.37-2.49-.67-.31-1.34-.21-1.88-.14-.3.04-.63.09-.8.01-.07-.03-.19-.14-.31-.24-.13-.12-.27-.24-.41-.33-1.71-1.22-3.96-.13-4.69.23-1.03.5-2.1.95-2.79.6-.54-.28-.81-1-1.13-1.84-.37-.96-.79-2.05-1.76-2.75-.11-.08-.22-.14-.33-.21,2.67-5.43,7.8-9.48,13.99-10.62.07.21.15.41.24.62ZM42.29,17.69c4.18,3.08,6.95,7.68,7.74,12.75-1.1.15-2.18.35-3.24.62-.97.25-1.97.6-2.66,1.46-.36.44-.55.94-.73,1.38-.15.37-.29.72-.47.91-.27.26-.74.38-1.28.52-.47.12-1.01.25-1.52.53-1.07.58-1.75,1.78-1.77,3.12-.02,1.34.61,2.56,1.64,3.16.18.11.37.2.56.29.23.11.54.26.57.32.03.06.05.23.06.37.01.1.02.2.03.28.19,1.44,1.22,2.76,2.8,3.6.18.1.36.17.54.26-3.15,3.17-7.38,5.27-12.08,5.7.13-.32.25-.65.33-1.01.38-1.71-.15-3.38-1.36-4.27-.52-.38-1.13-.6-1.67-.79-.73-.26-1.18-.44-1.27-.73-.02-.05-.03-.11-.04-.16-.05-.23-.12-.55-.33-.84-.2-.28-.44-.45-.57-.53-1.27-.83-2.79-.79-4.13-.75-1.28.04-2.39.07-3.06-.58-.29-.27-.5-.7-.73-1.14-.31-.61-.66-1.3-1.3-1.83-1.37-1.13-3.29-.89-4.58-.15-.4.23-.77.52-1.14.87-.99-2.33-1.53-4.9-1.53-7.58,0-2.36.43-4.63,1.21-6.74.47.36.74,1.06,1.02,1.8.41,1.06.87,2.26,2.08,2.9,1.65.84,3.48-.05,4.58-.58,1.27-.62,2.17-.75,2.66-.4.08.06.16.13.24.2.21.18.47.42.8.56.68.33,1.36.23,1.91.15.29-.04.63-.09.74-.04.12.06.24.33.24.63-.01.33-.14.71-.27,1.12l-.13.4c-.56,1.83-.62,3.8-.15,5.71.2.76.53,1.71,1.3,2.3.74.62,1.67.76,2.49.76.19,0,.38,0,.56-.02,1.64-.11,2.88-.61,3.7-1.48,1.4-1.49,1.27-3.62,1.16-5.43-.13-1.86.2-3.04.97-3.5.24-.14.56-.26.9-.39.94-.36,2.23-.84,2.37-2.29.04-.42-.05-.85-.25-1.31-.71-1.67-2.18-2.76-3.48-3.72l-.57-.43c-1.62-1.21-2.44-2.38-2.44-3.49,0-.55.2-1.12.46-1.71.18,0,.36-.01.53-.03l8.55-.76ZM50.28,33.46c0,4.62-1.62,8.87-4.31,12.23-.33-.13-.66-.27-.97-.44-1.01-.54-1.67-1.33-1.78-2.13l-.02-.21c-.03-.27-.07-.61-.24-1-.36-.72-1.03-1.05-1.52-1.28-.14-.06-.27-.13-.41-.21-.5-.3-.68-.92-.67-1.41,0-.49.2-1.12.72-1.4.29-.15.66-.25,1.06-.35.73-.18,1.55-.39,2.22-1.05.48-.49.71-1.07.91-1.58.13-.34.26-.65.43-.86.31-.38.86-.58,1.6-.78.96-.25,1.95-.43,2.95-.57.02.35.03.69.03,1.04ZM13.57,42.95c.41-.46.81-.8,1.21-1.04.69-.39,1.7-.53,2.3-.04.32.26.54.69.79,1.19.28.55.6,1.17,1.12,1.68,1.27,1.23,2.99,1.18,4.5,1.13,1.13-.03,2.2-.06,3,.43,0,.04.01.07.02.11.03.11.05.23.09.34.4,1.27,1.57,1.68,2.51,2.01.45.16.87.31,1.16.52.64.47.76,1.48.59,2.23-.12.54-.36,1.05-.63,1.5-7.16-.17-13.39-4.18-16.67-10.07ZM17.61,3.75c3.09,0,5.61,2.52,5.61,5.61s-2.52,5.61-5.61,5.61-5.61-2.52-5.61-5.61,2.52-5.61,5.61-5.61ZM30.68,60.25c-14.71,0-26.68-11.97-26.68-26.68,0-7.17,2.91-14.05,8.01-19.07,1.23,1.34,2.93,2.25,4.84,2.44-2.54,2.14-4.56,4.84-5.91,7.9-.07.1-.12.2-.16.32,0,.01,0,.03,0,.04-1.07,2.56-1.68,5.36-1.68,8.27,0,3.52.86,6.83,2.36,9.77.02.05.04.09.06.13,3.6,6.93,10.83,11.68,19.17,11.68.01,0,.02,0,.04,0,.01,0,.03,0,.04,0,.04,0,.07,0,.11-.01,6.37-.05,12.07-2.89,15.99-7.33.11-.08.2-.18.27-.3,3.2-3.76,5.14-8.63,5.14-13.94,0-.74-.05-1.47-.12-2.2,0-.03.01-.06,0-.09,0-.03-.02-.05-.02-.07-.44-3.95-1.95-7.69-4.35-10.81l3.26,1.99c.4.24.86.37,1.32.37h1.48c.38,0,.74-.11,1.07-.26,1.6,3.47,2.45,7.3,2.45,11.16,0,14.71-11.98,26.68-26.7,26.68ZM59.87,6.84l-2.36,5.71c-.47,1.13-1.52,1.9-2.74,2.01l-2.26.2-2.27-2.55c-.37-.41-1-.45-1.41-.08-.41.37-.45,1-.08,1.41l5.52,6.21c.21.24.13.49.09.59-.04.1-.18.32-.5.32h-1.48c-.1,0-.2-.03-.28-.08l-10.79-6.58c-.47-.29-1.09-.14-1.37.33-.29.47-.14,1.09.33,1.37l.21.13-6.93.62c-1.83.2-3.62-.79-4.38-2.45-.26-.57-.39-1.17-.39-1.79,0-.91.28-1.78.82-2.51.91-1.24,2.42-1.9,3.97-1.73l15.33,1.37c1.18.1,2.38-.19,3.37-.84l5.37-3.53c.69-.45,1.38-.25,1.8.1.42.34.75.99.43,1.75Z"/>
</svg>