<?xml version="1.0" encoding="UTF-8"?>
<svg id="OBJECT" xmlns="http://www.w3.org/2000/svg" viewBox="0 0 32 32">
  <defs>
    <style>
      .cls-1 {
        fill: #7738c8;
      }

      .cls-1, .cls-2 {
        stroke-width: 0px;
      }

      .cls-2 {
        fill: #011839;
      }
    </style>
  </defs>
  <path class="cls-2" d="m25,16.5h1c.55,0,1-.45,1-1s-.45-1-1-1h-1c-.55,0-1,.45-1,1s.45,1,1,1Z"/>
  <path class="cls-2" d="m30,10.5h-12.06c.04-.33.06-.66.06-1,0-4.69-3.81-8.5-8.5-8.5S1,4.81,1,9.5c0,2.35.96,4.47,2.5,6.01v14.49c0,.55.45,1,1,1h10c.55,0,1-.45,1-1v-2.5h14.5c.55,0,1-.45,1-1v-15c0-.55-.45-1-1-1Zm-1,10.5h-6c-.55,0-1-.45-1-1v-7.5h7v8.5ZM3,9.5c0-3.58,2.92-6.5,6.5-6.5s6.5,2.92,6.5,6.5-2.92,6.5-6.5,6.5-6.5-2.92-6.5-6.5Zm6.5,8.5c1.45,0,2.81-.36,4-1v6h-3v-2c0-.55-.45-1-1-1s-1,.45-1,1v2h-3v-6c1.19.64,2.55,1,4,1Zm-4,11v-4h3v1c0,.55.45,1,1,1s1-.45,1-1v-1h3v4H5.5Zm10-3.5v-9.99c.85-.85,1.51-1.87,1.94-3.01h2.56v7.5c0,1.65,1.35,3,3,3h6v2.5h-13.5Z"/>
  <path class="cls-1" d="m14.48,9.31c-.02-.44-.32-.82-.75-.93-1.28-.34-2.18-1.45-2.23-2.78-.02-.44-.32-.82-.74-.93-.46-.12-.87-.18-1.27-.18-2.76,0-5,2.24-5,5s2.24,5,5,5,5-2.24,5-5c0-.08,0-.15-.02-.19Z"/>
</svg>