<?xml version="1.0" encoding="UTF-8"?>
<svg id="Expanded" xmlns="http://www.w3.org/2000/svg" viewBox="0 0 64 64">
  <path d="M6.87,33.4c.1,1.2,1.13,2.15,2.33,2.15h4.97c.54.67,1.08,1.35,1.65,2.04l1.14,1.39c1.13,1.4,2.72,2.29,4.46,2.54v5.61c-1.37.48-2.36,1.77-2.36,3.3v3.09s0,0,0,0v.98c0,4.13,3.36,7.48,7.48,7.48h6.76c4.13,0,7.48-3.36,7.48-7.48v-.98s0,0,0,0v-3.09c0-1.53-.99-2.82-2.36-3.3v-5.61c1.74-.25,3.33-1.14,4.46-2.54.38-.47.76-.94,1.14-1.4,3.85-4.71,7.17-8.78,7.17-14.3,0-.04,0-.08,0-.11h3.61c1.21,0,2.23-.94,2.33-2.16.17-2.04-.83-4.09-2.54-5.22-1.37-.9-3.1-1.15-4.67-.71-.22-.45-.54-.86-.94-1.22-3.54-7.16-10.63-11.68-18.61-11.85,0,0-.01,0-.02,0-.03,0-.06,0-.09,0-.25-.02-.58-.02-.66,0-11.56.16-20.96,9.71-20.96,21.28,0,1.62.31,3.2.91,4.8-.05.03-.1.05-.14.08-1.71,1.13-2.71,3.18-2.54,5.23ZM8.86,33.23c-.11-1.3.55-2.66,1.65-3.38.6-.39,1.31-.59,2.03-.59.6,0,1.2.14,1.73.42.3.16.66.16.95,0,.3-.16.49-.46.52-.8.05-.64.51-1.07.78-1.27.57-.42,1.32-.59,1.94-.44,1.24.29,2.28,1.54,2.53,3.05.06.38.34.69.7.79.37.11.76,0,1.02-.28.66-.72,1.87-.95,2.74-.51.82.41,1.42,1.32,1.96,2.13.15.22.3.44.46.64.13.17.07.32.04.38-.04.08-.13.18-.3.18H9.2c-.18,0-.33-.14-.34-.32ZM34.31,21.88c.4.8,1.2,1.29,2.09,1.29h2.41c-.86,7.31-3.84,14.44-4.73,16.44h-3.16V4.7c2.12,1.58,6.4,5.36,7.72,11-.34.07-.67.18-.98.34-1.29.65-2.09,1.85-2.73,2.81-.12.19-.25.37-.38.54-.55.72-.64,1.67-.24,2.48ZM23.41,46.93v-5.32h13v5.32h-13ZM28.91,39.61h-3.17c-.33-.74-.95-2.17-1.64-4.06h3.49c.48,0,.93-.16,1.31-.42v4.48ZM28.91,31.01c-.61-.92-1.38-1.99-2.57-2.59-1.2-.6-2.63-.58-3.82,0-.23-.53-.53-1.01-.88-1.44-.62-2.95-.92-5.67-.87-8.09.13-7.41,5.59-12.3,8.15-14.19v26.31ZM18.51,37.73l-1.14-1.4c-.22-.26-.41-.52-.63-.78h5.25c.6,1.71,1.17,3.1,1.58,4.06h-1.15c-1.51,0-2.94-.69-3.91-1.88ZM33.29,60h-6.76c-2.86,0-5.21-2.2-5.46-4.99l1.06.43c1.83.74,3.85.74,5.69,0,1.35-.55,2.83-.55,4.18,0,.92.37,1.88.56,2.84.56s1.92-.19,2.84-.56l1.07-.43c-.25,2.79-2.6,4.99-5.46,4.99ZM38.78,52.84l-1.85.75c-1.35.55-2.83.55-4.18,0-1.83-.74-3.85-.74-5.68,0-1.35.55-2.83.55-4.18,0l-1.84-.75v-2.41c0-.83.68-1.51,1.51-1.51h14.71c.83,0,1.51.68,1.51,1.51v2.41ZM49.19,23.29c0,4.8-3.12,8.62-6.72,13.03-.38.46-.76.93-1.15,1.41-.97,1.2-2.39,1.88-3.91,1.88h-1.15c1.21-2.83,3.79-9.48,4.56-16.44h8.36s0,.08,0,.11ZM49.74,17.3c1.15-.62,2.66-.55,3.76.17,1.09.72,1.75,2.08,1.64,3.39-.01.18-.16.31-.34.31h-18.4c-.17,0-.26-.1-.3-.18-.03-.06-.09-.22.04-.38.16-.21.31-.42.46-.64.53-.81,1.14-1.72,1.96-2.13.3-.15.65-.23.99-.23.65,0,1.32.26,1.75.73.26.28.65.39,1.02.28.37-.11.64-.42.7-.79.25-1.5,1.29-2.76,2.53-3.05.63-.15,1.37.02,1.94.44.27.2.73.63.78,1.27.03.34.22.64.52.8.3.16.66.17.95,0ZM46.04,12.73c-.32,0-.64.03-.95.1-1.58.37-2.92,1.59-3.61,3.2-.25-.12-.52-.21-.79-.28-1.08-5.28-4.47-9.14-7-11.37,5.07.99,9.51,3.98,12.36,8.35ZM10.64,23.29c0-9.28,6.68-17.11,15.48-18.89-3.03,2.66-7.23,7.56-7.35,14.46-.04,1.99.14,4.16.52,6.47-.13-.04-.25-.09-.38-.12-1.2-.28-2.54,0-3.58.77-.56.41-.98.91-1.25,1.47-.87-.24-1.78-.27-2.66-.09-.51-1.37-.77-2.72-.77-4.08Z"/>
</svg>