<?xml version="1.0" encoding="UTF-8"?>
<svg id="Expanded" xmlns="http://www.w3.org/2000/svg" viewBox="0 0 64 64">
  <path d="M14.92,17.51c.2,0,.4-.01.58-.03l7.62-.68,6.1,3.72c.35.21.75.33,1.17.33h1.18c.89,0,1.68-.51,2.04-1.32.37-.81.22-1.74-.37-2.4l-1.02-1.14.23-.02c1.64-.15,3.06-1.19,3.69-2.71l1.89-4.56c.52-1.25.18-2.61-.86-3.47-1.04-.86-2.44-.94-3.57-.2l-4.29,2.82c-.45.3-1.01.44-1.54.38l-12.24-1.1c-1.87-.22-3.71.59-4.82,2.11-.65.9-1,1.96-1,3.07,0,.75.16,1.49.48,2.18.85,1.84,2.71,3.04,4.73,3.04ZM12.33,10.4c.69-.95,1.8-1.44,3-1.3l12.26,1.1c.99.09,1.99-.16,2.82-.71l4.29-2.82c.58-.38,1.07-.04,1.2.07.14.11.56.53.29,1.17l-1.89,4.56c-.35.84-1.12,1.4-2.02,1.48l-1.71.15-1.75-1.96c-.37-.41-1-.45-1.41-.08-.41.37-.45,1-.08,1.41l4.42,4.97c.07.08.08.16.04.26-.04.09-.11.14-.22.14h-1.18s-.09-.01-.12-.03l-8.63-5.26c-.47-.29-1.09-.14-1.37.33-.23.37-.17.83.09,1.15l-5.05.45c-1.37.14-2.72-.59-3.3-1.84-.2-.43-.29-.88-.29-1.35,0-.69.21-1.34.61-1.89ZM6,62h52c2.21,0,4-1.79,4-4s-1.79-4-4-4h-3.14v-28.37c1.53-1.09,4.59-3.53,5.77-6.49.46-1.13.6-2.24.43-3.31-.08-.47-.19-.89-.31-1.27,0-.03-.02-.06-.03-.09,0,0,0,0,0,0-.35-1.09-.92-2.12-1.69-3.07-1.18-1.45-2.93-2.3-4.83-2.38v-2.68c0-2.39-1.95-4.34-4.35-4.34-1.14,0-2.23.45-3.06,1.27-.83.81-1.28,1.9-1.28,3.07v2.68c-1.66.09-3.21.78-4.31,1.92-1.01,1.03-1.74,2.22-2.18,3.52,0,0,0,.01,0,.02,0,.02-.02.04-.02.06-.14.42-.25.86-.33,1.29-.19,1.07-.04,2.19.43,3.31.8,1.97,2.39,3.65,3.83,4.87H10.59c-3.08,0-5.59,2.51-5.59,5.59,0,1.74,1.31,3.16,3,3.36v21.04h-2c-2.21,0-4,1.79-4,4s1.79,4,4,4ZM46.85,54v-27.99h6.01v27.99h-6.01ZM34.53,54v-21h10.32v21h-10.32ZM21.53,54v-21h11v21h-11ZM58.77,18.39c-.99,2.48-3.71,4.65-5.09,5.62h-2.83v-8.15h8.17c.02.1.04.2.06.3.11.69,0,1.44-.31,2.23ZM48.19,4.69c.45-.45,1.04-.69,1.66-.69,1.3,0,2.35,1.05,2.35,2.34v2.66h-4.69v-2.66c0-.63.24-1.21.68-1.65ZM45.89,11h8.01c1.41,0,2.71.61,3.57,1.66.31.38.58.78.81,1.2h-16.8c.31-.54.69-1.05,1.15-1.53.81-.85,2-1.33,3.26-1.33ZM40.94,18.39s0-.01,0-.02c-.32-.77-.43-1.51-.31-2.2.02-.1.06-.21.08-.31h8.15v8.15h-2.58c-2.04-1.3-4.45-3.41-5.34-5.62ZM7,29.6c0-1.98,1.61-3.59,3.59-3.59h34.25v4.99H8.4c-.77,0-1.4-.63-1.4-1.4ZM10,33h9.53v21h-9.53v-21ZM6,56h52c1.1,0,2,.9,2,2s-.9,2-2,2H6c-1.1,0-2-.9-2-2s.9-2,2-2Z"/>
</svg>