<?xml version="1.0" encoding="UTF-8"?>
<svg id="OBJECT" xmlns="http://www.w3.org/2000/svg" viewBox="0 0 32 32">
  <defs>
    <style>
      .cls-1 {
        fill: #7738c8;
      }

      .cls-1, .cls-2 {
        stroke-width: 0px;
      }

      .cls-2 {
        fill: #011839;
      }
    </style>
  </defs>
  <g>
    <path class="cls-2" d="m28,1H4c-1.65,0-3,1.35-3,3v9c0,1.65,1.35,3,3,3h2c.55,0,1-.45,1-1s-.45-1-1-1h-2c-.55,0-1-.45-1-1V4c0-.55.45-1,1-1h5.25l.48,1.69c.31,1.07,1.29,1.81,2.4,1.81h7.74c1.11,0,2.1-.75,2.4-1.81l.48-1.69h5.25c.55,0,1,.45,1,1v9c0,.55-.45,1-1,1h-2c-.55,0-1,.45-1,1s.45,1,1,1h2c1.65,0,3-1.35,3-3V4c0-1.65-1.35-3-3-3Zm-7.65,3.14c-.06.21-.26.36-.48.36h-7.74c-.22,0-.42-.15-.48-.36l-.32-1.14h9.35l-.32,1.14Z"/>
    <path class="cls-2" d="m27.5,9c0-.55-.45-1-1-1H5.5c-.55,0-1,.45-1,1s.45,1,1,1h21c.55,0,1-.45,1-1Z"/>
  </g>
  <path class="cls-1" d="m8,30c0,.55.45,1,1,1h14c.55,0,1-.45,1-1V12H8v18Zm6.83-3.25c0,.55-.45,1-1,1s-1-.45-1-1v-.89c0-.43-.35-.77-.77-.77h-.89c-.55,0-1-.45-1-1s.45-1,1-1h.89c1.53,0,2.77,1.24,2.77,2.77v.89Zm6.09-1.66h-.89c-.43,0-.77.35-.77.77v.89c0,.55-.45,1-1,1s-1-.45-1-1v-.89c0-1.53,1.24-2.77,2.77-2.77h.89c.55,0,1,.45,1,1s-.45,1-1,1Zm-9.83-8.09h.62v-1.44c0-.55.45-1,1-1s1,.45,1,1v3.25c0,.34.28.62.62.62s.62-.28.62-.62v-1.62c0-1.45,1.18-2.62,2.62-2.62s2.51,1.08,2.61,2.44h.64c.55,0,1,.45,1,1s-.45,1-1,1h-.62v1.44c0,.55-.45,1-1,1s-1-.45-1-1v-3.25c0-.34-.28-.62-.62-.62s-.62.28-.62.62v1.62c0,1.45-1.18,2.62-2.62,2.62s-2.51-1.08-2.61-2.44h-.64c-.55,0-1-.45-1-1s.45-1,1-1Z"/>
</svg>