<?xml version="1.0" encoding="UTF-8"?>
<svg id="OBJECT" xmlns="http://www.w3.org/2000/svg" viewBox="0 0 32 32">
  <defs>
    <style>
      .cls-1 {
        fill: #7738c8;
      }

      .cls-1, .cls-2 {
        stroke-width: 0px;
      }

      .cls-2 {
        fill: #011839;
      }
    </style>
  </defs>
  <g>
    <path class="cls-2" d="m13.75,21.5h-.5c-.55,0-1,.45-1,1s.45,1,1,1h.5c.55,0,1-.45,1-1s-.45-1-1-1Z"/>
    <path class="cls-2" d="m18.75,21.5h-.5c-.55,0-1,.45-1,1s.45,1,1,1h.5c.55,0,1-.45,1-1s-.45-1-1-1Z"/>
    <path class="cls-2" d="m30,25.5h-.5v-11.55c0-.49-.15-.97-.42-1.39l-1.3-1.95c-.46-.7-1.24-1.11-2.08-1.11H6.3c-.84,0-1.62.42-2.08,1.11l-1.3,1.96c-.27.41-.42.89-.42,1.39v11.55h-.5c-.55,0-1,.45-1,1v2c0,1.38,1.12,2.5,2.5,2.5h25c1.38,0,2.5-1.12,2.5-2.5v-2c0-.55-.45-1-1-1Zm-3.89-13.78l1.3,1.95c.06.08.08.18.08.28v3.55h-10.5v-6h8.7c.17,0,.32.08.42.22Zm-21.53,1.95l1.3-1.95c.09-.14.25-.22.42-.22h8.7v6H4.5v-3.55c0-.1.03-.19.08-.28Zm-.08,5.82h23v6H4.5v-6Zm24.5,9c0,.28-.22.5-.5.5H3.5c-.28,0-.5-.22-.5-.5v-1h26v1Z"/>
  </g>
  <g>
    <path class="cls-1" d="m22,1h-12c-.55,0-1,.45-1,1v2.5c0,.55.45,1,1,1h3v2h6v-2h3c.55,0,1-.45,1-1v-2.5c0-.55-.45-1-1-1Z"/>
    <path class="cls-1" d="m30,2.25h-5v2h5c.55,0,1-.45,1-1s-.45-1-1-1Z"/>
    <path class="cls-1" d="m1,3.25c0,.55.45,1,1,1h5v-2H2c-.55,0-1,.45-1,1Z"/>
  </g>
</svg>