<?xml version="1.0" encoding="UTF-8"?>
<svg id="OBJECT" xmlns="http://www.w3.org/2000/svg" viewBox="0 0 32 32">
  <defs>
    <style>
      .cls-1 {
        fill: #7738c8;
      }

      .cls-1, .cls-2 {
        stroke-width: 0px;
      }

      .cls-2 {
        fill: #011839;
      }
    </style>
  </defs>
  <g>
    <path class="cls-2" d="m28,7.5v-2.5c0-.55-.45-1-1-1h-7c-.45,0-.84.3-.96.73l-.79,2.77h-8.25v-1c0-1.38-1.12-2.5-2.5-2.5h-1c-1.38,0-2.5,1.12-2.5,2.5v1c-1.65,0-3,1.35-3,3v14.5c0,1.65,1.35,3,3,3h24c1.65,0,3-1.35,3-3v-14.5c0-1.65-1.35-3-3-3Zm-7.25-1.5h5.25v1.5h-5.67l.43-1.5Zm-14.75.5c0-.28.22-.5.5-.5h1c.28,0,.5.22.5.5v1h-2v-1Zm-2,3h24c.55,0,1,.45,1,1v4.25h-6.13c-1.16-2.65-3.8-4.5-6.87-4.5s-5.71,1.85-6.87,4.5H3v-4.25c0-.55.45-1,1-1Zm17.5,8.25c0,3.03-2.47,5.5-5.5,5.5s-5.5-2.47-5.5-5.5,2.47-5.5,5.5-5.5,5.5,2.47,5.5,5.5Zm6.5,8.25H4c-.55,0-1-.45-1-1v-8.25h5.57c-.04.33-.07.66-.07,1,0,4.14,3.36,7.5,7.5,7.5s7.5-3.36,7.5-7.5c0-.34-.03-.67-.07-1h5.57v8.25c0,.55-.45,1-1,1Z"/>
    <path class="cls-2" d="m25,13.12h1c.55,0,1-.45,1-1s-.45-1-1-1h-1c-.55,0-1,.45-1,1s.45,1,1,1Z"/>
  </g>
  <path class="cls-1" d="m20.23,17.48c-.03-.4-.28-.74-.66-.88-.84-.3-1.41-1.08-1.47-1.96-.03-.4-.28-.74-.66-.88-2.89-1.05-5.7,1.17-5.7,3.98,0,2.34,1.91,4.25,4.25,4.25s4.25-1.91,4.25-4.25c0-.09,0-.17-.02-.27Z"/>
</svg>