<?xml version="1.0" encoding="UTF-8"?>
<svg id="OBJECT" xmlns="http://www.w3.org/2000/svg" viewBox="0 0 32 32">
  <defs>
    <style>
      .cls-1 {
        fill: #7738c8;
      }

      .cls-1, .cls-2 {
        stroke-width: 0px;
      }

      .cls-2 {
        fill: #011839;
      }
    </style>
  </defs>
  <path class="cls-2" d="m30,22h-5v-10c0-1.65-1.35-3-3-3H4c-1.65,0-3,1.35-3,3v11c0,.55.45,1,1,1h2.55c.25,2.24,2.14,4,4.45,4s4.2-1.76,4.45-4h11.68l.5,1.8c.36,1.29,1.55,2.2,2.89,2.2h1.48c.55,0,1-.45,1-1v-4c0-.55-.45-1-1-1ZM4,11h7v4h-2v-1c0-.55-.45-1-1-1s-1,.45-1,1v1H3v-3c0-.55.45-1,1-1Zm5,15c-1.38,0-2.5-1.12-2.5-2.5s1.12-2.5,2.5-2.5,2.5,1.12,2.5,2.5-1.12,2.5-2.5,2.5Zm0-7c-1.95,0-3.6,1.26-4.22,3h-1.78v-5h9c.55,0,1-.45,1-1v-5h9c.55,0,1,.45,1,1v1h-3c-2.21,0-4,1.79-4,4v5h-2.78c-.62-1.74-2.27-3-4.22-3Zm9,3v-5c0-1.1.9-2,2-2h3v2.5h-.5c-.55,0-1,.45-1,1s.45,1,1,1h.5v2.5h-5Zm11,4h-.48c-.45,0-.84-.3-.96-.73l-.35-1.27h1.79v2Z"/>
  <path class="cls-1" d="m5,6v1h14v-1c.55,0,1-.45,1-1s-.45-1-1-1H5c-.55,0-1,.45-1,1s.45,1,1,1Z"/>
</svg>