<?xml version="1.0" encoding="UTF-8"?>
<svg id="OBJECT" xmlns="http://www.w3.org/2000/svg" viewBox="0 0 32 32">
  <defs>
    <style>
      .cls-1 {
        fill: #7738c8;
      }

      .cls-1, .cls-2 {
        stroke-width: 0px;
      }

      .cls-2 {
        fill: #011839;
      }
    </style>
  </defs>
  <path class="cls-2" d="m31,5c0-2.21-1.79-4-4-4-1.49,0-2.8.81-3.48,2.04-2.21-1.29-4.78-2.04-7.52-2.04C7.73,1,1,7.73,1,16s6.73,15,15,15,15-6.73,15-15c0-2.74-.75-5.3-2.04-7.52,1.23-.68,2.04-1.99,2.04-3.48Zm-4-2c1.1,0,2,.9,2,2,0,.8-.47,1.49-1.18,1.8-.77-.98-1.65-1.86-2.63-2.63.31-.7,1-1.18,1.8-1.18Zm-11,26c-7.17,0-13-5.83-13-13S8.83,3,16,3s13,5.83,13,13-5.83,13-13,13Z"/>
  <g>
    <path class="cls-1" d="m14.85,8.09l3.96-1.68c-.91-.27-1.85-.41-2.81-.41-5.51,0-10,4.49-10,10,0,.96.14,1.9.41,2.81l1.68-3.96c.51-3.49,3.27-6.25,6.76-6.76Z"/>
    <path class="cls-1" d="m25.59,13.19l-1.68,3.96c-.51,3.49-3.27,6.25-6.76,6.76l-3.96,1.68c.91.27,1.85.41,2.81.41,5.51,0,10-4.49,10-10,0-.96-.14-1.91-.41-2.81Z"/>
    <path class="cls-1" d="m21.73,17.15l2.95-6.95c.35-.83.17-1.78-.47-2.42s-1.59-.82-2.42-.47l-6.95,2.95c-2.07.88-3.7,2.51-4.58,4.58l-2.95,6.95c-.35.83-.17,1.78.47,2.42.42.42.98.65,1.55.65.29,0,.58-.06.86-.18l6.95-2.95c2.07-.88,3.7-2.51,4.58-4.58Zm-5.84.16l-1.2-1.2c-.39-.39-.39-1.02,0-1.41s1.02-.39,1.41,0l1.2,1.2c.39.39.39,1.02,0,1.41-.2.2-.45.29-.71.29s-.51-.1-.71-.29Z"/>
  </g>
</svg>