<?xml version="1.0" encoding="UTF-8"?>
<svg id="OBJECT" xmlns="http://www.w3.org/2000/svg" viewBox="0 0 32 32">
  <defs>
    <style>
      .cls-1 {
        fill: #7738c8;
      }

      .cls-1, .cls-2 {
        stroke-width: 0px;
      }

      .cls-2 {
        fill: #011839;
      }
    </style>
  </defs>
  <path class="cls-2" d="m28,10h-2v-3c0-1.65-1.35-3-3-3H4c-1.65,0-3,1.35-3,3v12c0,1.65,1.35,3,3,3h2v3c0,1.65,1.35,3,3,3h19c1.65,0,3-1.35,3-3v-12c0-1.65-1.35-3-3-3Zm0,2c.55,0,1,.45,1,1v3h-3v-4h2ZM3,19V7c0-.55.45-1,1-1h19c.55,0,1,.45,1,1v12c0,.55-.45,1-1,1H4c-.55,0-1-.45-1-1Zm25,7H9c-.55,0-1-.45-1-1v-3h15c1.65,0,3-1.35,3-3v-1h3v7c0,.55-.45,1-1,1Z"/>
  <g>
    <rect class="cls-1" x="4.5" y="7.5" width="10" height="7" rx="1" ry="1"/>
    <path class="cls-1" d="m21.5,16.5h-12c-.55,0-1,.45-1,1s.45,1,1,1h12c.55,0,1-.45,1-1s-.45-1-1-1Z"/>
    <path class="cls-1" d="m6,16.5h-.5c-.55,0-1,.45-1,1s.45,1,1,1h.5c.55,0,1-.45,1-1s-.45-1-1-1Z"/>
    <path class="cls-1" d="m21.5,11.5h-4c-.55,0-1,.45-1,1s.45,1,1,1h4c.55,0,1-.45,1-1s-.45-1-1-1Z"/>
    <path class="cls-1" d="m17.5,10.5h4c.55,0,1-.45,1-1s-.45-1-1-1h-4c-.55,0-1,.45-1,1s.45,1,1,1Z"/>
  </g>
</svg>