<?xml version="1.0" encoding="UTF-8"?>
<svg id="OBJECT" xmlns="http://www.w3.org/2000/svg" viewBox="0 0 32 32">
  <defs>
    <style>
      .cls-1 {
        fill: #7738c8;
      }

      .cls-1, .cls-2 {
        stroke-width: 0px;
      }

      .cls-2 {
        fill: #011839;
      }
    </style>
  </defs>
  <g>
    <path class="cls-2" d="m9,1C4.59,1,1,4.59,1,9v4c0,.31.14.6.38.79.24.19.56.25.86.18l4-1c.45-.11.76-.51.76-.97v-3c0-1.1.9-2,2-2s2,.9,2,2v5.26l-7.86,2.36c-1.28.38-2.14,1.54-2.14,2.87v8.51c0,1.65,1.35,3,3,3h10c1.65,0,3-1.35,3-3V9c0-4.41-3.59-8-8-8ZM3.71,18.53l8.57-2.57c.42-.13.71-.52.71-.96v-6c0-2.21-1.79-4-4-4s-4,1.79-4,4v2.22l-2,.5v-2.72c0-3.31,2.69-6,6-6s6,2.69,6,6v16H3v-5.51c0-.45.29-.83.71-.96Zm10.29,10.47H4c-.55,0-1-.45-1-1v-1h12v1c0,.55-.45,1-1,1Z"/>
    <path class="cls-2" d="m10.75,23h.5c.55,0,1-.45,1-1s-.45-1-1-1h-.5c-.55,0-1,.45-1,1s.45,1,1,1Z"/>
    <path class="cls-2" d="m6.75,23h.5c.55,0,1-.45,1-1s-.45-1-1-1h-.5c-.55,0-1,.45-1,1s.45,1,1,1Z"/>
  </g>
  <path class="cls-1" d="m28,16h-2v-4c0-2.21-1.79-4-4-4h-3v2h3c1.1,0,2,.9,2,2v4h-2c-1.65,0-3,1.35-3,3v9c0,1.65,1.35,3,3,3h6c1.65,0,3-1.35,3-3v-9c0-1.65-1.35-3-3-3Zm-.5,9c.55,0,1,.45,1,1s-.45,1-1,1h-5c-.55,0-1-.45-1-1s.45-1,1-1h1.5v-3h-1.5c-.55,0-1-.45-1-1s.45-1,1-1h5c.55,0,1,.45,1,1s-.45,1-1,1h-1.5v3h1.5Z"/>
</svg>