<?xml version="1.0" encoding="UTF-8"?>
<svg id="OBJECT" xmlns="http://www.w3.org/2000/svg" viewBox="0 0 32 32">
  <defs>
    <style>
      .cls-1 {
        fill: #7738c8;
      }

      .cls-1, .cls-2 {
        stroke-width: 0px;
      }

      .cls-2 {
        fill: #011839;
      }
    </style>
  </defs>
  <g>
    <path class="cls-2" d="m26.75,20h.5c.55,0,1-.45,1-1s-.45-1-1-1h-.5c-.55,0-1,.45-1,1s.45,1,1,1Z"/>
    <path class="cls-2" d="m26.75,23h.5c.55,0,1-.45,1-1s-.45-1-1-1h-.5c-.55,0-1,.45-1,1s.45,1,1,1Z"/>
    <path class="cls-2" d="m30,14c-.55,0-1,.45-1,1v14h-7.13l.63-.94c.33-.49.5-1.07.5-1.66v-2.39c0-.55-.45-1-1-1h-.56c-.07-.67-.23-1.31-.44-1.93v-6.07c0-.55-.45-1-1-1s-1,.45-1,1v2.79c-1.53-1.6-3.65-2.64-6-2.77v-2.03c0-.55-.45-1-1-1s-1,.45-1,1v2.03c-4.4.24-7.96,3.65-8.44,7.97h-.56c-.55,0-1,.45-1,1v2.39c0,.59.17,1.17.5,1.66l1.07,1.61c.56.84,1.49,1.34,2.5,1.34h24.93c.55,0,1-.45,1-1v-15c0-.55-.45-1-1-1Zm-18.5,3h1c3.52,0,6.43,2.61,6.92,6H4.58c.49-3.39,3.4-6,6.92-6Zm-7.26,11.55l-1.07-1.61c-.11-.17-.17-.36-.17-.55v-1.39h18v1.39c0,.2-.06.39-.17.55l-1.07,1.61c-.19.28-.5.45-.83.45H5.07c-.33,0-.65-.17-.83-.45Z"/>
  </g>
  <g>
    <path class="cls-1" d="m30,9h-10c-.55,0-1,.45-1,1v3h12v-3c0-.55-.45-1-1-1Z"/>
    <path class="cls-1" d="m20,3h3c.55,0,1,.45,1,1v3h2v-3c0-1.65-1.35-3-3-3h-3c-.55,0-1,.45-1,1s.45,1,1,1Z"/>
  </g>
</svg>