<?xml version="1.0" encoding="UTF-8"?>
<svg id="OBJECT" xmlns="http://www.w3.org/2000/svg" viewBox="0 0 32 32">
  <defs>
    <style>
      .cls-1 {
        fill: #7738c8;
      }

      .cls-1, .cls-2 {
        stroke-width: 0px;
      }

      .cls-2 {
        fill: #011839;
      }
    </style>
  </defs>
  <path class="cls-2" d="m28.5,16c-.55,0-1,.45-1,1v7h-8v-7c0-.55-.45-1-1-1s-1,.45-1,1v12h-3v-12c0-.55-.45-1-1-1s-1,.45-1,1v7H4.5v-7c0-.55-.45-1-1-1s-1,.45-1,1v11c0,1.65,1.35,3,3,3h21c1.65,0,3-1.35,3-3v-11c0-.55-.45-1-1-1ZM4.5,28v-2h8v3h-7c-.55,0-1-.45-1-1Zm22,1h-7v-3h8v2c0,.55-.45,1-1,1Z"/>
  <g>
    <path class="cls-1" d="m23,5.17v1.27c0,.19-.03.38-.08.56h2.04c.03-.19.04-.37.04-.56v-1.27c0-2.3-1.87-4.17-4.17-4.17-.86,0-1.69.26-2.4.76l-1.66,1.17c-.29.2-.55.44-.77.7-.22-.26-.48-.5-.77-.71l-1.66-1.17c-.71-.5-1.54-.76-2.4-.76-2.3,0-4.17,1.87-4.17,4.17v1.27c0,.19.02.38.04.56h2.04c-.05-.18-.08-.37-.08-.56v-1.27c0-1.2.97-2.17,2.17-2.17.45,0,.88.14,1.25.4l1.66,1.17c.58.41.92,1.07.92,1.78v.66h2v-.66c0-.71.34-1.37.92-1.77l1.66-1.17c.37-.26.8-.39,1.25-.39,1.2,0,2.17.97,2.17,2.17Z"/>
    <rect class="cls-1" x="13" y="9" width="6" height="5"/>
    <path class="cls-1" d="m29,9h-8v5h10v-3c0-1.1-.9-2-2-2Z"/>
    <path class="cls-1" d="m1,11v3h10v-5H3c-1.1,0-2,.9-2,2Z"/>
  </g>
</svg>