<?xml version="1.0" encoding="UTF-8"?>
<svg id="Expanded" xmlns="http://www.w3.org/2000/svg" viewBox="0 0 64 64">
  <path d="M52.65,35.15V14.11c0-1.43-.65-2.75-1.78-3.61-1.13-.87-2.56-1.15-3.94-.79l-8.02,2.11c-1.65.45-3.41.67-5.21.67h-4.18c-.08-.35-.18-.7-.29-1.04-.02-.11-.06-.21-.11-.31-1.88-5.32-6.94-9.14-12.9-9.14-.49,0-.97.03-1.45.08,0,0,0,0-.01,0C7.9,2.81,2.54,8.63,2.54,15.69c0,.3.03.59.04.89,0,.05,0,.09,0,.14.21,2.76,1.23,5.28,2.83,7.35v13.99s0,0,0,0v17.08c0,1.42.65,2.74,1.77,3.61.81.63,1.78.95,2.78.95.39,0,.78-.05,1.17-.15l8.1-2.14c1.7-.45,3.45-.67,5.19-.67h9.73c.47,0,.93-.02,1.4-.05.08.02.15.05.23.05.16,0,.3-.04.43-.11,1.31-.12,2.61-.34,3.87-.69l2.85-.78c1.89,3.74,4.69,6.83,7.95,6.83,6.1,0,10.57-10.81,10.57-16.44,0-5.23-3.82-9.57-8.81-10.41ZM39.43,13.75l8.02-2.11c.77-.21,1.58-.05,2.21.44.63.49,1,1.22,1,2.03v13.82c-1.28.14-2.57.13-3.84-.04-.25-.03-.5-.07-.75-.11-1.58-.24-3.36-.51-4.95.36-.86.47-1.45,1.17-2.03,1.83-.23.27-.45.53-.7.78-.46.46-1,.84-1.59,1.13V14.28c.9-.12,1.78-.3,2.63-.53ZM33.7,14.49c.37,0,.73-.02,1.1-.03v18.03c-.48.06-.97.07-1.45.01-.55-.06-.93-.21-1.12-.42-.3-.34-.29-.98-.28-1.72.02-.96.04-2.05-.66-2.97-.34-.45-.77-.74-1.15-.99l-.21-.14c-1.04-.72-1.88-1.75-2.37-2.91,1.49-2.19,2.36-4.83,2.36-7.67,0-.4-.03-.8-.06-1.2h3.85ZM27.07,11.35c-.7.48-1.69.68-2.73.48-.19-.04-.38-.08-.57-.13-.8-.19-1.7-.41-2.65-.09-.84.28-1.4.88-1.89,1.4-.32.34-.62.66-.93.83-.51.27-1.27.1-1.62-.36-.35-.46-.32-1.23.07-1.66.07-.07.14-.14.21-.21.35-.34.88-.84.91-1.64.03-.8-.46-1.49-1.45-2.03l-.25-.14c-.46-.25-.9-.49-1.23-.79-.32-.29-.5-.65-.47-.92.03-.31.3-.68.54-1.01.19-.26.33-.58.46-.89.02-.04.04-.09.06-.14.23-.01.45-.03.68-.03,4.91,0,9.12,3.05,10.85,7.35ZM13.02,4.46c-.25.4-.48.87-.54,1.44-.09.91.32,1.85,1.1,2.58.51.47,1.11.8,1.63,1.08l.24.13c.19.1.3.19.36.24-.07.07-.16.17-.24.23-.11.1-.21.2-.3.3-1.05,1.14-1.13,3-.19,4.23.63.82,1.64,1.27,2.65,1.27.51,0,1.02-.12,1.48-.36.62-.32,1.07-.81,1.47-1.23.38-.4.7-.75,1.06-.87.41-.14.96,0,1.55.14.22.05.44.11.66.15,1.34.26,2.65.08,3.71-.46.16.76.24,1.55.24,2.36,0,4.03-2.06,7.6-5.17,9.7-.03-.61-.14-1.2-.35-1.75-.48-1.27-1.44-2.26-2.62-2.72-.68-.27-1.4-.34-2.07-.34-.23-1.21-1.18-2.23-2.24-2.74-1.06-.51-2.17-.62-3.25-.73l-.55-.06s0-.06-.01-.09c-.1-.76-.33-1.5-.7-2.18-.36-.67-.79-1.11-1.31-1.34-.62-.28-1.25-.22-1.74-.13-1.06.18-2.27.67-3.31,1.28.45-4.85,3.88-8.83,8.43-10.13ZM20.58,42.83c-.16-.04-.32-.07-.47-.11-1.63-.42-2.72-1.03-3.35-1.87-.33-.44-.57-.99-.82-1.58-.39-.89-.82-1.91-1.69-2.65-1-.87-2.42-1.23-3.9-1.01-.94.14-1.88.51-2.92,1.13v-10.58c2.38,2.01,5.45,3.22,8.8,3.22,1.52,0,2.99-.26,4.36-.72v14.17ZM15.93,22.25c.2.24.51.37.82.36.8-.04,1.62-.09,2.29.17.65.25,1.2.84,1.48,1.57.24.63.28,1.39.14,2.15-1.37.56-2.86.88-4.43.88-6,0-10.95-4.55-11.61-10.37.91-.77,2.46-1.52,3.63-1.73.36-.06.51-.04.58-.01.05.02.18.11.37.46.25.47.41.97.48,1.53.04.34.12.91.58,1.33.41.37.91.42,1.15.45l.62.06c.94.09,1.83.18,2.57.54.67.32,1.3,1.08,1.14,1.73-.08.31,0,.63.2.88ZM18.73,55.48l-8.1,2.14c-.78.2-1.58.04-2.21-.45-.63-.49-.99-1.23-.99-2.03v-16.14c.19-.07.38-.16.6-.3.99-.65,1.83-1,2.62-1.12.9-.14,1.75.07,2.3.55.52.45.83,1.17,1.16,1.94.29.67.59,1.35,1.05,1.98.92,1.23,2.37,2.08,4.46,2.61.32.08.64.15.97.22v10.21c-.62.11-1.24.23-1.85.39ZM22.58,54.83v-9.5c.46.12.91.26,1.34.43,3.63,1.49,5.31,5.56,5.42,8.99h-4.91c-.62,0-1.24.04-1.85.09ZM31.34,54.74c-.11-4.85-2.77-9.24-6.66-10.83-.69-.28-1.4-.48-2.1-.64v-15.47c1.35-.71,2.56-1.64,3.6-2.75.65,1.13,1.55,2.12,2.62,2.86l.23.16c.27.18.53.35.66.53.28.37.27,1.02.25,1.72-.02.96-.04,2.17.79,3.09.54.6,1.32.95,2.38,1.07.31.04.62.05.93.05.25,0,.5-.01.75-.04v20.22c-.21,0-.42.02-.63.02h-2.83ZM39.57,54.02c-.91.25-1.83.43-2.77.55v-20.52c1.12-.4,2.15-1.04,3-1.89.28-.28.54-.58.8-.89.48-.56.93-1.09,1.47-1.38,1-.55,2.3-.35,3.69-.14.26.04.52.08.78.11,1.36.18,2.74.2,4.11.07v5.07c-5.71.13-10.32,4.81-10.32,10.55,0,2.13.64,5.01,1.77,7.76l-2.53.69ZM50.89,60c-2.42,0-4.8-2.84-6.44-6.28,0,0,0,0,0,0-.01-.04-.04-.07-.06-.11-1.27-2.69-2.07-5.73-2.07-8.05,0-4.72,3.84-8.57,8.57-8.57.25,0,.5.02.74.04,0,0,0,0,.01,0,0,0,0,0,0,0,4.37.39,7.8,4.06,7.8,8.53,0,5.3-4.23,14.44-8.57,14.44ZM50.89,40.22c-2.95,0-5.35,2.4-5.35,5.35s2.4,5.35,5.35,5.35,5.35-2.4,5.35-5.35-2.4-5.35-5.35-5.35ZM50.89,48.91c-1.84,0-3.35-1.5-3.35-3.35s1.5-3.35,3.35-3.35,3.35,1.5,3.35,3.35-1.5,3.35-3.35,3.35Z"/>
</svg>