<?xml version="1.0" encoding="UTF-8"?>
<svg id="OBJECT" xmlns="http://www.w3.org/2000/svg" viewBox="0 0 32 32">
  <defs>
    <style>
      .cls-1 {
        fill: #7738c8;
      }

      .cls-1, .cls-2 {
        stroke-width: 0px;
      }

      .cls-2 {
        fill: #011839;
      }
    </style>
  </defs>
  <g>
    <path class="cls-2" d="m16,1H4c-1.65,0-3,1.35-3,3v24c0,1.65,1.35,3,3,3h12c1.65,0,3-1.35,3-3V4c0-1.65-1.35-3-3-3ZM7.5,3h5v1c0,.55-.45,1-1,1h-3c-.55,0-1-.45-1-1v-1Zm9.5,25c0,.55-.45,1-1,1H4c-.55,0-1-.45-1-1V4c0-.55.45-1,1-1h1.5v1c0,1.65,1.35,3,3,3h3c1.65,0,3-1.35,3-3v-1h1.5c.55,0,1,.45,1,1v24Z"/>
    <path class="cls-2" d="m14,25H6c-.55,0-1,.45-1,1s.45,1,1,1h8c.55,0,1-.45,1-1s-.45-1-1-1Z"/>
    <path class="cls-2" d="m14.15,10.79l-.83.83c-.92-.7-2.07-1.13-3.32-1.13-3.03,0-5.5,2.47-5.5,5.5s2.47,5.5,5.5,5.5,5.5-2.47,5.5-5.5c0-1.06-.31-2.05-.83-2.89l.9-.9c.39-.39.39-1.02,0-1.41s-1.02-.39-1.41,0Zm-.65,5.21c0,1.93-1.57,3.5-3.5,3.5s-3.5-1.57-3.5-3.5,1.57-3.5,3.5-3.5c.7,0,1.34.21,1.89.56l-2.09,2.09-.55-.55c-.39-.39-1.02-.39-1.41,0s-.39,1.02,0,1.41l1.26,1.26c.2.2.45.29.71.29s.51-.1.71-.29l2.69-2.69c.19.43.31.91.31,1.42Z"/>
  </g>
  <g>
    <path class="cls-1" d="m30,7h-9v6h10v-5c0-.55-.45-1-1-1Z"/>
    <path class="cls-1" d="m21,25h9c.55,0,1-.45,1-1v-9h-10v10Zm3-6h4c.55,0,1,.45,1,1s-.45,1-1,1h-4c-.55,0-1-.45-1-1s.45-1,1-1Z"/>
  </g>
</svg>