<?xml version="1.0" encoding="UTF-8"?>
<svg id="OBJECT" xmlns="http://www.w3.org/2000/svg" viewBox="0 0 32 32">
  <defs>
    <style>
      .cls-1 {
        fill: #7738c8;
      }

      .cls-1, .cls-2 {
        stroke-width: 0px;
      }

      .cls-2 {
        fill: #011839;
      }
    </style>
  </defs>
  <g>
    <path class="cls-2" d="m30,8h-5V2c0-.55-.45-1-1-1H2c-.55,0-1,.45-1,1v25c0,2.21,1.79,4,4,4h22c2.21,0,4-1.79,4-4V9c0-.55-.45-1-1-1Zm-1,2v4h-4v-4h4ZM5,29c-1.1,0-2-.9-2-2V3h20v24c0,.73.2,1.41.54,2H5Zm22,0c-1.1,0-2-.9-2-2v-11h4v11c0,1.1-.9,2-2,2Z"/>
    <path class="cls-2" d="m20.5,24.5H5.5c-.55,0-1,.45-1,1s.45,1,1,1h15c.55,0,1-.45,1-1s-.45-1-1-1Z"/>
    <path class="cls-2" d="m20.5,20.5h-11c-.55,0-1,.45-1,1s.45,1,1,1h11c.55,0,1-.45,1-1s-.45-1-1-1Z"/>
    <path class="cls-2" d="m5.5,22.5h.5c.55,0,1-.45,1-1s-.45-1-1-1h-.5c-.55,0-1,.45-1,1s.45,1,1,1Z"/>
  </g>
  <g>
    <path class="cls-1" d="m9.13,8.77c.2-.19.47-.29.73-.27.27.01.52.13.71.33l1.45,1.62,3.23-3.62c.2-.23.5-.35.8-.33.3.02.58.17.76.41l4.7,6.5v-5.91c0-1.65-1.35-3-3-3H7.5c-1.65,0-3,1.35-3,3v5.67l4.63-4.4Z"/>
    <path class="cls-1" d="m15.91,9.09l-2.55,2.86.12.14c.37.41.33,1.04-.08,1.41-.41.37-1.04.33-1.41-.08l-2.23-2.49-5.22,4.96c.19,1.47,1.44,2.61,2.96,2.61h11c1.28,0,2.37-.81,2.8-1.95l-5.39-7.45Z"/>
  </g>
</svg>