<?xml version="1.0" encoding="UTF-8"?>
<svg id="OBJECT" xmlns="http://www.w3.org/2000/svg" viewBox="0 0 32 32">
  <defs>
    <style>
      .cls-1 {
        fill: #7738c8;
      }

      .cls-1, .cls-2 {
        stroke-width: 0px;
      }

      .cls-2 {
        fill: #011839;
      }
    </style>
  </defs>
  <g>
    <path class="cls-2" d="m27,15H6.07c-1,0-1.94.5-2.5,1.34l-2.41,3.61c-.22.34-.22.77,0,1.11l2.41,3.61c.56.84,1.49,1.34,2.5,1.34h5.96v3h-4c-.55,0-1,.45-1,1s.45,1,1,1h16c.55,0,1-.45,1-1s-.45-1-1-1h-4v-3h6.97c1.65,0,3-1.35,3-3v-5c0-1.65-1.35-3-3-3Zm-8.97,14h-4v-3h4v3Zm9.97-6c0,.55-.45,1-1,1H6.07c-.33,0-.65-.17-.83-.45l-2.04-3.05,2.04-3.05c.19-.28.5-.45.83-.45h20.93c.55,0,1,.45,1,1v5Z"/>
    <path class="cls-2" d="m25.5,19.5h-.5c-.55,0-1,.45-1,1s.45,1,1,1h.5c.55,0,1-.45,1-1s-.45-1-1-1Z"/>
    <path class="cls-2" d="m21.5,19.5h-.5c-.55,0-1,.45-1,1s.45,1,1,1h.5c.55,0,1-.45,1-1s-.45-1-1-1Z"/>
    <path class="cls-2" d="m17.5,19.5H6.68c-.55,0-1,.45-1,1s.45,1,1,1h10.82c.55,0,1-.45,1-1s-.45-1-1-1Z"/>
  </g>
  <path class="cls-1" d="m30.83,5.95l-2.41-3.61c-.56-.84-1.49-1.34-2.5-1.34H5c-1.65,0-3,1.35-3,3v5c0,1.65,1.35,3,3,3h7.03v1h8v-1h5.9c1,0,1.94-.5,2.5-1.34l2.41-3.61c.22-.34.22-.77,0-1.11Zm-23.83,1.55h-.5c-.55,0-1-.45-1-1s.45-1,1-1h.5c.55,0,1,.45,1,1s-.45,1-1,1Zm4,0h-.5c-.55,0-1-.45-1-1s.45-1,1-1h.5c.55,0,1,.45,1,1s-.45,1-1,1Zm14.32,0h-10.82c-.55,0-1-.45-1-1s.45-1,1-1h10.82c.55,0,1,.45,1,1s-.45,1-1,1Z"/>
</svg>