<?xml version="1.0" encoding="UTF-8"?>
<svg id="OBJECT" xmlns="http://www.w3.org/2000/svg" viewBox="0 0 32 32">
  <defs>
    <style>
      .cls-1 {
        fill: #7738c8;
      }

      .cls-1, .cls-2 {
        stroke-width: 0px;
      }

      .cls-2 {
        fill: #011839;
      }
    </style>
  </defs>
  <path class="cls-2" d="m28,18h-8c-1.36,0-2.5.91-2.86,2.15-.75-.16-1.52-.16-2.27,0-.37-1.24-1.51-2.15-2.86-2.15H4c-1.65,0-3,1.35-3,3v7c0,1.65,1.35,3,3,3h6.7c1.18,0,2.26-.7,2.74-1.78l1.3-2.93c.81-.31,1.7-.31,2.51,0l1.3,2.93c.48,1.08,1.56,1.78,2.74,1.78h6.7c1.65,0,3-1.35,3-3v-7c0-1.65-1.35-3-3-3Zm-15,7.29l-1.38,3.12c-.16.36-.52.59-.92.59h-6.7c-.55,0-1-.45-1-1v-7c0-.55.45-1,1-1h8c.55,0,1,.45,1,1v4.29Zm2-1.16v-1.94c.65-.2,1.35-.2,2,0v1.94c-.66-.12-1.34-.12-2,0Zm14,3.87c0,.55-.45,1-1,1h-6.7c-.39,0-.75-.23-.91-.59l-1.39-3.12v-4.29c0-.55.45-1,1-1h8c.55,0,1,.45,1,1v7Z"/>
  <path class="cls-1" d="m17.44,9.17c.4.75,1.09,1.29,1.91,1.5.82.21,1.69.06,2.39-.4l3.31-2.19,1.4,7.92h2.03l-2.5-14.17c-.06-.35-.31-.65-.65-.77-.34-.12-.71-.05-.99.18l-7.05,6c-.36.3-.46.82-.24,1.23l.37.7Z"/>
  <path class="cls-1" d="m6.94,8.08l3.31,2.19c.7.47,1.58.61,2.39.4.82-.21,1.51-.76,1.91-1.5l.37-.7c.22-.41.12-.93-.24-1.23L7.65,1.24c-.27-.23-.65-.3-.99-.18-.34.12-.58.41-.65.77l-2.5,14.17h2.03l1.4-7.92Z"/>
</svg>