<?xml version="1.0" encoding="UTF-8"?>
<svg id="Expanded" xmlns="http://www.w3.org/2000/svg" viewBox="0 0 64 64">
  <path d="M61.03,24.64c-.67-1.43-1.67-2.67-2.93-3.64,0,0,0,0,0,0h0c-2.86-2.2-6.7-2.7-10-1.3l-8.9,3.49-10.15-3.65c-.66-.24-1.39-.28-2.11-.11l-3.68.91c-1.4.35-2.44,1.44-2.71,2.85-.27,1.41.28,2.81,1.45,3.65l2.77,2-1.21.47c-1.33.52-2.8.58-4.16.17l-10.52-3.22c-2.28-.69-4.61.13-5.95,2.11-1.33,1.97-1.23,4.45.26,6.3l6.62,8.25c1.6,1.99,3.98,3.11,6.47,3.11.54,0,1.08-.05,1.63-.16l2.71-.54-1.88,3.96c-.6-.42-1.26-.73-1.97-.89-1.43-.34-3.03.01-4.27.93-.72.53-1.26,1.2-1.58,1.94-1.94-.61-4.12-.33-5.84.8-2.07,1.36-3.27,3.83-3.07,6.22,0,.03,0,.06,0,.1.11,1.38,1.29,2.46,2.67,2.46h23.02c1.02,0,1.94-.57,2.39-1.48.46-.92.36-2.01-.27-2.84-.17-.22-.33-.45-.49-.69-.58-.87-1.26-1.9-2.21-2.69l10.11-11.08,16.42-3.24c.38-.07.77-.15,1.14-.26,3.73-1.09,6.51-4.29,7.08-8.15.05-.36.08-.72.1-1.08.04-1.08-.09-2.15-.4-3.19-.15-.51-.34-1.01-.56-1.48ZM57.24,22.91c.11.1.23.2.34.3.12.12.24.23.35.35.16.18.31.37.46.57.09.12.19.24.28.37.15.22.28.46.4.7.06.12.13.22.19.34.17.36.31.74.43,1.13.07.26.13.52.18.78.02.08.02.16.04.25.03.18.05.36.07.54,0,.1.01.19.02.29,0,.17.01.34,0,.52,0,.1,0,.2,0,.29,0,.04,0,.09-.01.13l-7.63,2.23c-1.87.55-3.84-.53-4.39-2.41-.27-.91-.16-1.87.29-2.69.45-.83,1.2-1.43,2.11-1.69l6.88-2.01ZM23.17,25.22c-.54-.39-.78-1-.66-1.65.12-.65.58-1.13,1.23-1.29l3.67-.91c.33-.08.67-.06.96.05l8,2.88-9.39,3.68-3.81-2.76ZM27.68,56.93c.18.28.37.54.56.79.25.33.12.65.08.75-.05.11-.22.37-.6.37H4.69c-.35,0-.65-.27-.68-.64-.14-1.72.73-3.51,2.17-4.46.79-.52,1.73-.78,2.68-.78.79,0,1.58.18,2.28.56.3.16.66.16.95,0,.3-.16.49-.46.52-.8.05-.67.43-1.3,1.08-1.77.77-.57,1.78-.79,2.63-.59,1.65.39,3.03,2.04,3.35,4.02.06.38.33.69.7.79.37.11.76,0,1.02-.28.9-.98,2.53-1.28,3.72-.69,0,0,.01,0,.02,0,1.08.54,1.86,1.71,2.54,2.75ZM54.25,36.63c-.31.09-.62.15-.95.21l-13.79,2.72,1.75-1.91c.37-.41.34-1.04-.07-1.41-.41-.37-1.04-.34-1.41.06l-14.42,15.81c-1.36-.45-2.88-.3-4.13.38-.25-.63-.58-1.21-.97-1.74l5.89-12.43c.24-.5.02-1.1-.47-1.33-.5-.24-1.1-.02-1.33.48l-2.65,5.6-4.17.83c-2.32.46-4.67-.4-6.15-2.24l-6.62-8.25c-1.13-1.4-.82-2.95-.16-3.93.66-.98,1.99-1.84,3.71-1.31l10.52,3.22c1.79.54,3.73.47,5.47-.22l24.57-9.63c1.97-.83,4.16-.82,6.09-.05l-5.15,1.5c-1.42.42-2.6,1.36-3.31,2.65-.71,1.29-.87,2.79-.46,4.21.71,2.42,2.92,3.99,5.32,3.99.51,0,1.03-.07,1.55-.22l6.58-1.92c-.87,2.35-2.79,4.21-5.23,4.92ZM43.75,29.97c.16.53-.15,1.09-.68,1.24l-4.99,1.46c-.09.03-.19.04-.28.04-.43,0-.83-.28-.96-.72-.16-.53.15-1.09.68-1.24l4.99-1.46c.53-.16,1.08.15,1.24.68ZM31.41,15.73h23.02c1.02,0,1.94-.57,2.39-1.48.46-.92.36-2.01-.27-2.84-.17-.22-.33-.45-.49-.69-.78-1.18-1.76-2.65-3.32-3.43-1.51-.76-3.34-.68-4.8.11-.81-2.07-2.47-3.65-4.45-4.11-1.43-.34-3.02.01-4.27.93-.72.53-1.26,1.2-1.58,1.95-1.94-.61-4.13-.33-5.84.8-2.07,1.36-3.27,3.83-3.06,6.31.11,1.38,1.29,2.46,2.67,2.46ZM32.9,8.63c.79-.52,1.73-.78,2.68-.78.79,0,1.58.18,2.28.55.3.16.66.16.95,0,.3-.16.49-.46.52-.8.05-.67.43-1.3,1.08-1.77.77-.57,1.78-.79,2.63-.59,1.65.39,3.03,2.04,3.36,4.02.06.38.34.69.7.79.37.11.76,0,1.02-.28.9-.98,2.54-1.28,3.73-.69,1.08.54,1.86,1.72,2.55,2.75.18.28.37.54.56.79.25.33.12.65.08.75-.05.11-.22.37-.6.37h-23.02c-.35,0-.65-.27-.68-.64-.14-1.72.73-3.51,2.17-4.46Z"/>
</svg>