<?xml version="1.0" encoding="UTF-8"?>
<svg id="OBJECT" xmlns="http://www.w3.org/2000/svg" viewBox="0 0 32 32">
  <defs>
    <style>
      .cls-1 {
        fill: #7738c8;
      }

      .cls-1, .cls-2 {
        stroke-width: 0px;
      }

      .cls-2 {
        fill: #011839;
      }
    </style>
  </defs>
  <path class="cls-1" d="m17,19c-2.47,0-4.49-2-4.89-4.36-1.91,1.03-3.22,3.05-3.22,5.38,0,3.37,2.73,6.11,6.11,6.11s6.11-2.73,6.11-6.11c0-.35-.04-.69-.09-1.02h-4.02Z"/>
  <g>
    <path class="cls-2" d="m28,1h-11c-1.65,0-3,1.35-3,3v5.04c-5.89.43-11.02,4.6-12.95,10.65-.06.2-.06.41,0,.61,2.04,6.4,7.64,10.7,13.95,10.7s11.92-4.3,13.95-10.7c.06-.2.06-.41,0-.61-.3-.94-.69-1.84-1.14-2.7h.19c1.65,0,3-1.35,3-3V4c0-1.65-1.35-3-3-3Zm-11,2h11c.55,0,1,.45,1,1v6l-2.71-3.61c-.18-.24-.46-.39-.76-.4-.29-.03-.59.11-.79.33l-3.23,3.62-1.45-1.62c-.18-.2-.43-.32-.7-.33-.26-.02-.53.08-.73.27l-2.64,2.44v-6.71c0-.55.45-1,1-1ZM3.05,20c.69-2.02,1.79-3.78,3.17-5.2-.47,1.64-.72,3.4-.72,5.2s.26,3.56.72,5.2c-1.38-1.42-2.48-3.19-3.17-5.2Zm6.28,7.56c-1.18-2.12-1.83-4.79-1.83-7.56s.65-5.44,1.83-7.56c1.44-.77,3.02-1.26,4.67-1.4v2.96c0,1.65,1.35,3,3,3h5.21c.18.99.29,1.99.29,3,0,2.77-.66,5.44-1.85,7.57-1.72.92-3.64,1.43-5.65,1.43s-3.94-.51-5.67-1.44Zm17.62-7.56c-.69,2.02-1.79,3.79-3.18,5.21.47-1.64.73-3.41.73-5.21,0-1-.08-2.01-.24-3h1.24c.59.93,1.08,1.94,1.45,3Zm1.05-5h-11c-.55,0-1-.45-1-1v-.56l3.25-3.01,2.24,2.5c.37.41,1,.45,1.41.08.41-.37.45-1,.08-1.41l-.12-.14,2.57-2.88,3.58,4.76v.67c0,.55-.45,1-1,1Z"/>
    <path class="cls-2" d="m18.25,6h.5c.55,0,1-.45,1-1s-.45-1-1-1h-.5c-.55,0-1,.45-1,1s.45,1,1,1Z"/>
  </g>
</svg>