<?xml version="1.0" encoding="UTF-8"?>
<svg id="OBJECT" xmlns="http://www.w3.org/2000/svg" viewBox="0 0 32 32">
  <defs>
    <style>
      .cls-1 {
        fill: #7738c8;
      }

      .cls-1, .cls-2 {
        stroke-width: 0px;
      }

      .cls-2 {
        fill: #011839;
      }
    </style>
  </defs>
  <path class="cls-2" d="m30,13h-2v-5c0-.55-.45-1-1-1h-1.5c-.55,0-1,.45-1,1s.45,1,1,1h.5v4H5c-1.1,0-2-.9-2-2s.9-2,2-2h1.5c.55,0,1-.45,1-1s-.45-1-1-1h-1.5c-2.21,0-4,1.79-4,4v16c0,2.21,1.79,4,4,4h25c.55,0,1-.45,1-1V14c0-.55-.45-1-1-1ZM3,27v-6h6c1.1,0,2,.9,2,2v6h-6c-1.1,0-2-.9-2-2Zm10,2v-6c0-2.21-1.79-4-4-4H3v-4.54c.59.34,1.27.54,2,.54h24v3.5h-6.5c-1.93,0-3.5,1.57-3.5,3.5s1.57,3.5,3.5,3.5h6.5v3.5H13Zm9.5-5.5c-.83,0-1.5-.67-1.5-1.5s.67-1.5,1.5-1.5h1.5v3h-1.5Zm3.5-3h3v3h-3v-3Z"/>
  <path class="cls-1" d="m23.5,2c0-.55-.45-1-1-1h-13c-.55,0-1,.45-1,1v9h15V2Zm-8.67,2.83c0,1.47-1.2,2.67-2.67,2.67h-.83c-.55,0-1-.45-1-1s.45-1,1-1h.83c.37,0,.67-.3.67-.67v-.83c0-.55.45-1,1-1s1,.45,1,1v.83Zm5.83,2.67h-.83c-1.47,0-2.67-1.2-2.67-2.67v-.83c0-.55.45-1,1-1s1,.45,1,1v.83c0,.37.3.67.67.67h.83c.55,0,1,.45,1,1s-.45,1-1,1Z"/>
</svg>