<?xml version="1.0" encoding="UTF-8"?>
<svg id="OBJECT" xmlns="http://www.w3.org/2000/svg" viewBox="0 0 32 32">
  <defs>
    <style>
      .cls-1 {
        fill: #7738c8;
      }

      .cls-1, .cls-2 {
        stroke-width: 0px;
      }

      .cls-2 {
        fill: #011839;
      }
    </style>
  </defs>
  <path class="cls-2" d="m30.14,5.51l-13.14-1.88v-.63c0-.55-.45-1-1-1h-2.5c-1.38,0-2.5,1.12-2.5,2.5v1.18l-3,.6V2c0-.55-.45-1-1-1s-1,.45-1,1v16.8c0,.55.45,1,1,1s1-.45,1-1v-4.08l3,.6v1.18c0,1.38,1.12,2.5,2.5,2.5h2.5c.55,0,1-.45,1-1v-.63l13.14-1.88c.49-.07.86-.49.86-.99V6.5c0-.5-.37-.92-.86-.99Zm-5.64,1.21v7.55l-3,.43V6.3l3,.43Zm-16.5,5.96v-4.36l3-.6v5.56l-3-.6Zm7,4.32h-1.5c-.28,0-.5-.22-.5-.5V4.5c0-.28.22-.5.5-.5h1.5v13Zm2-11.35l2.5.36v8.98l-2.5.36V5.65Zm12,7.98l-2.5.36v-6.98l2.5.36v6.27Z"/>
  <g>
    <path class="cls-1" d="m1,27v2c0,1.1.9,2,2,2h8c1.1,0,2-.9,2-2v-2H1Z"/>
    <rect class="cls-1" x="3.5" y="22" width="7" height="3"/>
  </g>
</svg>